%TF.GenerationSoftware,KiCad,Pcbnew,9.0.4*%
%TF.CreationDate,2026-02-01T15:45:46+02:00*%
%TF.ProjectId,IMP_nano,494d505f-6e61-46e6-9f2e-6b696361645f,rev?*%
%TF.SameCoordinates,Original*%
%TF.FileFunction,Copper,L2,Bot*%
%TF.FilePolarity,Positive*%
%FSLAX46Y46*%
G04 Gerber Fmt 4.6, Leading zero omitted, Abs format (unit mm)*
G04 Created by KiCad (PCBNEW 9.0.4) date 2026-02-01 15:45:46*
%MOMM*%
%LPD*%
G01*
G04 APERTURE LIST*
G04 Aperture macros list*
%AMRoundRect*
0 Rectangle with rounded corners*
0 $1 Rounding radius*
0 $2 $3 $4 $5 $6 $7 $8 $9 X,Y pos of 4 corners*
0 Add a 4 corners polygon primitive as box body*
4,1,4,$2,$3,$4,$5,$6,$7,$8,$9,$2,$3,0*
0 Add four circle primitives for the rounded corners*
1,1,$1+$1,$2,$3*
1,1,$1+$1,$4,$5*
1,1,$1+$1,$6,$7*
1,1,$1+$1,$8,$9*
0 Add four rect primitives between the rounded corners*
20,1,$1+$1,$2,$3,$4,$5,0*
20,1,$1+$1,$4,$5,$6,$7,0*
20,1,$1+$1,$6,$7,$8,$9,0*
20,1,$1+$1,$8,$9,$2,$3,0*%
G04 Aperture macros list end*
%TA.AperFunction,ComponentPad*%
%ADD10R,2.000000X2.000000*%
%TD*%
%TA.AperFunction,ComponentPad*%
%ADD11C,2.000000*%
%TD*%
%TA.AperFunction,SMDPad,CuDef*%
%ADD12RoundRect,0.150000X0.587500X0.150000X-0.587500X0.150000X-0.587500X-0.150000X0.587500X-0.150000X0*%
%TD*%
%TA.AperFunction,SMDPad,CuDef*%
%ADD13RoundRect,0.250000X-0.650000X1.000000X-0.650000X-1.000000X0.650000X-1.000000X0.650000X1.000000X0*%
%TD*%
%TA.AperFunction,ComponentPad*%
%ADD14RoundRect,0.250001X-0.949999X0.949999X-0.949999X-0.949999X0.949999X-0.949999X0.949999X0.949999X0*%
%TD*%
%TA.AperFunction,ComponentPad*%
%ADD15C,2.400000*%
%TD*%
%TA.AperFunction,SMDPad,CuDef*%
%ADD16RoundRect,0.100000X0.100000X-0.130000X0.100000X0.130000X-0.100000X0.130000X-0.100000X-0.130000X0*%
%TD*%
%TA.AperFunction,SMDPad,CuDef*%
%ADD17RoundRect,0.150000X0.150000X-0.587500X0.150000X0.587500X-0.150000X0.587500X-0.150000X-0.587500X0*%
%TD*%
%TA.AperFunction,SMDPad,CuDef*%
%ADD18RoundRect,0.150000X0.150000X0.625000X-0.150000X0.625000X-0.150000X-0.625000X0.150000X-0.625000X0*%
%TD*%
%TA.AperFunction,SMDPad,CuDef*%
%ADD19RoundRect,0.250000X0.350000X0.650000X-0.350000X0.650000X-0.350000X-0.650000X0.350000X-0.650000X0*%
%TD*%
%TA.AperFunction,ComponentPad*%
%ADD20R,2.100000X2.100000*%
%TD*%
%TA.AperFunction,ComponentPad*%
%ADD21C,2.100000*%
%TD*%
%TA.AperFunction,SMDPad,CuDef*%
%ADD22R,1.540000X3.420000*%
%TD*%
%TA.AperFunction,SMDPad,CuDef*%
%ADD23RoundRect,0.100000X0.130000X0.100000X-0.130000X0.100000X-0.130000X-0.100000X0.130000X-0.100000X0*%
%TD*%
%TA.AperFunction,SMDPad,CuDef*%
%ADD24R,3.960000X3.960000*%
%TD*%
%TA.AperFunction,ComponentPad*%
%ADD25C,2.775000*%
%TD*%
%TA.AperFunction,ComponentPad*%
%ADD26C,1.800000*%
%TD*%
%TA.AperFunction,SMDPad,CuDef*%
%ADD27RoundRect,0.100000X-0.100000X0.130000X-0.100000X-0.130000X0.100000X-0.130000X0.100000X0.130000X0*%
%TD*%
%TA.AperFunction,ViaPad*%
%ADD28C,0.600000*%
%TD*%
%TA.AperFunction,ViaPad*%
%ADD29C,0.660000*%
%TD*%
%TA.AperFunction,Conductor*%
%ADD30C,0.200000*%
%TD*%
%TA.AperFunction,Conductor*%
%ADD31C,1.500000*%
%TD*%
%TA.AperFunction,Conductor*%
%ADD32C,1.800000*%
%TD*%
%TA.AperFunction,Conductor*%
%ADD33C,2.000000*%
%TD*%
G04 APERTURE END LIST*
D10*
%TO.P,SW1,1,A*%
%TO.N,GND*%
X128200000Y-102600000D03*
D11*
%TO.P,SW1,2,B*%
%TO.N,/NRST*%
X128200000Y-97520000D03*
%TO.P,SW1,3*%
%TO.N,N/C*%
X128200000Y-92440000D03*
%TD*%
D12*
%TO.P,Q1,1,B*%
%TO.N,Net-(Q1-B)*%
X146287500Y-91087500D03*
%TO.P,Q1,2,E*%
%TO.N,/12v_C5*%
X146287500Y-92987500D03*
%TO.P,Q1,3,C*%
%TO.N,/12v_R7*%
X144412500Y-92037500D03*
%TD*%
D13*
%TO.P,D1,1,K*%
%TO.N,/12v_OUT*%
X145850000Y-99650000D03*
%TO.P,D1,2,A*%
%TO.N,GND*%
X145850000Y-103650000D03*
%TD*%
D14*
%TO.P,C5,1*%
%TO.N,/12v_C5*%
X136450000Y-94784785D03*
D15*
%TO.P,C5,2*%
%TO.N,GND*%
X136450000Y-99784785D03*
%TD*%
D16*
%TO.P,R5,1*%
%TO.N,GND*%
X147250000Y-96765000D03*
%TO.P,R5,2*%
%TO.N,Net-(Q2-G)*%
X147250000Y-96125000D03*
%TD*%
D17*
%TO.P,Q2,1,G*%
%TO.N,Net-(Q2-G)*%
X145900000Y-96600000D03*
%TO.P,Q2,2,S*%
%TO.N,/12v_OUT*%
X144000000Y-96600000D03*
%TO.P,Q2,3,D*%
%TO.N,/12v_C5*%
X144950000Y-94725000D03*
%TD*%
D18*
%TO.P,J2,1,Pin_1*%
%TO.N,+3.3V*%
X124500000Y-100050000D03*
%TO.P,J2,2,Pin_2*%
%TO.N,/SWDIO*%
X123500000Y-100050000D03*
%TO.P,J2,3,Pin_3*%
%TO.N,/SWCLK*%
X122500000Y-100050000D03*
%TO.P,J2,4,Pin_4*%
%TO.N,GND*%
X121500000Y-100050000D03*
D19*
%TO.P,J2,MP*%
%TO.N,N/C*%
X125800000Y-103925000D03*
X120200000Y-103925000D03*
%TD*%
D20*
%TO.P,J1,1,Pin_1*%
%TO.N,/12v_OUT*%
X151900000Y-97050000D03*
D21*
%TO.P,J1,2,Pin_2*%
%TO.N,GND*%
X151900000Y-102050000D03*
%TD*%
D22*
%TO.P,R7,1*%
%TO.N,/12v*%
X154490000Y-92250000D03*
%TO.P,R7,2*%
%TO.N,/12v_R7*%
X148710000Y-92250000D03*
%TD*%
D23*
%TO.P,R3,1*%
%TO.N,Net-(Q1-B)*%
X144050000Y-90700000D03*
%TO.P,R3,2*%
%TO.N,/Charge*%
X143410000Y-90700000D03*
%TD*%
D24*
%TO.P,BT2,N*%
%TO.N,GND*%
X106000000Y-91000000D03*
D25*
%TO.P,BT2,P1*%
%TO.N,+3.3V*%
X106000000Y-103700000D03*
%TO.P,BT2,P2*%
X106000000Y-78300000D03*
%TD*%
D26*
%TO.P,BT1,+*%
%TO.N,/12v*%
X153350000Y-83500000D03*
%TO.P,BT1,-*%
%TO.N,GND*%
X121650000Y-83500000D03*
%TD*%
D27*
%TO.P,C2,1*%
%TO.N,GND*%
X123700000Y-96730000D03*
%TO.P,C2,2*%
%TO.N,/NRST*%
X123700000Y-97370000D03*
%TD*%
D16*
%TO.P,C6,1*%
%TO.N,+3.3V*%
X122050000Y-91345000D03*
%TO.P,C6,2*%
%TO.N,GND*%
X122050000Y-90705000D03*
%TD*%
D28*
%TO.N,+3.3V*%
X113808284Y-90808284D03*
%TO.N,/SWCLK*%
X120613914Y-94861086D03*
D29*
%TO.N,/SWDIO*%
X117325500Y-92750500D03*
D28*
%TO.N,GND*%
X102925000Y-84285584D03*
X102925000Y-84850000D03*
X115900000Y-84150000D03*
X114725000Y-95775000D03*
X102925000Y-85400000D03*
%TO.N,/I2C_SDA*%
X118400000Y-89488000D03*
X109950000Y-82300000D03*
%TO.N,/Charge*%
X118350000Y-87900000D03*
%TO.N,Net-(Q2-G)*%
X109250000Y-90000000D03*
%TD*%
D30*
%TO.N,+3.3V*%
X114345000Y-91345000D02*
X113808284Y-90808284D01*
X129476000Y-96991463D02*
X123829537Y-91345000D01*
X127474537Y-100050000D02*
X129476000Y-98048537D01*
X113866568Y-90750000D02*
X113808284Y-90808284D01*
X129476000Y-98048537D02*
X129476000Y-96991463D01*
X103500000Y-80800000D02*
X103500000Y-101200000D01*
X106950000Y-102750000D02*
X106000000Y-103700000D01*
X106000000Y-78300000D02*
X103500000Y-80800000D01*
X124500000Y-100050000D02*
X124500000Y-100824999D01*
X122574999Y-102750000D02*
X106950000Y-102750000D01*
X123829537Y-91345000D02*
X122050000Y-91345000D01*
X124500000Y-100050000D02*
X127474537Y-100050000D01*
X106000000Y-103700000D02*
X103500000Y-101200000D01*
X122050000Y-91345000D02*
X114345000Y-91345000D01*
X124500000Y-100824999D02*
X122574999Y-102750000D01*
%TO.N,/SWCLK*%
X120936450Y-95975000D02*
X120838914Y-95975000D01*
X120613914Y-95975000D02*
X120291356Y-95975000D01*
X120838914Y-95975000D02*
X120613914Y-95975000D01*
X120936451Y-96975000D02*
X120838914Y-96975000D01*
X120613914Y-96475000D02*
X120838914Y-96475000D01*
X121709928Y-98859928D02*
X121866683Y-99016683D01*
X120291356Y-96475000D02*
X120613914Y-96475000D01*
X122500000Y-99650000D02*
X122500000Y-100050000D01*
X120613914Y-97200000D02*
X120613914Y-97250000D01*
X121743540Y-98437409D02*
X121674572Y-98506374D01*
X121321020Y-98152822D02*
X121389987Y-98083856D01*
X120613914Y-97763914D02*
X121002822Y-98152822D01*
X120066356Y-96200000D02*
X120066356Y-96250000D01*
X121674572Y-98824572D02*
X121709928Y-98859928D01*
X121161450Y-95700000D02*
X121161450Y-95750000D01*
X121161451Y-96700000D02*
X121161451Y-96750000D01*
X121866683Y-99016683D02*
X122500000Y-99650000D01*
X120613914Y-97250000D02*
X120613914Y-97763914D01*
X121708185Y-98083856D02*
X121743540Y-98119211D01*
X120613914Y-94861086D02*
X120613914Y-95250000D01*
X120838914Y-96475000D02*
X120936451Y-96475000D01*
X120838914Y-95475000D02*
X120936450Y-95475000D01*
X120291356Y-95975000D02*
G75*
G03*
X120066400Y-96200000I44J-225000D01*
G01*
X121002822Y-98152822D02*
G75*
G03*
X121321020Y-98152822I159099J159099D01*
G01*
X120838914Y-96975000D02*
G75*
G03*
X120613900Y-97200000I-14J-225000D01*
G01*
X121161450Y-95750000D02*
G75*
G02*
X120936450Y-95975050I-225050J0D01*
G01*
X120613914Y-95250000D02*
G75*
G03*
X120838914Y-95474986I224986J0D01*
G01*
X120936451Y-96475000D02*
G75*
G02*
X121161500Y-96700000I49J-225000D01*
G01*
X121674572Y-98506374D02*
G75*
G03*
X121674545Y-98824599I159128J-159126D01*
G01*
X121743540Y-98119211D02*
G75*
G02*
X121743530Y-98437399I-159140J-159089D01*
G01*
X120066356Y-96250000D02*
G75*
G03*
X120291356Y-96475044I225044J0D01*
G01*
X121161451Y-96750000D02*
G75*
G02*
X120936451Y-96974951I-224951J0D01*
G01*
X120936450Y-95475000D02*
G75*
G02*
X121161400Y-95700000I-50J-225000D01*
G01*
X121389987Y-98083856D02*
G75*
G02*
X121708185Y-98083856I159099J-159099D01*
G01*
%TO.N,/SWDIO*%
X117858968Y-92750000D02*
X119316002Y-92750000D01*
X123450000Y-97876000D02*
X123450000Y-100000000D01*
X123076000Y-96509998D02*
X123076000Y-97526000D01*
X123441484Y-97876000D02*
X123450000Y-97876000D01*
X119316002Y-92750000D02*
X123076000Y-96509998D01*
X123450000Y-100000000D02*
X123500000Y-100050000D01*
X123224000Y-97658516D02*
X123441484Y-97876000D01*
X123208516Y-97658516D02*
X123224000Y-97658516D01*
X117325500Y-92750500D02*
X117858468Y-92750500D01*
X117858468Y-92750500D02*
X117858968Y-92750000D01*
X123076000Y-97526000D02*
X123208516Y-97658516D01*
%TO.N,GND*%
X102925000Y-84850000D02*
X102925000Y-84285584D01*
X128590215Y-104075000D02*
X126475000Y-101959785D01*
X150149000Y-95299000D02*
X153651000Y-95299000D01*
X153651000Y-95299000D02*
X153651000Y-100299000D01*
X148678000Y-96770000D02*
X150149000Y-95299000D01*
X153651000Y-100299000D02*
X151900000Y-102050000D01*
X147250000Y-96770000D02*
X148678000Y-96770000D01*
D31*
%TO.N,/12v_C5*%
X144806633Y-94474762D02*
X144831871Y-94500000D01*
D32*
X136634785Y-94600000D02*
X136450000Y-94784785D01*
X141874762Y-94600000D02*
X136634785Y-94600000D01*
D31*
X146287500Y-93162500D02*
X146287500Y-93151000D01*
X142000000Y-94474762D02*
X144806633Y-94474762D01*
X144950000Y-94500000D02*
X146287500Y-93162500D01*
X144831871Y-94500000D02*
X144950000Y-94500000D01*
X141874762Y-94600000D02*
X142000000Y-94474762D01*
D33*
%TO.N,/12v_OUT*%
X149300000Y-99650000D02*
X151900000Y-97050000D01*
D32*
X143874238Y-98124238D02*
X143874238Y-96725762D01*
X145850000Y-99650000D02*
X145400000Y-99650000D01*
X145400000Y-99650000D02*
X143874238Y-98124238D01*
D33*
X145850000Y-99650000D02*
X149300000Y-99650000D01*
D30*
%TO.N,/12v_R7*%
X144412500Y-92037500D02*
X144750000Y-91700000D01*
X148310000Y-91700000D02*
X148860000Y-92250000D01*
X144750000Y-91700000D02*
X148310000Y-91700000D01*
%TO.N,/12v*%
X154490000Y-84640000D02*
X154490000Y-92250000D01*
X153350000Y-83500000D02*
X154490000Y-84640000D01*
%TO.N,/I2C_SDA*%
X116922661Y-87612737D02*
X116723699Y-87811700D01*
X115054929Y-86142930D02*
X115054930Y-86142930D01*
X116046584Y-86361135D02*
X116088303Y-86402854D01*
X116723700Y-87811700D02*
X116535963Y-87999436D01*
X114855967Y-86717365D02*
X114897686Y-86759084D01*
X114825474Y-85538001D02*
X114836706Y-85526766D01*
X116088303Y-86778328D02*
X115889314Y-86977314D01*
X110200000Y-82550000D02*
X111462000Y-82550000D01*
X116535963Y-87999436D02*
X116524720Y-88010679D01*
X117370349Y-88833822D02*
X117359158Y-88845012D01*
X115472122Y-86560122D02*
X115671108Y-86361133D01*
X115889314Y-86977314D02*
X115889315Y-86977315D01*
X115690335Y-87551767D02*
X115732054Y-87593486D01*
X109950000Y-82300000D02*
X110200000Y-82550000D01*
X115472122Y-86560121D02*
X115472122Y-86560122D01*
X115273160Y-86759084D02*
X115472122Y-86560121D01*
X115253899Y-85943959D02*
X115242666Y-85955193D01*
X115212180Y-85526766D02*
X115253899Y-85568485D01*
X116723699Y-87811700D02*
X116723700Y-87811700D01*
X117776351Y-89262205D02*
X117787541Y-89251014D01*
X115889315Y-86977315D02*
X115690335Y-87176294D01*
X116306507Y-87394506D02*
X116306507Y-87394507D01*
X116107528Y-87593486D02*
X116306507Y-87394506D01*
X116880942Y-87195544D02*
X116922661Y-87237263D01*
X111462000Y-82550000D02*
X114450000Y-85538000D01*
X116524720Y-88386152D02*
X116566439Y-88427871D01*
X117328628Y-88416628D02*
X117370349Y-88458349D01*
X116306507Y-87394507D02*
X116505468Y-87195543D01*
X115054930Y-86142930D02*
X114855967Y-86341892D01*
X118204735Y-89292735D02*
X118400000Y-89488000D01*
X117359158Y-89220486D02*
X117400877Y-89262205D01*
X116941913Y-88427871D02*
X116953155Y-88416628D01*
X118163015Y-89251014D02*
X118204735Y-89292735D01*
X115242666Y-85955193D02*
X115054929Y-86142930D01*
X114897686Y-86759084D02*
G75*
G03*
X115273160Y-86759084I187737J187738D01*
G01*
X114855967Y-86341892D02*
G75*
G03*
X114855995Y-86717336I187733J-187708D01*
G01*
X116088303Y-86402854D02*
G75*
G02*
X116088312Y-86778337I-187703J-187746D01*
G01*
X116505468Y-87195543D02*
G75*
G02*
X116880938Y-87195548I187732J-187757D01*
G01*
X115690335Y-87176294D02*
G75*
G03*
X115690365Y-87551737I187765J-187706D01*
G01*
X117400877Y-89262205D02*
G75*
G03*
X117776351Y-89262205I187737J187738D01*
G01*
X115253899Y-85568485D02*
G75*
G02*
X115253877Y-85943937I-187699J-187715D01*
G01*
X114836706Y-85526766D02*
G75*
G02*
X115212180Y-85526766I187737J-187738D01*
G01*
X117370349Y-88458349D02*
G75*
G02*
X117370364Y-88833836I-187749J-187751D01*
G01*
X117359158Y-88845012D02*
G75*
G03*
X117359207Y-89220437I187742J-187688D01*
G01*
X115732054Y-87593486D02*
G75*
G03*
X116107528Y-87593486I187737J187738D01*
G01*
X114450000Y-85538000D02*
G75*
G03*
X114825436Y-85537964I187700J187700D01*
G01*
X116922661Y-87237263D02*
G75*
G02*
X116922661Y-87612737I-187761J-187737D01*
G01*
X116953155Y-88416628D02*
G75*
G02*
X117328628Y-88416627I187737J-187737D01*
G01*
X115671108Y-86361133D02*
G75*
G02*
X116046539Y-86361180I187692J-187767D01*
G01*
X116524720Y-88010679D02*
G75*
G03*
X116524735Y-88386137I187780J-187721D01*
G01*
X117787541Y-89251014D02*
G75*
G02*
X118163015Y-89251014I187737J-187738D01*
G01*
X116566439Y-88427871D02*
G75*
G03*
X116941913Y-88427871I187737J187738D01*
G01*
%TO.N,/NRST*%
X123700000Y-97370000D02*
X127100000Y-97370000D01*
X127100000Y-97370000D02*
X127250000Y-97520000D01*
%TO.N,/Charge*%
X143410000Y-90700000D02*
X140410000Y-87700000D01*
X118550000Y-87700000D02*
X118350000Y-87900000D01*
X140410000Y-87700000D02*
X118550000Y-87700000D01*
%TO.N,Net-(Q1-B)*%
X145837500Y-91087500D02*
X145450000Y-90700000D01*
X146287500Y-91087500D02*
X145837500Y-91087500D01*
X145450000Y-90700000D02*
X144050000Y-90700000D01*
%TO.N,Net-(Q2-G)*%
X118355744Y-88912000D02*
X118638588Y-88912000D01*
X118638588Y-90064000D02*
X109314000Y-90064000D01*
X117774000Y-87661412D02*
X117774000Y-88330256D01*
X146816000Y-87324000D02*
X118111412Y-87324000D01*
X118976000Y-89249412D02*
X118976000Y-89726588D01*
X118976000Y-89726588D02*
X118638588Y-90064000D01*
X146370000Y-96130000D02*
X145900000Y-96600000D01*
X118111412Y-87324000D02*
X117774000Y-87661412D01*
X109314000Y-90064000D02*
X109250000Y-90000000D01*
X150100000Y-93892000D02*
X150100000Y-90608000D01*
X147250000Y-96125000D02*
X147867000Y-96125000D01*
X117774000Y-88330256D02*
X118355744Y-88912000D01*
X118638588Y-88912000D02*
X118976000Y-89249412D01*
X150100000Y-90608000D02*
X146816000Y-87324000D01*
X147867000Y-96125000D02*
X150100000Y-93892000D01*
X147250000Y-96130000D02*
X146370000Y-96130000D01*
%TD*%
%TA.AperFunction,Conductor*%
%TO.N,GND*%
G36*
X97844676Y-70108564D02*
G01*
X97857584Y-70109921D01*
X98192061Y-70162896D01*
X98204744Y-70165591D01*
X98531873Y-70253245D01*
X98544211Y-70257255D01*
X98860368Y-70378616D01*
X98872210Y-70383888D01*
X99173976Y-70537646D01*
X99185192Y-70544122D01*
X99469211Y-70728565D01*
X99479712Y-70736194D01*
X99742897Y-70949318D01*
X99752542Y-70958003D01*
X99991996Y-71197457D01*
X100000681Y-71207102D01*
X100213805Y-71470287D01*
X100221434Y-71480788D01*
X100381990Y-71728024D01*
X100405870Y-71764795D01*
X100412356Y-71776029D01*
X100484081Y-71916796D01*
X100566106Y-72077778D01*
X100571385Y-72089636D01*
X100692744Y-72405789D01*
X100696755Y-72418132D01*
X100784406Y-72745249D01*
X100787104Y-72757945D01*
X100840078Y-73092415D01*
X100841435Y-73105323D01*
X100859330Y-73446756D01*
X100859500Y-73453246D01*
X100859500Y-75951409D01*
X100886112Y-76050727D01*
X100886113Y-76050730D01*
X100937519Y-76139769D01*
X100937521Y-76139772D01*
X100937522Y-76139773D01*
X101010227Y-76212478D01*
X101099272Y-76263888D01*
X101198590Y-76290500D01*
X101198592Y-76290500D01*
X148201408Y-76290500D01*
X148201410Y-76290500D01*
X148300728Y-76263888D01*
X148389773Y-76212478D01*
X148462478Y-76139773D01*
X148513888Y-76050728D01*
X148540500Y-75951410D01*
X148540500Y-73453246D01*
X148540670Y-73446757D01*
X148543194Y-73398590D01*
X148547830Y-73310132D01*
X149409500Y-73310132D01*
X149409500Y-73589867D01*
X149440818Y-73867819D01*
X149440820Y-73867831D01*
X149503065Y-74140548D01*
X149503068Y-74140556D01*
X149595454Y-74404578D01*
X149716820Y-74656597D01*
X149716822Y-74656600D01*
X149865645Y-74893452D01*
X150040052Y-75112151D01*
X150237849Y-75309948D01*
X150456548Y-75484355D01*
X150693400Y-75633178D01*
X150945425Y-75754547D01*
X151143718Y-75823932D01*
X151209443Y-75846931D01*
X151209451Y-75846934D01*
X151209454Y-75846934D01*
X151209455Y-75846935D01*
X151482168Y-75909180D01*
X151760132Y-75940499D01*
X151760133Y-75940500D01*
X151760137Y-75940500D01*
X152039867Y-75940500D01*
X152039867Y-75940499D01*
X152317832Y-75909180D01*
X152590545Y-75846935D01*
X152854575Y-75754547D01*
X153106600Y-75633178D01*
X153343452Y-75484355D01*
X153562151Y-75309948D01*
X153759948Y-75112151D01*
X153934355Y-74893452D01*
X154083178Y-74656600D01*
X154204547Y-74404575D01*
X154296935Y-74140545D01*
X154359180Y-73867832D01*
X154390500Y-73589863D01*
X154390500Y-73310137D01*
X154359180Y-73032168D01*
X154296935Y-72759455D01*
X154204547Y-72495425D01*
X154083178Y-72243400D01*
X153934355Y-72006548D01*
X153759948Y-71787849D01*
X153562151Y-71590052D01*
X153343452Y-71415645D01*
X153106600Y-71266822D01*
X153106597Y-71266820D01*
X152854578Y-71145454D01*
X152590556Y-71053068D01*
X152590548Y-71053065D01*
X152386010Y-71006381D01*
X152317832Y-70990820D01*
X152317828Y-70990819D01*
X152317819Y-70990818D01*
X152039867Y-70959500D01*
X152039863Y-70959500D01*
X151760137Y-70959500D01*
X151760133Y-70959500D01*
X151482180Y-70990818D01*
X151482168Y-70990820D01*
X151209451Y-71053065D01*
X151209443Y-71053068D01*
X150945421Y-71145454D01*
X150693402Y-71266820D01*
X150456549Y-71415644D01*
X150237849Y-71590051D01*
X150040051Y-71787849D01*
X149865644Y-72006549D01*
X149716820Y-72243402D01*
X149595454Y-72495421D01*
X149503068Y-72759443D01*
X149503065Y-72759451D01*
X149440820Y-73032168D01*
X149440818Y-73032180D01*
X149409500Y-73310132D01*
X148547830Y-73310132D01*
X148558564Y-73105321D01*
X148559921Y-73092415D01*
X148590317Y-72900499D01*
X148612897Y-72757934D01*
X148615590Y-72745259D01*
X148703247Y-72418121D01*
X148707255Y-72405789D01*
X148739093Y-72322848D01*
X148828619Y-72089624D01*
X148833884Y-72077796D01*
X148987650Y-71776014D01*
X148994116Y-71764815D01*
X149178572Y-71480777D01*
X149186186Y-71470296D01*
X149399326Y-71207093D01*
X149407993Y-71197467D01*
X149647467Y-70957993D01*
X149657093Y-70949326D01*
X149920296Y-70736186D01*
X149930777Y-70728572D01*
X150214815Y-70544116D01*
X150226014Y-70537650D01*
X150527796Y-70383884D01*
X150539624Y-70378619D01*
X150855793Y-70257253D01*
X150868121Y-70253247D01*
X151195259Y-70165590D01*
X151207934Y-70162897D01*
X151542417Y-70109920D01*
X151555321Y-70108564D01*
X151893513Y-70090840D01*
X151906487Y-70090840D01*
X152244676Y-70108564D01*
X152257584Y-70109921D01*
X152592061Y-70162896D01*
X152604744Y-70165591D01*
X152931873Y-70253245D01*
X152944211Y-70257255D01*
X153260368Y-70378616D01*
X153272210Y-70383888D01*
X153573976Y-70537646D01*
X153585192Y-70544122D01*
X153869211Y-70728565D01*
X153879712Y-70736194D01*
X154142897Y-70949318D01*
X154152542Y-70958003D01*
X154391996Y-71197457D01*
X154400681Y-71207102D01*
X154613805Y-71470287D01*
X154621434Y-71480788D01*
X154781990Y-71728024D01*
X154805870Y-71764795D01*
X154812356Y-71776029D01*
X154884081Y-71916796D01*
X154966106Y-72077778D01*
X154971385Y-72089636D01*
X155092744Y-72405789D01*
X155096755Y-72418132D01*
X155184406Y-72745249D01*
X155187104Y-72757945D01*
X155240078Y-73092415D01*
X155241435Y-73105323D01*
X155259330Y-73446756D01*
X155259500Y-73453246D01*
X155259500Y-90115500D01*
X155256949Y-90124185D01*
X155258238Y-90133147D01*
X155247259Y-90157187D01*
X155239815Y-90182539D01*
X155232974Y-90188466D01*
X155229213Y-90196703D01*
X155206978Y-90210992D01*
X155187011Y-90228294D01*
X155176496Y-90230581D01*
X155170435Y-90234477D01*
X155135500Y-90239500D01*
X155014500Y-90239500D01*
X154947461Y-90219815D01*
X154901706Y-90167011D01*
X154890500Y-90115500D01*
X154890500Y-84587275D01*
X154890500Y-84587273D01*
X154863207Y-84485413D01*
X154810480Y-84394087D01*
X154735913Y-84319520D01*
X154495353Y-84078960D01*
X154461868Y-84017637D01*
X154465102Y-83952966D01*
X154520940Y-83781118D01*
X154529385Y-83727793D01*
X154550500Y-83594486D01*
X154550500Y-83405513D01*
X154520940Y-83218881D01*
X154462545Y-83039163D01*
X154403462Y-82923207D01*
X154376760Y-82870801D01*
X154265690Y-82717927D01*
X154132073Y-82584310D01*
X153979199Y-82473240D01*
X153810836Y-82387454D01*
X153631118Y-82329059D01*
X153444486Y-82299500D01*
X153444481Y-82299500D01*
X153255519Y-82299500D01*
X153255514Y-82299500D01*
X153068881Y-82329059D01*
X152889163Y-82387454D01*
X152720800Y-82473240D01*
X152640224Y-82531783D01*
X152567927Y-82584310D01*
X152567925Y-82584312D01*
X152567924Y-82584312D01*
X152434312Y-82717924D01*
X152434312Y-82717925D01*
X152434310Y-82717927D01*
X152388835Y-82780518D01*
X152323240Y-82870800D01*
X152237454Y-83039163D01*
X152179059Y-83218881D01*
X152149500Y-83405513D01*
X152149500Y-83594486D01*
X152179059Y-83781118D01*
X152237454Y-83960836D01*
X152297642Y-84078960D01*
X152323240Y-84129199D01*
X152434310Y-84282073D01*
X152567927Y-84415690D01*
X152720801Y-84526760D01*
X152800347Y-84567290D01*
X152889163Y-84612545D01*
X152889165Y-84612545D01*
X152889168Y-84612547D01*
X152985497Y-84643846D01*
X153068881Y-84670940D01*
X153255514Y-84700500D01*
X153255519Y-84700500D01*
X153444486Y-84700500D01*
X153577793Y-84679385D01*
X153631118Y-84670940D01*
X153802966Y-84615102D01*
X153818174Y-84614668D01*
X153832433Y-84609350D01*
X153852385Y-84613690D01*
X153872801Y-84613107D01*
X153886889Y-84621196D01*
X153900706Y-84624202D01*
X153928960Y-84645353D01*
X154053181Y-84769574D01*
X154086666Y-84830897D01*
X154089500Y-84857255D01*
X154089500Y-90115500D01*
X154069815Y-90182539D01*
X154017011Y-90228294D01*
X153965500Y-90239500D01*
X153675143Y-90239500D01*
X153675117Y-90239502D01*
X153650012Y-90242413D01*
X153650008Y-90242415D01*
X153547235Y-90287793D01*
X153467794Y-90367234D01*
X153422415Y-90470006D01*
X153422415Y-90470008D01*
X153419500Y-90495131D01*
X153419500Y-94004856D01*
X153419502Y-94004882D01*
X153422413Y-94029987D01*
X153422415Y-94029991D01*
X153467793Y-94132764D01*
X153467794Y-94132765D01*
X153547235Y-94212206D01*
X153650009Y-94257585D01*
X153675135Y-94260500D01*
X155135500Y-94260499D01*
X155202539Y-94280184D01*
X155248294Y-94332987D01*
X155259500Y-94384499D01*
X155259500Y-107596753D01*
X155259330Y-107603243D01*
X155241435Y-107944676D01*
X155240078Y-107957584D01*
X155187104Y-108292054D01*
X155184406Y-108304750D01*
X155096755Y-108631867D01*
X155092744Y-108644210D01*
X154971385Y-108960363D01*
X154966106Y-108972221D01*
X154812360Y-109273964D01*
X154805870Y-109285204D01*
X154621434Y-109569211D01*
X154613805Y-109579712D01*
X154400681Y-109842897D01*
X154391996Y-109852542D01*
X154152542Y-110091996D01*
X154142897Y-110100681D01*
X153879712Y-110313805D01*
X153869211Y-110321434D01*
X153585204Y-110505870D01*
X153573964Y-110512360D01*
X153272221Y-110666106D01*
X153260363Y-110671385D01*
X152944210Y-110792744D01*
X152931867Y-110796755D01*
X152604750Y-110884406D01*
X152592054Y-110887104D01*
X152257584Y-110940078D01*
X152244676Y-110941435D01*
X151906490Y-110959159D01*
X151893510Y-110959159D01*
X151555323Y-110941435D01*
X151542415Y-110940078D01*
X151207945Y-110887104D01*
X151195249Y-110884406D01*
X150868132Y-110796755D01*
X150855789Y-110792744D01*
X150539636Y-110671385D01*
X150527778Y-110666106D01*
X150226029Y-110512356D01*
X150214801Y-110505874D01*
X149930788Y-110321434D01*
X149920287Y-110313805D01*
X149657102Y-110100681D01*
X149647457Y-110091996D01*
X149408003Y-109852542D01*
X149399318Y-109842897D01*
X149186194Y-109579712D01*
X149178565Y-109569211D01*
X149107609Y-109459948D01*
X148994122Y-109285192D01*
X148987646Y-109273976D01*
X148833888Y-108972210D01*
X148828614Y-108960363D01*
X148707255Y-108644210D01*
X148703244Y-108631867D01*
X148682534Y-108554578D01*
X148615591Y-108304744D01*
X148612895Y-108292054D01*
X148612656Y-108290548D01*
X148559921Y-107957584D01*
X148558564Y-107944676D01*
X148540670Y-107603243D01*
X148540500Y-107596753D01*
X148540500Y-107460132D01*
X149409500Y-107460132D01*
X149409500Y-107739867D01*
X149440818Y-108017819D01*
X149440820Y-108017831D01*
X149503065Y-108290548D01*
X149503068Y-108290556D01*
X149595454Y-108554578D01*
X149716820Y-108806597D01*
X149716822Y-108806600D01*
X149865645Y-109043452D01*
X150040052Y-109262151D01*
X150237849Y-109459948D01*
X150456548Y-109634355D01*
X150693400Y-109783178D01*
X150945425Y-109904547D01*
X151143718Y-109973932D01*
X151209443Y-109996931D01*
X151209451Y-109996934D01*
X151209454Y-109996934D01*
X151209455Y-109996935D01*
X151482168Y-110059180D01*
X151760132Y-110090499D01*
X151760133Y-110090500D01*
X151760137Y-110090500D01*
X152039867Y-110090500D01*
X152039867Y-110090499D01*
X152317832Y-110059180D01*
X152590545Y-109996935D01*
X152854575Y-109904547D01*
X153106600Y-109783178D01*
X153343452Y-109634355D01*
X153562151Y-109459948D01*
X153759948Y-109262151D01*
X153934355Y-109043452D01*
X154083178Y-108806600D01*
X154204547Y-108554575D01*
X154296935Y-108290545D01*
X154359180Y-108017832D01*
X154390500Y-107739863D01*
X154390500Y-107460137D01*
X154359180Y-107182168D01*
X154296935Y-106909455D01*
X154204547Y-106645425D01*
X154083178Y-106393400D01*
X153934355Y-106156548D01*
X153759948Y-105937849D01*
X153562151Y-105740052D01*
X153343452Y-105565645D01*
X153106600Y-105416822D01*
X153106597Y-105416820D01*
X152854578Y-105295454D01*
X152590556Y-105203068D01*
X152590548Y-105203065D01*
X152386010Y-105156381D01*
X152317832Y-105140820D01*
X152317828Y-105140819D01*
X152317819Y-105140818D01*
X152039867Y-105109500D01*
X152039863Y-105109500D01*
X151760137Y-105109500D01*
X151760133Y-105109500D01*
X151482180Y-105140818D01*
X151482168Y-105140820D01*
X151209451Y-105203065D01*
X151209443Y-105203068D01*
X150945421Y-105295454D01*
X150693402Y-105416820D01*
X150456549Y-105565644D01*
X150237849Y-105740051D01*
X150040051Y-105937849D01*
X149865644Y-106156549D01*
X149716820Y-106393402D01*
X149595454Y-106645421D01*
X149503068Y-106909443D01*
X149503065Y-106909451D01*
X149440820Y-107182168D01*
X149440818Y-107182180D01*
X149409500Y-107460132D01*
X148540500Y-107460132D01*
X148540500Y-105598592D01*
X148540500Y-105598590D01*
X148513888Y-105499272D01*
X148466286Y-105416822D01*
X148462480Y-105410230D01*
X148462476Y-105410225D01*
X148389774Y-105337523D01*
X148389769Y-105337519D01*
X148300730Y-105286113D01*
X148300729Y-105286112D01*
X148300728Y-105286112D01*
X148201410Y-105259500D01*
X148201409Y-105259500D01*
X126527156Y-105259500D01*
X126460117Y-105239815D01*
X126414362Y-105187011D01*
X126404418Y-105117853D01*
X126433443Y-105054297D01*
X126452230Y-105036696D01*
X126542922Y-104967922D01*
X126634361Y-104847342D01*
X126689877Y-104706564D01*
X126700500Y-104618102D01*
X126700500Y-103231898D01*
X126689877Y-103143436D01*
X126634361Y-103002658D01*
X126634360Y-103002657D01*
X126634360Y-103002656D01*
X126542922Y-102882077D01*
X126422343Y-102790639D01*
X126281561Y-102735122D01*
X126235926Y-102729642D01*
X126193102Y-102724500D01*
X125406898Y-102724500D01*
X125367853Y-102729188D01*
X125318438Y-102735122D01*
X125177656Y-102790639D01*
X125057077Y-102882077D01*
X124965639Y-103002656D01*
X124910122Y-103143438D01*
X124904188Y-103192853D01*
X124899500Y-103231898D01*
X124899500Y-104618102D01*
X124905126Y-104664954D01*
X124910122Y-104706561D01*
X124965639Y-104847343D01*
X125057076Y-104967920D01*
X125057078Y-104967922D01*
X125147770Y-105036696D01*
X125189293Y-105092889D01*
X125193844Y-105162610D01*
X125159979Y-105223724D01*
X125098449Y-105256828D01*
X125072844Y-105259500D01*
X120927156Y-105259500D01*
X120860117Y-105239815D01*
X120814362Y-105187011D01*
X120804418Y-105117853D01*
X120833443Y-105054297D01*
X120852230Y-105036696D01*
X120942922Y-104967922D01*
X121034361Y-104847342D01*
X121089877Y-104706564D01*
X121100500Y-104618102D01*
X121100500Y-103274500D01*
X121120185Y-103207461D01*
X121172989Y-103161706D01*
X121224500Y-103150500D01*
X122627724Y-103150500D01*
X122627726Y-103150500D01*
X122729587Y-103123207D01*
X122820912Y-103070480D01*
X124745910Y-101145480D01*
X124745913Y-101145479D01*
X124767063Y-101124328D01*
X124767089Y-101124314D01*
X124813784Y-101094972D01*
X124862882Y-101077793D01*
X124972150Y-100997150D01*
X125052793Y-100887882D01*
X125075219Y-100823790D01*
X125097646Y-100759701D01*
X125097646Y-100759699D01*
X125100500Y-100729269D01*
X125100500Y-100574500D01*
X125120185Y-100507461D01*
X125172989Y-100461706D01*
X125224500Y-100450500D01*
X127527262Y-100450500D01*
X127527264Y-100450500D01*
X127629125Y-100423207D01*
X127720450Y-100370480D01*
X129796480Y-98294450D01*
X129849207Y-98203125D01*
X129876500Y-98101264D01*
X129876500Y-97995810D01*
X129876500Y-97054192D01*
X129876501Y-97054179D01*
X129876501Y-96938737D01*
X129876501Y-96938736D01*
X129849207Y-96836876D01*
X129816859Y-96780848D01*
X129796480Y-96745550D01*
X129721913Y-96670983D01*
X129721910Y-96670981D01*
X127680224Y-94629295D01*
X125471387Y-92420457D01*
X125388578Y-92337648D01*
X126899500Y-92337648D01*
X126899500Y-92542351D01*
X126931522Y-92744534D01*
X126994781Y-92939223D01*
X127058691Y-93064653D01*
X127087620Y-93121428D01*
X127087715Y-93121613D01*
X127208028Y-93287213D01*
X127352786Y-93431971D01*
X127501151Y-93539762D01*
X127518390Y-93552287D01*
X127634607Y-93611503D01*
X127700776Y-93645218D01*
X127700778Y-93645218D01*
X127700781Y-93645220D01*
X127805137Y-93679127D01*
X127895465Y-93708477D01*
X127996557Y-93724488D01*
X128097648Y-93740500D01*
X128097649Y-93740500D01*
X128302351Y-93740500D01*
X128302352Y-93740500D01*
X128504534Y-93708477D01*
X128699219Y-93645220D01*
X128881610Y-93552287D01*
X128974590Y-93484732D01*
X129047213Y-93431971D01*
X129047215Y-93431968D01*
X129047219Y-93431966D01*
X129191966Y-93287219D01*
X129191968Y-93287215D01*
X129191971Y-93287213D01*
X129264910Y-93186819D01*
X129312287Y-93121610D01*
X129405220Y-92939219D01*
X129468477Y-92744534D01*
X129500500Y-92542352D01*
X129500500Y-92337648D01*
X129488322Y-92260758D01*
X129468477Y-92135465D01*
X129405218Y-91940776D01*
X129364389Y-91860646D01*
X129312287Y-91758390D01*
X129283092Y-91718206D01*
X129191971Y-91592786D01*
X129047213Y-91448028D01*
X128881613Y-91327715D01*
X128881612Y-91327714D01*
X128881610Y-91327713D01*
X128811060Y-91291766D01*
X128699223Y-91234781D01*
X128504534Y-91171522D01*
X128329995Y-91143878D01*
X128302352Y-91139500D01*
X128097648Y-91139500D01*
X128073329Y-91143351D01*
X127895465Y-91171522D01*
X127700776Y-91234781D01*
X127518386Y-91327715D01*
X127352786Y-91448028D01*
X127208028Y-91592786D01*
X127087715Y-91758386D01*
X126994781Y-91940776D01*
X126931522Y-92135465D01*
X126899500Y-92337648D01*
X125388578Y-92337648D01*
X124075452Y-91024522D01*
X124075451Y-91024521D01*
X124075450Y-91024520D01*
X124029787Y-90998156D01*
X123984126Y-90971793D01*
X123933194Y-90958146D01*
X123882264Y-90944500D01*
X123882263Y-90944500D01*
X122497255Y-90944500D01*
X122430216Y-90924815D01*
X122409574Y-90908181D01*
X122388347Y-90886954D01*
X122388344Y-90886952D01*
X122388342Y-90886950D01*
X122311517Y-90847805D01*
X122275301Y-90829352D01*
X122181524Y-90814500D01*
X121918482Y-90814500D01*
X121837519Y-90827323D01*
X121824696Y-90829354D01*
X121711658Y-90886950D01*
X121711657Y-90886951D01*
X121711652Y-90886954D01*
X121690426Y-90908181D01*
X121629103Y-90941666D01*
X121602745Y-90944500D01*
X114562255Y-90944500D01*
X114532814Y-90935855D01*
X114502828Y-90929332D01*
X114497812Y-90925577D01*
X114495216Y-90924815D01*
X114474574Y-90908181D01*
X114445103Y-90878710D01*
X114411618Y-90817387D01*
X114408784Y-90791029D01*
X114408784Y-90729229D01*
X114408784Y-90729227D01*
X114379675Y-90620590D01*
X114381338Y-90550744D01*
X114420500Y-90492881D01*
X114484729Y-90465377D01*
X114499450Y-90464500D01*
X118691313Y-90464500D01*
X118691315Y-90464500D01*
X118793176Y-90437207D01*
X118884501Y-90384480D01*
X119221911Y-90047069D01*
X119221913Y-90047068D01*
X119296480Y-89972501D01*
X119349207Y-89881175D01*
X119358790Y-89845412D01*
X119376501Y-89779315D01*
X119376501Y-89673861D01*
X119376501Y-89666266D01*
X119376500Y-89666248D01*
X119376500Y-89312141D01*
X119376501Y-89312128D01*
X119376501Y-89196686D01*
X119376501Y-89196685D01*
X119349207Y-89094825D01*
X119349203Y-89094818D01*
X119333889Y-89068292D01*
X119333889Y-89068293D01*
X119296480Y-89003499D01*
X119221913Y-88928932D01*
X119221911Y-88928930D01*
X118884501Y-88591520D01*
X118793176Y-88538793D01*
X118793175Y-88538792D01*
X118786137Y-88534729D01*
X118787826Y-88531802D01*
X118745607Y-88497729D01*
X118723590Y-88431419D01*
X118740918Y-88363732D01*
X118759826Y-88339409D01*
X118830520Y-88268716D01*
X118848814Y-88237029D01*
X118891844Y-88162500D01*
X118942411Y-88114284D01*
X118999231Y-88100500D01*
X140192745Y-88100500D01*
X140259784Y-88120185D01*
X140280426Y-88136819D01*
X142843181Y-90699573D01*
X142876666Y-90760896D01*
X142879500Y-90787251D01*
X142879500Y-90831516D01*
X142886975Y-90878710D01*
X142894354Y-90925304D01*
X142951950Y-91038342D01*
X142951952Y-91038344D01*
X142951954Y-91038347D01*
X143041652Y-91128045D01*
X143041654Y-91128046D01*
X143041658Y-91128050D01*
X143146298Y-91181367D01*
X143154698Y-91185647D01*
X143248475Y-91200499D01*
X143248481Y-91200500D01*
X143571518Y-91200499D01*
X143665304Y-91185646D01*
X143673703Y-91181366D01*
X143742368Y-91168467D01*
X143763201Y-91172376D01*
X143775193Y-91175708D01*
X143794696Y-91185646D01*
X143832496Y-91191632D01*
X143839312Y-91193527D01*
X143863210Y-91208399D01*
X143888644Y-91220456D01*
X143892477Y-91226612D01*
X143898633Y-91230443D01*
X143910695Y-91255871D01*
X143925575Y-91279768D01*
X143925471Y-91287019D01*
X143928579Y-91293570D01*
X143924979Y-91321483D01*
X143924577Y-91349630D01*
X143920569Y-91355674D01*
X143919642Y-91362866D01*
X143901520Y-91384404D01*
X143885967Y-91407863D01*
X143879328Y-91410780D01*
X143874660Y-91416330D01*
X143847768Y-91424652D01*
X143822004Y-91435977D01*
X143808334Y-91436856D01*
X143807914Y-91436987D01*
X143807380Y-91436918D01*
X143806111Y-91437000D01*
X143770730Y-91437000D01*
X143740300Y-91439853D01*
X143740298Y-91439853D01*
X143612119Y-91484706D01*
X143612117Y-91484707D01*
X143502850Y-91565350D01*
X143422207Y-91674617D01*
X143422206Y-91674619D01*
X143377353Y-91802798D01*
X143377353Y-91802800D01*
X143374500Y-91833230D01*
X143374500Y-92241769D01*
X143377353Y-92272199D01*
X143377353Y-92272201D01*
X143422206Y-92400380D01*
X143422207Y-92400382D01*
X143502850Y-92509650D01*
X143612118Y-92590293D01*
X143654845Y-92605244D01*
X143740299Y-92635146D01*
X143770730Y-92638000D01*
X143770734Y-92638000D01*
X144602743Y-92638000D01*
X144669782Y-92657685D01*
X144715537Y-92710489D01*
X144725481Y-92779647D01*
X144696456Y-92843203D01*
X144690424Y-92849681D01*
X144452162Y-93087943D01*
X144390839Y-93121428D01*
X144364481Y-93124262D01*
X142158953Y-93124262D01*
X142139555Y-93122735D01*
X141992859Y-93099500D01*
X141992854Y-93099500D01*
X137860690Y-93099500D01*
X137805595Y-93086588D01*
X137695022Y-93031748D01*
X137515496Y-92987102D01*
X137515500Y-92987102D01*
X137487800Y-92985224D01*
X137473953Y-92984285D01*
X137473950Y-92984285D01*
X135426047Y-92984285D01*
X135426044Y-92984286D01*
X135384508Y-92987101D01*
X135384507Y-92987101D01*
X135204977Y-93031748D01*
X135039247Y-93113943D01*
X134895060Y-93229844D01*
X134895059Y-93229845D01*
X134779158Y-93374032D01*
X134696963Y-93539762D01*
X134652317Y-93719286D01*
X134649500Y-93760834D01*
X134649500Y-95808737D01*
X134649501Y-95808740D01*
X134652316Y-95850276D01*
X134652316Y-95850277D01*
X134696963Y-96029807D01*
X134779158Y-96195537D01*
X134875009Y-96314780D01*
X134895060Y-96339725D01*
X135039247Y-96455626D01*
X135204979Y-96537822D01*
X135384502Y-96582467D01*
X135384503Y-96582467D01*
X135384506Y-96582468D01*
X135426047Y-96585285D01*
X137473952Y-96585284D01*
X137515494Y-96582468D01*
X137695021Y-96537822D01*
X137860753Y-96455626D01*
X138004940Y-96339725D01*
X138120841Y-96195538D01*
X138133802Y-96169405D01*
X138181223Y-96118092D01*
X138244890Y-96100500D01*
X141992859Y-96100500D01*
X142226130Y-96063553D01*
X142248929Y-96056145D01*
X142313936Y-96035022D01*
X142383776Y-96033028D01*
X142443609Y-96069108D01*
X142474438Y-96131808D01*
X142470185Y-96191272D01*
X142468799Y-96195538D01*
X142410684Y-96374393D01*
X142373738Y-96607664D01*
X142373738Y-98242335D01*
X142410684Y-98475606D01*
X142483671Y-98700234D01*
X142544950Y-98820500D01*
X142590895Y-98910672D01*
X142712356Y-99077848D01*
X142729722Y-99101749D01*
X144316435Y-100688462D01*
X144349920Y-100749785D01*
X144351388Y-100760123D01*
X144351472Y-100760110D01*
X144352317Y-100765497D01*
X144396963Y-100945021D01*
X144396964Y-100945023D01*
X144479156Y-101110750D01*
X144595059Y-101254940D01*
X144677173Y-101320945D01*
X144739247Y-101370842D01*
X144904979Y-101453037D01*
X145084501Y-101497682D01*
X145084502Y-101497682D01*
X145084505Y-101497683D01*
X145126046Y-101500500D01*
X145126048Y-101500500D01*
X146573952Y-101500500D01*
X146573954Y-101500500D01*
X146615495Y-101497683D01*
X146795021Y-101453037D01*
X146960753Y-101370842D01*
X147076435Y-101277852D01*
X147141019Y-101251194D01*
X147154123Y-101250500D01*
X149425961Y-101250500D01*
X149425962Y-101250500D01*
X149674785Y-101211090D01*
X149914379Y-101133241D01*
X150138845Y-101018870D01*
X150342656Y-100870793D01*
X150520793Y-100692656D01*
X152476630Y-98736817D01*
X152537953Y-98703333D01*
X152564311Y-98700499D01*
X152989363Y-98700499D01*
X153106753Y-98685046D01*
X153106757Y-98685044D01*
X153106762Y-98685044D01*
X153252841Y-98624536D01*
X153378282Y-98528282D01*
X153474536Y-98402841D01*
X153535044Y-98256762D01*
X153550500Y-98139361D01*
X153550499Y-95960640D01*
X153550499Y-95960639D01*
X153550499Y-95960636D01*
X153535046Y-95843246D01*
X153535044Y-95843239D01*
X153535044Y-95843238D01*
X153474536Y-95697159D01*
X153378282Y-95571718D01*
X153252841Y-95475464D01*
X153119791Y-95420353D01*
X153106762Y-95414956D01*
X153106760Y-95414955D01*
X152989370Y-95399501D01*
X152989367Y-95399500D01*
X152989361Y-95399500D01*
X152989354Y-95399500D01*
X150810636Y-95399500D01*
X150693246Y-95414953D01*
X150693237Y-95414956D01*
X150547160Y-95475463D01*
X150421718Y-95571718D01*
X150325463Y-95697160D01*
X150264956Y-95843237D01*
X150264955Y-95843239D01*
X150249501Y-95960629D01*
X150249501Y-95960636D01*
X150249500Y-95960645D01*
X150249500Y-96385688D01*
X150229815Y-96452727D01*
X150213181Y-96473369D01*
X148673370Y-98013181D01*
X148612047Y-98046666D01*
X148585689Y-98049500D01*
X147154123Y-98049500D01*
X147087084Y-98029815D01*
X147076435Y-98022147D01*
X147072795Y-98019221D01*
X146960753Y-97929158D01*
X146960751Y-97929157D01*
X146960750Y-97929156D01*
X146795023Y-97846964D01*
X146795021Y-97846963D01*
X146615497Y-97802317D01*
X146615501Y-97802317D01*
X146584339Y-97800204D01*
X146573954Y-97799500D01*
X146573952Y-97799500D01*
X146356248Y-97799500D01*
X146289209Y-97779815D01*
X146243454Y-97727011D01*
X146233510Y-97657853D01*
X146262535Y-97594297D01*
X146282614Y-97575730D01*
X146286290Y-97573017D01*
X146372150Y-97509650D01*
X146452793Y-97400382D01*
X146493873Y-97282983D01*
X146497646Y-97272201D01*
X146497646Y-97272199D01*
X146500500Y-97241769D01*
X146500500Y-96654500D01*
X146503050Y-96645814D01*
X146501762Y-96636853D01*
X146512740Y-96612812D01*
X146520185Y-96587461D01*
X146527025Y-96581533D01*
X146530787Y-96573297D01*
X146553021Y-96559007D01*
X146572989Y-96541706D01*
X146583503Y-96539418D01*
X146589565Y-96535523D01*
X146624500Y-96530500D01*
X146807745Y-96530500D01*
X146874784Y-96550185D01*
X146895426Y-96566819D01*
X146911652Y-96583045D01*
X146911654Y-96583046D01*
X146911658Y-96583050D01*
X147017252Y-96636853D01*
X147024698Y-96640647D01*
X147118475Y-96655499D01*
X147118481Y-96655500D01*
X147381518Y-96655499D01*
X147475304Y-96640646D01*
X147588342Y-96583050D01*
X147598095Y-96573297D01*
X147609574Y-96561819D01*
X147670897Y-96528334D01*
X147697255Y-96525500D01*
X147919725Y-96525500D01*
X147919727Y-96525500D01*
X148021588Y-96498207D01*
X148112913Y-96445480D01*
X150420480Y-94137913D01*
X150473207Y-94046588D01*
X150500500Y-93944727D01*
X150500500Y-93839273D01*
X150500500Y-90555273D01*
X150473207Y-90453413D01*
X150420480Y-90362087D01*
X150345913Y-90287520D01*
X147061913Y-87003520D01*
X147016250Y-86977156D01*
X146970589Y-86950793D01*
X146916610Y-86936330D01*
X146868727Y-86923500D01*
X146868726Y-86923500D01*
X118179474Y-86923500D01*
X118164143Y-86923500D01*
X118164139Y-86923499D01*
X118058685Y-86923499D01*
X117961173Y-86949628D01*
X117956825Y-86950793D01*
X117955597Y-86951501D01*
X117955596Y-86951502D01*
X117865499Y-87003520D01*
X117798001Y-87071018D01*
X117798000Y-87071017D01*
X117580965Y-87288053D01*
X117519642Y-87321538D01*
X117449950Y-87316554D01*
X117394017Y-87274682D01*
X117376243Y-87241327D01*
X117338768Y-87134220D01*
X117281004Y-87042280D01*
X117258931Y-87007146D01*
X117258929Y-87007145D01*
X117249257Y-86997471D01*
X117249257Y-86997472D01*
X117243146Y-86991360D01*
X117243141Y-86991351D01*
X117210224Y-86958433D01*
X117210223Y-86958431D01*
X117210207Y-86958413D01*
X117188131Y-86936338D01*
X117188123Y-86936330D01*
X117159076Y-86907279D01*
X117159031Y-86907239D01*
X117121221Y-86869429D01*
X117121104Y-86869326D01*
X117111062Y-86859284D01*
X117033021Y-86810252D01*
X116983990Y-86779445D01*
X116907745Y-86752766D01*
X116842337Y-86729879D01*
X116842333Y-86729878D01*
X116686291Y-86712296D01*
X116686478Y-86710633D01*
X116627757Y-86693391D01*
X116582002Y-86640587D01*
X116572604Y-86597388D01*
X116571576Y-86597504D01*
X116553985Y-86441434D01*
X116553984Y-86441431D01*
X116504405Y-86299770D01*
X116504405Y-86299769D01*
X116424760Y-86173039D01*
X116424759Y-86173038D01*
X116424538Y-86172686D01*
X116377093Y-86125252D01*
X116371466Y-86119625D01*
X116371467Y-86119625D01*
X116367059Y-86115218D01*
X116366966Y-86115125D01*
X116366965Y-86115123D01*
X116287081Y-86035239D01*
X116286385Y-86034628D01*
X116276700Y-86024942D01*
X116276698Y-86024941D01*
X116276697Y-86024940D01*
X116149640Y-85945092D01*
X116008003Y-85895516D01*
X115973215Y-85891592D01*
X115858884Y-85878697D01*
X115858882Y-85878697D01*
X115851965Y-85877917D01*
X115852148Y-85876287D01*
X115793313Y-85859000D01*
X115747567Y-85806188D01*
X115738185Y-85763043D01*
X115737150Y-85763160D01*
X115736370Y-85756241D01*
X115736371Y-85756239D01*
X115719573Y-85607092D01*
X115670003Y-85465424D01*
X115590149Y-85338340D01*
X115537083Y-85285277D01*
X115537082Y-85285276D01*
X115537082Y-85285275D01*
X115537080Y-85285274D01*
X115532616Y-85280810D01*
X115452256Y-85200449D01*
X115452232Y-85200428D01*
X115442313Y-85190509D01*
X115315239Y-85110663D01*
X115315238Y-85110662D01*
X115315237Y-85110662D01*
X115274861Y-85096534D01*
X115173576Y-85061092D01*
X115024446Y-85044290D01*
X115024440Y-85044290D01*
X114875309Y-85061092D01*
X114733648Y-85110662D01*
X114728577Y-85113849D01*
X114661340Y-85132847D01*
X114594505Y-85112477D01*
X114574927Y-85096534D01*
X111707915Y-82229522D01*
X111707913Y-82229520D01*
X111662250Y-82203156D01*
X111616589Y-82176793D01*
X111565657Y-82163146D01*
X111514727Y-82149500D01*
X111514726Y-82149500D01*
X110626100Y-82149500D01*
X110559061Y-82129815D01*
X110513306Y-82077011D01*
X110511539Y-82072952D01*
X110509576Y-82068213D01*
X110430524Y-81931290D01*
X110430518Y-81931282D01*
X110318717Y-81819481D01*
X110318709Y-81819475D01*
X110181790Y-81740426D01*
X110181786Y-81740424D01*
X110181784Y-81740423D01*
X110029057Y-81699500D01*
X109870943Y-81699500D01*
X109718216Y-81740423D01*
X109718209Y-81740426D01*
X109581290Y-81819475D01*
X109581282Y-81819481D01*
X109469481Y-81931282D01*
X109469475Y-81931290D01*
X109390426Y-82068209D01*
X109390423Y-82068216D01*
X109349500Y-82220943D01*
X109349500Y-82379056D01*
X109390423Y-82531783D01*
X109390426Y-82531790D01*
X109469475Y-82668709D01*
X109469479Y-82668714D01*
X109469480Y-82668716D01*
X109581284Y-82780520D01*
X109581286Y-82780521D01*
X109581290Y-82780524D01*
X109718209Y-82859573D01*
X109718216Y-82859577D01*
X109870943Y-82900500D01*
X109972858Y-82900500D01*
X110034857Y-82917112D01*
X110045413Y-82923207D01*
X110147273Y-82950500D01*
X110252727Y-82950500D01*
X111244745Y-82950500D01*
X111311784Y-82970185D01*
X111332426Y-82986819D01*
X114130799Y-85785192D01*
X114130889Y-85785357D01*
X114166767Y-85821233D01*
X114219836Y-85874300D01*
X114253603Y-85895516D01*
X114346930Y-85954154D01*
X114422942Y-85980747D01*
X114479720Y-86021466D01*
X114505471Y-86086417D01*
X114492019Y-86154979D01*
X114486993Y-86163755D01*
X114439822Y-86238838D01*
X114439819Y-86238845D01*
X114390264Y-86380499D01*
X114390261Y-86380511D01*
X114373469Y-86529644D01*
X114373469Y-86529649D01*
X114390284Y-86678792D01*
X114439864Y-86820447D01*
X114439865Y-86820449D01*
X114439866Y-86820451D01*
X114519727Y-86947526D01*
X114566214Y-86994006D01*
X114566216Y-86994008D01*
X114566220Y-86994011D01*
X114593915Y-87021705D01*
X114614490Y-87042281D01*
X114667519Y-87095313D01*
X114667547Y-87095335D01*
X114667553Y-87095341D01*
X114794629Y-87175188D01*
X114902282Y-87212857D01*
X114936289Y-87224757D01*
X115092343Y-87242340D01*
X115092155Y-87244000D01*
X115150884Y-87261245D01*
X115196639Y-87314049D01*
X115206041Y-87357250D01*
X115207065Y-87357135D01*
X115224658Y-87513184D01*
X115274231Y-87654834D01*
X115274233Y-87654838D01*
X115354080Y-87781907D01*
X115354082Y-87781909D01*
X115388160Y-87815986D01*
X115388175Y-87816000D01*
X115428267Y-87856091D01*
X115448858Y-87876683D01*
X115501887Y-87929715D01*
X115501915Y-87929737D01*
X115501921Y-87929743D01*
X115628997Y-88009590D01*
X115736650Y-88047259D01*
X115770657Y-88059159D01*
X115926711Y-88076742D01*
X115926524Y-88078393D01*
X115985284Y-88095647D01*
X116031039Y-88148451D01*
X116040431Y-88191625D01*
X116041465Y-88191509D01*
X116042245Y-88198428D01*
X116059051Y-88347551D01*
X116105327Y-88479805D01*
X116108615Y-88489201D01*
X116108617Y-88489204D01*
X116152570Y-88559161D01*
X116188449Y-88616267D01*
X116199095Y-88626914D01*
X116199094Y-88626914D01*
X116204232Y-88632052D01*
X116204240Y-88632065D01*
X116243427Y-88671251D01*
X116245868Y-88673692D01*
X116288472Y-88716303D01*
X116288516Y-88716341D01*
X116336286Y-88764112D01*
X116336305Y-88764127D01*
X116336306Y-88764128D01*
X116463382Y-88843975D01*
X116571035Y-88881644D01*
X116605042Y-88893544D01*
X116761096Y-88911127D01*
X116760910Y-88912773D01*
X116819687Y-88930032D01*
X116865442Y-88982836D01*
X116874832Y-89025983D01*
X116875867Y-89025867D01*
X116876648Y-89032787D01*
X116893472Y-89181928D01*
X116939049Y-89312128D01*
X116943060Y-89323585D01*
X116943060Y-89323586D01*
X117022924Y-89450655D01*
X117022927Y-89450659D01*
X117024080Y-89451812D01*
X117024586Y-89452739D01*
X117027265Y-89456097D01*
X117026676Y-89456566D01*
X117057570Y-89513132D01*
X117052591Y-89582824D01*
X117010725Y-89638761D01*
X116945262Y-89663183D01*
X116936406Y-89663500D01*
X109814098Y-89663500D01*
X109747059Y-89643815D01*
X109726417Y-89627181D01*
X109618717Y-89519481D01*
X109618709Y-89519475D01*
X109481790Y-89440426D01*
X109481786Y-89440424D01*
X109481784Y-89440423D01*
X109329057Y-89399500D01*
X109170943Y-89399500D01*
X109018216Y-89440423D01*
X109018209Y-89440426D01*
X108881290Y-89519475D01*
X108881282Y-89519481D01*
X108769481Y-89631282D01*
X108769475Y-89631290D01*
X108690426Y-89768209D01*
X108690423Y-89768216D01*
X108649500Y-89920943D01*
X108649500Y-90079057D01*
X108690099Y-90230572D01*
X108690423Y-90231783D01*
X108690426Y-90231790D01*
X108769475Y-90368709D01*
X108769479Y-90368714D01*
X108769480Y-90368716D01*
X108881284Y-90480520D01*
X108881286Y-90480521D01*
X108881290Y-90480524D01*
X109010761Y-90555273D01*
X109018216Y-90559577D01*
X109170943Y-90600500D01*
X109170945Y-90600500D01*
X109329055Y-90600500D01*
X109329057Y-90600500D01*
X109481784Y-90559577D01*
X109617689Y-90481113D01*
X109679689Y-90464500D01*
X113117118Y-90464500D01*
X113184157Y-90484185D01*
X113229912Y-90536989D01*
X113239856Y-90606147D01*
X113236896Y-90620579D01*
X113207784Y-90729227D01*
X113207784Y-90887341D01*
X113244542Y-91024522D01*
X113248707Y-91040067D01*
X113248710Y-91040074D01*
X113327759Y-91176993D01*
X113327763Y-91176998D01*
X113327764Y-91177000D01*
X113439568Y-91288804D01*
X113439570Y-91288805D01*
X113439574Y-91288808D01*
X113555391Y-91355674D01*
X113576500Y-91367861D01*
X113729227Y-91408784D01*
X113791029Y-91408784D01*
X113858068Y-91428469D01*
X113878710Y-91445103D01*
X114099087Y-91665480D01*
X114190412Y-91718207D01*
X114292273Y-91745500D01*
X121602745Y-91745500D01*
X121669784Y-91765185D01*
X121690426Y-91781819D01*
X121711652Y-91803045D01*
X121711654Y-91803046D01*
X121711658Y-91803050D01*
X121824694Y-91860645D01*
X121824698Y-91860647D01*
X121918475Y-91875499D01*
X121918481Y-91875500D01*
X122181518Y-91875499D01*
X122275304Y-91860646D01*
X122388342Y-91803050D01*
X122388594Y-91802798D01*
X122409574Y-91781819D01*
X122470897Y-91748334D01*
X122497255Y-91745500D01*
X123612282Y-91745500D01*
X123679321Y-91765185D01*
X123699963Y-91781819D01*
X125899011Y-93980867D01*
X127960092Y-96041947D01*
X127993577Y-96103270D01*
X127988593Y-96172962D01*
X127946721Y-96228895D01*
X127899800Y-96248748D01*
X127900194Y-96250388D01*
X127895465Y-96251522D01*
X127700776Y-96314781D01*
X127518386Y-96407715D01*
X127352786Y-96528028D01*
X127208028Y-96672786D01*
X127087713Y-96838388D01*
X127055407Y-96901794D01*
X127007433Y-96952591D01*
X126944922Y-96969500D01*
X124147255Y-96969500D01*
X124080216Y-96949815D01*
X124059574Y-96933181D01*
X124038347Y-96911954D01*
X124038344Y-96911952D01*
X124038342Y-96911950D01*
X123961517Y-96872805D01*
X123925301Y-96854352D01*
X123831524Y-96839500D01*
X123600500Y-96839500D01*
X123533461Y-96819815D01*
X123487706Y-96767011D01*
X123476500Y-96715500D01*
X123476500Y-96457272D01*
X123476500Y-96457271D01*
X123470699Y-96435622D01*
X123470699Y-96435621D01*
X123470699Y-96435620D01*
X123449208Y-96355412D01*
X123440151Y-96339725D01*
X123396480Y-96264085D01*
X119561915Y-92429520D01*
X119511444Y-92400380D01*
X119470591Y-92376793D01*
X119419659Y-92363146D01*
X119368729Y-92349500D01*
X119368728Y-92349500D01*
X117867524Y-92349500D01*
X117800485Y-92329815D01*
X117779842Y-92313180D01*
X117727423Y-92260760D01*
X117727419Y-92260757D01*
X117624160Y-92191761D01*
X117624150Y-92191756D01*
X117509412Y-92144230D01*
X117509413Y-92144230D01*
X117509410Y-92144229D01*
X117509406Y-92144228D01*
X117509402Y-92144227D01*
X117387603Y-92120000D01*
X117387599Y-92120000D01*
X117263401Y-92120000D01*
X117263396Y-92120000D01*
X117141597Y-92144227D01*
X117141587Y-92144230D01*
X117026849Y-92191756D01*
X117026839Y-92191761D01*
X116923580Y-92260757D01*
X116923576Y-92260760D01*
X116835760Y-92348576D01*
X116835757Y-92348580D01*
X116766761Y-92451839D01*
X116766756Y-92451849D01*
X116719230Y-92566587D01*
X116719227Y-92566597D01*
X116695000Y-92688396D01*
X116695000Y-92812603D01*
X116719227Y-92934402D01*
X116719230Y-92934412D01*
X116766756Y-93049150D01*
X116766761Y-93049160D01*
X116835757Y-93152419D01*
X116835760Y-93152423D01*
X116923576Y-93240239D01*
X116923580Y-93240242D01*
X117026839Y-93309238D01*
X117026843Y-93309240D01*
X117026846Y-93309242D01*
X117141590Y-93356771D01*
X117263396Y-93380999D01*
X117263400Y-93381000D01*
X117263401Y-93381000D01*
X117387600Y-93381000D01*
X117387601Y-93380999D01*
X117509410Y-93356771D01*
X117624154Y-93309242D01*
X117727420Y-93240242D01*
X117737818Y-93229844D01*
X117780344Y-93187319D01*
X117806799Y-93172873D01*
X117832012Y-93156345D01*
X117838955Y-93155314D01*
X117841667Y-93153834D01*
X117866900Y-93151005D01*
X117867451Y-93151000D01*
X117911195Y-93151000D01*
X117912728Y-93150589D01*
X117921994Y-93150505D01*
X117922190Y-93150560D01*
X117923119Y-93150500D01*
X119098747Y-93150500D01*
X119165786Y-93170185D01*
X119186428Y-93186819D01*
X120225005Y-94225396D01*
X120258490Y-94286719D01*
X120253506Y-94356411D01*
X120225006Y-94400758D01*
X120133392Y-94492372D01*
X120133389Y-94492376D01*
X120054340Y-94629295D01*
X120054337Y-94629302D01*
X120013414Y-94782029D01*
X120013414Y-94940142D01*
X120054337Y-95092869D01*
X120054340Y-95092876D01*
X120133389Y-95229795D01*
X120133395Y-95229803D01*
X120184983Y-95281391D01*
X120193448Y-95296708D01*
X120205522Y-95308537D01*
X120218192Y-95341477D01*
X120234964Y-95414955D01*
X120241279Y-95442618D01*
X120237006Y-95512357D01*
X120195708Y-95568715D01*
X120148002Y-95591098D01*
X120083400Y-95605854D01*
X119956416Y-95667028D01*
X119846231Y-95754917D01*
X119846226Y-95754922D01*
X119758361Y-95865122D01*
X119697214Y-95992113D01*
X119665855Y-96129525D01*
X119665855Y-96129527D01*
X119665856Y-96166976D01*
X119665856Y-96302727D01*
X119665896Y-96302878D01*
X119665899Y-96311119D01*
X119665897Y-96311125D01*
X119665899Y-96311156D01*
X119665899Y-96320468D01*
X119670294Y-96339725D01*
X119697255Y-96457871D01*
X119728957Y-96523711D01*
X119758399Y-96584855D01*
X119828506Y-96672781D01*
X119846263Y-96695051D01*
X119853590Y-96700895D01*
X119956441Y-96782935D01*
X120068408Y-96836875D01*
X120083412Y-96844103D01*
X120083415Y-96844104D01*
X120148024Y-96858862D01*
X120208996Y-96892980D01*
X120241844Y-96954647D01*
X120241302Y-97007342D01*
X120223598Y-97084907D01*
X120213414Y-97129522D01*
X120213414Y-97147273D01*
X120213414Y-97197273D01*
X120213414Y-97711187D01*
X120213414Y-97816641D01*
X120216471Y-97828050D01*
X120240707Y-97918503D01*
X120246858Y-97929156D01*
X120293434Y-98009827D01*
X120293436Y-98009829D01*
X120763970Y-98480363D01*
X120763984Y-98480375D01*
X120769461Y-98485852D01*
X120888810Y-98560844D01*
X121021854Y-98607398D01*
X121021857Y-98607398D01*
X121021859Y-98607399D01*
X121101690Y-98616394D01*
X121166103Y-98643460D01*
X121205659Y-98701055D01*
X121211028Y-98725742D01*
X121220006Y-98805497D01*
X121266539Y-98938532D01*
X121266541Y-98938536D01*
X121341502Y-99057878D01*
X121341506Y-99057883D01*
X121348361Y-99064740D01*
X121354075Y-99070456D01*
X121354092Y-99070485D01*
X121389059Y-99105452D01*
X121394057Y-99110450D01*
X121438453Y-99154863D01*
X121438575Y-99154968D01*
X121863181Y-99579574D01*
X121896666Y-99640897D01*
X121899500Y-99667255D01*
X121899500Y-100729269D01*
X121902353Y-100759699D01*
X121902353Y-100759701D01*
X121941229Y-100870798D01*
X121947207Y-100887882D01*
X122027850Y-100997150D01*
X122137118Y-101077793D01*
X122179845Y-101092744D01*
X122265299Y-101122646D01*
X122295730Y-101125500D01*
X122295734Y-101125500D01*
X122704270Y-101125500D01*
X122734699Y-101122646D01*
X122734701Y-101122646D01*
X122798790Y-101100219D01*
X122862882Y-101077793D01*
X122926368Y-101030938D01*
X122991995Y-101006968D01*
X123060165Y-101022283D01*
X123073624Y-101030932D01*
X123137118Y-101077793D01*
X123179845Y-101092744D01*
X123265299Y-101122646D01*
X123295730Y-101125500D01*
X123295734Y-101125500D01*
X123333745Y-101125500D01*
X123400784Y-101145185D01*
X123446539Y-101197989D01*
X123456483Y-101267147D01*
X123427458Y-101330703D01*
X123421426Y-101337181D01*
X122445425Y-102313181D01*
X122384102Y-102346666D01*
X122357744Y-102349500D01*
X107054930Y-102349500D01*
X106987891Y-102329815D01*
X106979444Y-102323876D01*
X106939822Y-102293473D01*
X106939820Y-102293471D01*
X106939815Y-102293468D01*
X106748185Y-102182830D01*
X106748181Y-102182828D01*
X106543756Y-102098152D01*
X106429216Y-102067461D01*
X106330019Y-102040882D01*
X106330013Y-102040881D01*
X106330008Y-102040880D01*
X106110647Y-102012001D01*
X106110642Y-102012000D01*
X106110637Y-102012000D01*
X105889363Y-102012000D01*
X105889357Y-102012000D01*
X105889352Y-102012001D01*
X105669991Y-102040880D01*
X105669984Y-102040881D01*
X105669981Y-102040882D01*
X105628053Y-102052116D01*
X105456243Y-102098152D01*
X105251821Y-102182827D01*
X105251809Y-102182833D01*
X105205775Y-102209410D01*
X105137875Y-102225881D01*
X105071848Y-102203028D01*
X105056096Y-102189703D01*
X103936819Y-101070426D01*
X103903334Y-101009103D01*
X103900500Y-100982745D01*
X103900500Y-81017254D01*
X103920185Y-80950215D01*
X103936814Y-80929577D01*
X105056097Y-79810294D01*
X105117418Y-79776811D01*
X105187110Y-79781795D01*
X105205775Y-79790589D01*
X105251815Y-79817170D01*
X105388102Y-79873622D01*
X105456243Y-79901847D01*
X105456244Y-79901847D01*
X105456246Y-79901848D01*
X105669981Y-79959118D01*
X105889363Y-79988000D01*
X105889370Y-79988000D01*
X106110630Y-79988000D01*
X106110637Y-79988000D01*
X106330019Y-79959118D01*
X106543754Y-79901848D01*
X106748185Y-79817170D01*
X106939815Y-79706532D01*
X107115364Y-79571829D01*
X107271829Y-79415364D01*
X107406532Y-79239815D01*
X107517170Y-79048185D01*
X107601848Y-78843754D01*
X107659118Y-78630019D01*
X107688000Y-78410637D01*
X107688000Y-78189363D01*
X107659118Y-77969981D01*
X107601848Y-77756246D01*
X107517170Y-77551815D01*
X107517168Y-77551812D01*
X107517166Y-77551807D01*
X107406536Y-77360192D01*
X107406532Y-77360185D01*
X107271829Y-77184636D01*
X107271824Y-77184630D01*
X107115369Y-77028175D01*
X107115362Y-77028169D01*
X106939823Y-76893474D01*
X106939821Y-76893472D01*
X106939815Y-76893468D01*
X106939810Y-76893465D01*
X106939807Y-76893463D01*
X106748192Y-76782833D01*
X106748181Y-76782828D01*
X106543756Y-76698152D01*
X106429216Y-76667461D01*
X106330019Y-76640882D01*
X106330013Y-76640881D01*
X106330008Y-76640880D01*
X106110647Y-76612001D01*
X106110642Y-76612000D01*
X106110637Y-76612000D01*
X105889363Y-76612000D01*
X105889357Y-76612000D01*
X105889352Y-76612001D01*
X105669991Y-76640880D01*
X105669984Y-76640881D01*
X105669981Y-76640882D01*
X105628053Y-76652116D01*
X105456243Y-76698152D01*
X105251818Y-76782828D01*
X105251807Y-76782833D01*
X105060192Y-76893463D01*
X105060176Y-76893474D01*
X104884637Y-77028169D01*
X104884630Y-77028175D01*
X104728175Y-77184630D01*
X104728169Y-77184637D01*
X104593474Y-77360176D01*
X104593463Y-77360192D01*
X104482833Y-77551807D01*
X104482828Y-77551818D01*
X104398152Y-77756243D01*
X104340883Y-77969978D01*
X104340880Y-77969991D01*
X104312001Y-78189352D01*
X104312000Y-78189369D01*
X104312000Y-78410630D01*
X104312001Y-78410647D01*
X104340880Y-78630008D01*
X104340881Y-78630013D01*
X104340882Y-78630019D01*
X104340883Y-78630021D01*
X104398152Y-78843756D01*
X104482827Y-79048178D01*
X104482831Y-79048187D01*
X104509409Y-79094221D01*
X104525882Y-79162121D01*
X104503030Y-79228148D01*
X104489703Y-79243902D01*
X103179522Y-80554084D01*
X103179518Y-80554090D01*
X103126792Y-80645412D01*
X103126793Y-80645413D01*
X103099500Y-80747273D01*
X103099500Y-101252726D01*
X103126793Y-101354589D01*
X103136177Y-101370842D01*
X103179520Y-101445913D01*
X103179522Y-101445915D01*
X104489703Y-102756096D01*
X104523188Y-102817419D01*
X104518204Y-102887111D01*
X104509410Y-102905775D01*
X104482833Y-102951809D01*
X104482827Y-102951821D01*
X104398152Y-103156243D01*
X104340883Y-103369978D01*
X104340880Y-103369991D01*
X104312001Y-103589352D01*
X104312000Y-103589369D01*
X104312000Y-103810630D01*
X104312001Y-103810647D01*
X104340880Y-104030008D01*
X104340881Y-104030013D01*
X104340882Y-104030019D01*
X104340883Y-104030021D01*
X104398152Y-104243756D01*
X104482828Y-104448181D01*
X104482833Y-104448192D01*
X104593463Y-104639807D01*
X104593474Y-104639823D01*
X104728169Y-104815362D01*
X104728175Y-104815369D01*
X104884630Y-104971824D01*
X104884637Y-104971830D01*
X104969730Y-105037124D01*
X105010933Y-105093552D01*
X105015088Y-105163298D01*
X104980876Y-105224218D01*
X104919159Y-105256971D01*
X104894244Y-105259500D01*
X101198590Y-105259500D01*
X101099272Y-105286112D01*
X101099269Y-105286113D01*
X101010230Y-105337519D01*
X101010225Y-105337523D01*
X100937523Y-105410225D01*
X100937519Y-105410230D01*
X100886113Y-105499269D01*
X100886112Y-105499272D01*
X100859500Y-105598590D01*
X100859500Y-107596753D01*
X100859330Y-107603243D01*
X100841435Y-107944676D01*
X100840078Y-107957584D01*
X100787104Y-108292054D01*
X100784406Y-108304750D01*
X100696755Y-108631867D01*
X100692744Y-108644210D01*
X100571385Y-108960363D01*
X100566106Y-108972221D01*
X100412360Y-109273964D01*
X100405870Y-109285204D01*
X100221434Y-109569211D01*
X100213805Y-109579712D01*
X100000681Y-109842897D01*
X99991996Y-109852542D01*
X99752542Y-110091996D01*
X99742897Y-110100681D01*
X99479712Y-110313805D01*
X99469211Y-110321434D01*
X99185204Y-110505870D01*
X99173964Y-110512360D01*
X98872221Y-110666106D01*
X98860363Y-110671385D01*
X98544210Y-110792744D01*
X98531867Y-110796755D01*
X98204750Y-110884406D01*
X98192054Y-110887104D01*
X97857584Y-110940078D01*
X97844676Y-110941435D01*
X97506490Y-110959159D01*
X97493510Y-110959159D01*
X97155323Y-110941435D01*
X97142415Y-110940078D01*
X96807945Y-110887104D01*
X96795249Y-110884406D01*
X96468132Y-110796755D01*
X96455789Y-110792744D01*
X96139636Y-110671385D01*
X96127778Y-110666106D01*
X95826029Y-110512356D01*
X95814801Y-110505874D01*
X95530788Y-110321434D01*
X95520287Y-110313805D01*
X95257102Y-110100681D01*
X95247457Y-110091996D01*
X95008003Y-109852542D01*
X94999318Y-109842897D01*
X94786194Y-109579712D01*
X94778565Y-109569211D01*
X94707609Y-109459948D01*
X94594122Y-109285192D01*
X94587646Y-109273976D01*
X94433888Y-108972210D01*
X94428614Y-108960363D01*
X94307255Y-108644210D01*
X94303244Y-108631867D01*
X94282534Y-108554578D01*
X94215591Y-108304744D01*
X94212895Y-108292054D01*
X94212656Y-108290548D01*
X94159921Y-107957584D01*
X94158564Y-107944676D01*
X94140670Y-107603243D01*
X94140500Y-107596753D01*
X94140500Y-107460132D01*
X95009500Y-107460132D01*
X95009500Y-107739867D01*
X95040818Y-108017819D01*
X95040820Y-108017831D01*
X95103065Y-108290548D01*
X95103068Y-108290556D01*
X95195454Y-108554578D01*
X95316820Y-108806597D01*
X95316822Y-108806600D01*
X95465645Y-109043452D01*
X95640052Y-109262151D01*
X95837849Y-109459948D01*
X96056548Y-109634355D01*
X96293400Y-109783178D01*
X96545425Y-109904547D01*
X96743718Y-109973932D01*
X96809443Y-109996931D01*
X96809451Y-109996934D01*
X96809454Y-109996934D01*
X96809455Y-109996935D01*
X97082168Y-110059180D01*
X97360132Y-110090499D01*
X97360133Y-110090500D01*
X97360137Y-110090500D01*
X97639867Y-110090500D01*
X97639867Y-110090499D01*
X97917832Y-110059180D01*
X98190545Y-109996935D01*
X98454575Y-109904547D01*
X98706600Y-109783178D01*
X98943452Y-109634355D01*
X99162151Y-109459948D01*
X99359948Y-109262151D01*
X99534355Y-109043452D01*
X99683178Y-108806600D01*
X99804547Y-108554575D01*
X99896935Y-108290545D01*
X99959180Y-108017832D01*
X99990500Y-107739863D01*
X99990500Y-107460137D01*
X99959180Y-107182168D01*
X99896935Y-106909455D01*
X99804547Y-106645425D01*
X99683178Y-106393400D01*
X99534355Y-106156548D01*
X99359948Y-105937849D01*
X99162151Y-105740052D01*
X98943452Y-105565645D01*
X98706600Y-105416822D01*
X98706597Y-105416820D01*
X98454578Y-105295454D01*
X98190556Y-105203068D01*
X98190548Y-105203065D01*
X97986010Y-105156381D01*
X97917832Y-105140820D01*
X97917828Y-105140819D01*
X97917819Y-105140818D01*
X97639867Y-105109500D01*
X97639863Y-105109500D01*
X97360137Y-105109500D01*
X97360133Y-105109500D01*
X97082180Y-105140818D01*
X97082168Y-105140820D01*
X96809451Y-105203065D01*
X96809443Y-105203068D01*
X96545421Y-105295454D01*
X96293402Y-105416820D01*
X96056549Y-105565644D01*
X95837849Y-105740051D01*
X95640051Y-105937849D01*
X95465644Y-106156549D01*
X95316820Y-106393402D01*
X95195454Y-106645421D01*
X95103068Y-106909443D01*
X95103065Y-106909451D01*
X95040820Y-107182168D01*
X95040818Y-107182180D01*
X95009500Y-107460132D01*
X94140500Y-107460132D01*
X94140500Y-73453246D01*
X94140670Y-73446757D01*
X94143194Y-73398590D01*
X94147830Y-73310132D01*
X95009500Y-73310132D01*
X95009500Y-73589867D01*
X95040818Y-73867819D01*
X95040820Y-73867831D01*
X95103065Y-74140548D01*
X95103068Y-74140556D01*
X95195454Y-74404578D01*
X95316820Y-74656597D01*
X95316822Y-74656600D01*
X95465645Y-74893452D01*
X95640052Y-75112151D01*
X95837849Y-75309948D01*
X96056548Y-75484355D01*
X96293400Y-75633178D01*
X96545425Y-75754547D01*
X96743718Y-75823932D01*
X96809443Y-75846931D01*
X96809451Y-75846934D01*
X96809454Y-75846934D01*
X96809455Y-75846935D01*
X97082168Y-75909180D01*
X97360132Y-75940499D01*
X97360133Y-75940500D01*
X97360137Y-75940500D01*
X97639867Y-75940500D01*
X97639867Y-75940499D01*
X97917832Y-75909180D01*
X98190545Y-75846935D01*
X98454575Y-75754547D01*
X98706600Y-75633178D01*
X98943452Y-75484355D01*
X99162151Y-75309948D01*
X99359948Y-75112151D01*
X99534355Y-74893452D01*
X99683178Y-74656600D01*
X99804547Y-74404575D01*
X99896935Y-74140545D01*
X99959180Y-73867832D01*
X99990500Y-73589863D01*
X99990500Y-73310137D01*
X99959180Y-73032168D01*
X99896935Y-72759455D01*
X99804547Y-72495425D01*
X99683178Y-72243400D01*
X99534355Y-72006548D01*
X99359948Y-71787849D01*
X99162151Y-71590052D01*
X98943452Y-71415645D01*
X98706600Y-71266822D01*
X98706597Y-71266820D01*
X98454578Y-71145454D01*
X98190556Y-71053068D01*
X98190548Y-71053065D01*
X97986010Y-71006381D01*
X97917832Y-70990820D01*
X97917828Y-70990819D01*
X97917819Y-70990818D01*
X97639867Y-70959500D01*
X97639863Y-70959500D01*
X97360137Y-70959500D01*
X97360133Y-70959500D01*
X97082180Y-70990818D01*
X97082168Y-70990820D01*
X96809451Y-71053065D01*
X96809443Y-71053068D01*
X96545421Y-71145454D01*
X96293402Y-71266820D01*
X96056549Y-71415644D01*
X95837849Y-71590051D01*
X95640051Y-71787849D01*
X95465644Y-72006549D01*
X95316820Y-72243402D01*
X95195454Y-72495421D01*
X95103068Y-72759443D01*
X95103065Y-72759451D01*
X95040820Y-73032168D01*
X95040818Y-73032180D01*
X95009500Y-73310132D01*
X94147830Y-73310132D01*
X94158564Y-73105321D01*
X94159921Y-73092415D01*
X94190317Y-72900499D01*
X94212897Y-72757934D01*
X94215590Y-72745259D01*
X94303247Y-72418121D01*
X94307255Y-72405789D01*
X94339093Y-72322848D01*
X94428619Y-72089624D01*
X94433884Y-72077796D01*
X94587650Y-71776014D01*
X94594116Y-71764815D01*
X94778572Y-71480777D01*
X94786186Y-71470296D01*
X94999326Y-71207093D01*
X95007993Y-71197467D01*
X95247467Y-70957993D01*
X95257093Y-70949326D01*
X95520296Y-70736186D01*
X95530777Y-70728572D01*
X95814815Y-70544116D01*
X95826014Y-70537650D01*
X96127796Y-70383884D01*
X96139624Y-70378619D01*
X96455793Y-70257253D01*
X96468121Y-70253247D01*
X96795259Y-70165590D01*
X96807934Y-70162897D01*
X97142417Y-70109920D01*
X97155321Y-70108564D01*
X97493513Y-70090840D01*
X97506487Y-70090840D01*
X97844676Y-70108564D01*
G37*
%TD.AperFunction*%
%TD*%
M02*
