%TF.GenerationSoftware,KiCad,Pcbnew,9.0.4*%
%TF.CreationDate,2026-02-01T15:45:46+02:00*%
%TF.ProjectId,IMP_nano,494d505f-6e61-46e6-9f2e-6b696361645f,rev?*%
%TF.SameCoordinates,Original*%
%TF.FileFunction,Legend,Bot*%
%TF.FilePolarity,Positive*%
%FSLAX46Y46*%
G04 Gerber Fmt 4.6, Leading zero omitted, Abs format (unit mm)*
G04 Created by KiCad (PCBNEW 9.0.4) date 2026-02-01 15:45:46*
%MOMM*%
%LPD*%
G01*
G04 APERTURE LIST*
%ADD10C,0.150000*%
%ADD11C,0.508000*%
%ADD12C,0.120000*%
%ADD13C,0.127000*%
G04 APERTURE END LIST*
D10*
X122033332Y-85106533D02*
X120966666Y-85106533D01*
X154033332Y-85606533D02*
X152966666Y-85606533D01*
X153499999Y-86139866D02*
X153499999Y-85073200D01*
D11*
%TO.C,BZ1*%
X105840500Y-89572950D02*
G75*
G02*
X105078500Y-89572950I-381000J0D01*
G01*
X105078500Y-89572950D02*
G75*
G02*
X105840500Y-89572950I381000J0D01*
G01*
D12*
%TO.C,Q1*%
X144590000Y-90477500D02*
X144590000Y-91477500D01*
X144590000Y-92597500D02*
X144590000Y-93597500D01*
X144590000Y-93597500D02*
X146110000Y-93597500D01*
X146110000Y-90477500D02*
X144590000Y-90477500D01*
X146110000Y-90527500D02*
X146110000Y-90477500D01*
X146110000Y-92427500D02*
X146110000Y-91647500D01*
X146110000Y-93597500D02*
X146110000Y-93547500D01*
X146890000Y-91987500D02*
X146410000Y-91987500D01*
X146650000Y-91657500D01*
X146890000Y-91987500D01*
G36*
X146890000Y-91987500D02*
G01*
X146410000Y-91987500D01*
X146650000Y-91657500D01*
X146890000Y-91987500D01*
G37*
%TO.C,D1*%
X144200000Y-98140000D02*
X144200000Y-103650000D01*
X144200000Y-98140000D02*
X147500000Y-98140000D01*
X147500000Y-98140000D02*
X147500000Y-103650000D01*
%TO.C,C5*%
X129870000Y-97284785D02*
X143030000Y-97284785D01*
X129870000Y-97324785D02*
X143030000Y-97324785D01*
X129870000Y-97364785D02*
X143030000Y-97364785D01*
X129871000Y-97404785D02*
X143029000Y-97404785D01*
X129872000Y-97444785D02*
X143028000Y-97444785D01*
X129873000Y-97484785D02*
X143027000Y-97484785D01*
X129874000Y-97524785D02*
X143026000Y-97524785D01*
X129876000Y-97564785D02*
X143024000Y-97564785D01*
X129878000Y-97604785D02*
X143022000Y-97604785D01*
X129880000Y-97644785D02*
X143020000Y-97644785D01*
X129882000Y-97684785D02*
X143018000Y-97684785D01*
X129885000Y-97724785D02*
X143015000Y-97724785D01*
X129887000Y-97764785D02*
X143013000Y-97764785D01*
X129890000Y-97804785D02*
X143010000Y-97804785D01*
X129894000Y-97844785D02*
X143006000Y-97844785D01*
X129897000Y-97884785D02*
X143003000Y-97884785D01*
X129901000Y-97924785D02*
X142999000Y-97924785D01*
X129905000Y-97964785D02*
X142995000Y-97964785D01*
X129909000Y-98004785D02*
X142991000Y-98004785D01*
X129914000Y-98044785D02*
X142986000Y-98044785D01*
X129919000Y-98084785D02*
X142981000Y-98084785D01*
X129924000Y-98124785D02*
X142976000Y-98124785D01*
X129929000Y-98164785D02*
X142971000Y-98164785D01*
X129934000Y-98204785D02*
X142966000Y-98204785D01*
X129940000Y-98244785D02*
X142960000Y-98244785D01*
X129946000Y-98284785D02*
X142954000Y-98284785D01*
X129952000Y-98324785D02*
X142948000Y-98324785D01*
X129959000Y-98364785D02*
X135010000Y-98364785D01*
X129965000Y-98404785D02*
X135010000Y-98404785D01*
X129972000Y-98444785D02*
X135010000Y-98444785D01*
X129980000Y-98484785D02*
X135010000Y-98484785D01*
X129987000Y-98524785D02*
X135010000Y-98524785D01*
X129995000Y-98564785D02*
X135010000Y-98564785D01*
X130003000Y-98604785D02*
X135010000Y-98604785D01*
X130011000Y-98644785D02*
X135010000Y-98644785D01*
X130020000Y-98684785D02*
X135010000Y-98684785D01*
X130029000Y-98724785D02*
X135010000Y-98724785D01*
X130038000Y-98764785D02*
X135010000Y-98764785D01*
X130047000Y-98804785D02*
X135010000Y-98804785D01*
X130056000Y-98844785D02*
X135010000Y-98844785D01*
X130066000Y-98884785D02*
X135010000Y-98884785D01*
X130076000Y-98924785D02*
X135010000Y-98924785D01*
X130087000Y-98964785D02*
X135010000Y-98964785D01*
X130097000Y-99004785D02*
X135010000Y-99004785D01*
X130108000Y-99044785D02*
X135010000Y-99044785D01*
X130119000Y-99084785D02*
X135010000Y-99084785D01*
X130131000Y-99124785D02*
X135010000Y-99124785D01*
X130143000Y-99164785D02*
X135010000Y-99164785D01*
X130155000Y-99204785D02*
X135010000Y-99204785D01*
X130167000Y-99244785D02*
X135010000Y-99244785D01*
X130179000Y-99284785D02*
X135010000Y-99284785D01*
X130192000Y-99324785D02*
X135010000Y-99324785D01*
X130205000Y-99364785D02*
X135010000Y-99364785D01*
X130219000Y-99404785D02*
X135010000Y-99404785D01*
X130232000Y-99444785D02*
X135010000Y-99444785D01*
X130246000Y-99484785D02*
X135010000Y-99484785D01*
X130260000Y-99524785D02*
X135010000Y-99524785D01*
X130275000Y-99564785D02*
X135010000Y-99564785D01*
X130290000Y-99604785D02*
X135010000Y-99604785D01*
X130305000Y-99644785D02*
X135010000Y-99644785D01*
X130320000Y-99684785D02*
X135010000Y-99684785D01*
X130336000Y-99724785D02*
X135010000Y-99724785D01*
X130352000Y-99764785D02*
X135010000Y-99764785D01*
X130368000Y-99804785D02*
X135010000Y-99804785D01*
X130385000Y-99844785D02*
X135010000Y-99844785D01*
X130402000Y-99884785D02*
X135010000Y-99884785D01*
X130419000Y-99924785D02*
X135010000Y-99924785D01*
X130437000Y-99964785D02*
X135010000Y-99964785D01*
X130455000Y-100004785D02*
X135010000Y-100004785D01*
X130473000Y-100044785D02*
X135010000Y-100044785D01*
X130491000Y-100084785D02*
X135010000Y-100084785D01*
X130510000Y-100124785D02*
X135010000Y-100124785D01*
X130529000Y-100164785D02*
X135010000Y-100164785D01*
X130549000Y-100204785D02*
X135010000Y-100204785D01*
X130569000Y-100244785D02*
X135010000Y-100244785D01*
X130589000Y-100284785D02*
X135010000Y-100284785D01*
X130609000Y-100324785D02*
X135010000Y-100324785D01*
X130630000Y-100364785D02*
X135010000Y-100364785D01*
X130651000Y-100404785D02*
X135010000Y-100404785D01*
X130673000Y-100444785D02*
X135010000Y-100444785D01*
X130695000Y-100484785D02*
X135010000Y-100484785D01*
X130717000Y-100524785D02*
X135010000Y-100524785D01*
X130740000Y-100564785D02*
X135010000Y-100564785D01*
X130763000Y-100604785D02*
X135010000Y-100604785D01*
X130786000Y-100644785D02*
X135010000Y-100644785D01*
X130810000Y-100684785D02*
X135010000Y-100684785D01*
X130834000Y-100724785D02*
X135010000Y-100724785D01*
X130858000Y-100764785D02*
X135010000Y-100764785D01*
X130883000Y-100804785D02*
X135010000Y-100804785D01*
X130909000Y-100844785D02*
X135010000Y-100844785D01*
X130934000Y-100884785D02*
X135010000Y-100884785D01*
X130961000Y-100924785D02*
X135010000Y-100924785D01*
X130987000Y-100964785D02*
X135010000Y-100964785D01*
X131014000Y-101004785D02*
X135010000Y-101004785D01*
X131041000Y-101044785D02*
X135010000Y-101044785D01*
X131069000Y-101084785D02*
X135010000Y-101084785D01*
X131098000Y-101124785D02*
X135010000Y-101124785D01*
X131126000Y-101164785D02*
X135010000Y-101164785D01*
X131155000Y-101204785D02*
X135010000Y-101204785D01*
X131185000Y-101244785D02*
X141715000Y-101244785D01*
X131215000Y-101284785D02*
X141685000Y-101284785D01*
X131246000Y-101324785D02*
X141654000Y-101324785D01*
X131277000Y-101364785D02*
X141623000Y-101364785D01*
X131308000Y-101404785D02*
X141592000Y-101404785D01*
X131340000Y-101444785D02*
X141560000Y-101444785D01*
X131373000Y-101484785D02*
X141527000Y-101484785D01*
X131406000Y-101524785D02*
X141494000Y-101524785D01*
X131440000Y-101564785D02*
X141460000Y-101564785D01*
X131474000Y-101604785D02*
X141426000Y-101604785D01*
X131509000Y-101644785D02*
X141391000Y-101644785D01*
X131544000Y-101684785D02*
X141356000Y-101684785D01*
X131580000Y-101724785D02*
X141320000Y-101724785D01*
X131616000Y-101764785D02*
X141284000Y-101764785D01*
X131653000Y-101804785D02*
X141247000Y-101804785D01*
X131691000Y-101844785D02*
X141209000Y-101844785D01*
X131729000Y-101884785D02*
X141171000Y-101884785D01*
X131768000Y-101924785D02*
X141132000Y-101924785D01*
X131808000Y-101964785D02*
X141092000Y-101964785D01*
X131848000Y-102004785D02*
X141052000Y-102004785D01*
X131889000Y-102044785D02*
X141011000Y-102044785D01*
X131931000Y-102084785D02*
X140969000Y-102084785D01*
X131973000Y-102124785D02*
X140927000Y-102124785D01*
X132017000Y-102164785D02*
X140883000Y-102164785D01*
X132061000Y-102204785D02*
X140839000Y-102204785D01*
X132085000Y-90850216D02*
X133385000Y-90850216D01*
X132106000Y-102244785D02*
X140794000Y-102244785D01*
X132151000Y-102284785D02*
X140749000Y-102284785D01*
X132198000Y-102324785D02*
X140702000Y-102324785D01*
X132245000Y-102364785D02*
X140655000Y-102364785D01*
X132294000Y-102404785D02*
X140606000Y-102404785D01*
X132343000Y-102444785D02*
X140557000Y-102444785D01*
X132393000Y-102484785D02*
X140507000Y-102484785D01*
X132444000Y-102524785D02*
X140456000Y-102524785D01*
X132497000Y-102564785D02*
X140403000Y-102564785D01*
X132550000Y-102604785D02*
X140350000Y-102604785D01*
X132605000Y-102644785D02*
X140295000Y-102644785D01*
X132661000Y-102684785D02*
X140239000Y-102684785D01*
X132718000Y-102724785D02*
X140182000Y-102724785D01*
X132735000Y-90200216D02*
X132735000Y-91500216D01*
X132776000Y-102764785D02*
X140124000Y-102764785D01*
X132836000Y-102804785D02*
X140064000Y-102804785D01*
X132897000Y-102844785D02*
X140003000Y-102844785D01*
X132960000Y-102884785D02*
X139940000Y-102884785D01*
X133024000Y-102924785D02*
X139876000Y-102924785D01*
X133090000Y-102964785D02*
X139810000Y-102964785D01*
X133157000Y-103004785D02*
X139743000Y-103004785D01*
X133227000Y-103044785D02*
X139673000Y-103044785D01*
X133299000Y-103084785D02*
X139601000Y-103084785D01*
X133373000Y-103124785D02*
X139527000Y-103124785D01*
X133449000Y-103164785D02*
X139451000Y-103164785D01*
X133527000Y-103204785D02*
X139373000Y-103204785D01*
X133609000Y-103244785D02*
X139291000Y-103244785D01*
X133693000Y-103284785D02*
X139207000Y-103284785D01*
X133780000Y-103324785D02*
X139120000Y-103324785D01*
X133871000Y-103364785D02*
X139029000Y-103364785D01*
X133966000Y-103404785D02*
X138934000Y-103404785D01*
X134065000Y-103444785D02*
X138835000Y-103444785D01*
X134170000Y-103484785D02*
X138730000Y-103484785D01*
X134279000Y-103524785D02*
X138621000Y-103524785D01*
X134396000Y-103564785D02*
X138504000Y-103564785D01*
X134520000Y-103604785D02*
X138380000Y-103604785D01*
X134653000Y-103644785D02*
X138247000Y-103644785D01*
X134798000Y-103684785D02*
X138102000Y-103684785D01*
X134957000Y-103724785D02*
X137943000Y-103724785D01*
X135136000Y-103764785D02*
X137764000Y-103764785D01*
X135344000Y-103804785D02*
X137556000Y-103804785D01*
X135601000Y-103844785D02*
X137299000Y-103844785D01*
X135976000Y-103884785D02*
X136924000Y-103884785D01*
X137890000Y-98364785D02*
X142941000Y-98364785D01*
X137890000Y-98404785D02*
X142935000Y-98404785D01*
X137890000Y-98444785D02*
X142928000Y-98444785D01*
X137890000Y-98484785D02*
X142920000Y-98484785D01*
X137890000Y-98524785D02*
X142913000Y-98524785D01*
X137890000Y-98564785D02*
X142905000Y-98564785D01*
X137890000Y-98604785D02*
X142897000Y-98604785D01*
X137890000Y-98644785D02*
X142889000Y-98644785D01*
X137890000Y-98684785D02*
X142880000Y-98684785D01*
X137890000Y-98724785D02*
X142871000Y-98724785D01*
X137890000Y-98764785D02*
X142862000Y-98764785D01*
X137890000Y-98804785D02*
X142853000Y-98804785D01*
X137890000Y-98844785D02*
X142844000Y-98844785D01*
X137890000Y-98884785D02*
X142834000Y-98884785D01*
X137890000Y-98924785D02*
X142824000Y-98924785D01*
X137890000Y-98964785D02*
X142813000Y-98964785D01*
X137890000Y-99004785D02*
X142803000Y-99004785D01*
X137890000Y-99044785D02*
X142792000Y-99044785D01*
X137890000Y-99084785D02*
X142781000Y-99084785D01*
X137890000Y-99124785D02*
X142769000Y-99124785D01*
X137890000Y-99164785D02*
X142757000Y-99164785D01*
X137890000Y-99204785D02*
X142745000Y-99204785D01*
X137890000Y-99244785D02*
X142733000Y-99244785D01*
X137890000Y-99284785D02*
X142721000Y-99284785D01*
X137890000Y-99324785D02*
X142708000Y-99324785D01*
X137890000Y-99364785D02*
X142695000Y-99364785D01*
X137890000Y-99404785D02*
X142681000Y-99404785D01*
X137890000Y-99444785D02*
X142668000Y-99444785D01*
X137890000Y-99484785D02*
X142654000Y-99484785D01*
X137890000Y-99524785D02*
X142640000Y-99524785D01*
X137890000Y-99564785D02*
X142625000Y-99564785D01*
X137890000Y-99604785D02*
X142610000Y-99604785D01*
X137890000Y-99644785D02*
X142595000Y-99644785D01*
X137890000Y-99684785D02*
X142580000Y-99684785D01*
X137890000Y-99724785D02*
X142564000Y-99724785D01*
X137890000Y-99764785D02*
X142548000Y-99764785D01*
X137890000Y-99804785D02*
X142532000Y-99804785D01*
X137890000Y-99844785D02*
X142515000Y-99844785D01*
X137890000Y-99884785D02*
X142498000Y-99884785D01*
X137890000Y-99924785D02*
X142481000Y-99924785D01*
X137890000Y-99964785D02*
X142463000Y-99964785D01*
X137890000Y-100004785D02*
X142445000Y-100004785D01*
X137890000Y-100044785D02*
X142427000Y-100044785D01*
X137890000Y-100084785D02*
X142409000Y-100084785D01*
X137890000Y-100124785D02*
X142390000Y-100124785D01*
X137890000Y-100164785D02*
X142371000Y-100164785D01*
X137890000Y-100204785D02*
X142351000Y-100204785D01*
X137890000Y-100244785D02*
X142331000Y-100244785D01*
X137890000Y-100284785D02*
X142311000Y-100284785D01*
X137890000Y-100324785D02*
X142291000Y-100324785D01*
X137890000Y-100364785D02*
X142270000Y-100364785D01*
X137890000Y-100404785D02*
X142249000Y-100404785D01*
X137890000Y-100444785D02*
X142227000Y-100444785D01*
X137890000Y-100484785D02*
X142205000Y-100484785D01*
X137890000Y-100524785D02*
X142183000Y-100524785D01*
X137890000Y-100564785D02*
X142160000Y-100564785D01*
X137890000Y-100604785D02*
X142137000Y-100604785D01*
X137890000Y-100644785D02*
X142114000Y-100644785D01*
X137890000Y-100684785D02*
X142090000Y-100684785D01*
X137890000Y-100724785D02*
X142066000Y-100724785D01*
X137890000Y-100764785D02*
X142042000Y-100764785D01*
X137890000Y-100804785D02*
X142017000Y-100804785D01*
X137890000Y-100844785D02*
X141991000Y-100844785D01*
X137890000Y-100884785D02*
X141966000Y-100884785D01*
X137890000Y-100924785D02*
X141939000Y-100924785D01*
X137890000Y-100964785D02*
X141913000Y-100964785D01*
X137890000Y-101004785D02*
X141886000Y-101004785D01*
X137890000Y-101044785D02*
X141859000Y-101044785D01*
X137890000Y-101084785D02*
X141831000Y-101084785D01*
X137890000Y-101124785D02*
X141802000Y-101124785D01*
X137890000Y-101164785D02*
X141774000Y-101164785D01*
X137890000Y-101204785D02*
X141745000Y-101204785D01*
X143070000Y-97284785D02*
G75*
G02*
X129830000Y-97284785I-6620000J0D01*
G01*
X129830000Y-97284785D02*
G75*
G02*
X143070000Y-97284785I6620000J0D01*
G01*
%TO.C,Q2*%
X143390000Y-94902500D02*
X143390000Y-96422500D01*
X143390000Y-96422500D02*
X143440000Y-96422500D01*
X144390000Y-94902500D02*
X143390000Y-94902500D01*
X144560000Y-96422500D02*
X145340000Y-96422500D01*
X146460000Y-96422500D02*
X146510000Y-96422500D01*
X146510000Y-94902500D02*
X145510000Y-94902500D01*
X146510000Y-96422500D02*
X146510000Y-94902500D01*
X145330000Y-96962500D02*
X145000000Y-97202500D01*
X145000000Y-96722500D01*
X145330000Y-96962500D01*
G36*
X145330000Y-96962500D02*
G01*
X145000000Y-97202500D01*
X145000000Y-96722500D01*
X145330000Y-96962500D01*
G37*
%TO.C,J2*%
X119890000Y-100265000D02*
X120940000Y-100265000D01*
X119890000Y-102765000D02*
X119890000Y-100265000D01*
X124940000Y-104735000D02*
X121060000Y-104735000D01*
X125060000Y-100265000D02*
X125060000Y-99275000D01*
X126110000Y-100265000D02*
X125060000Y-100265000D01*
X126110000Y-102765000D02*
X126110000Y-100265000D01*
D13*
%TO.C,J1*%
X147900000Y-94550000D02*
X147900000Y-104550000D01*
X147900000Y-104550000D02*
X155400000Y-104550000D01*
X155400000Y-94550000D02*
X147900000Y-94550000D01*
X155400000Y-104550000D02*
X155400000Y-94550000D01*
%TO.C,R7*%
X153400000Y-90550000D02*
X149800000Y-90550000D01*
X153400000Y-93950000D02*
X149800000Y-93950000D01*
%TO.C,BT2*%
X96220000Y-78300000D02*
X96220000Y-103700000D01*
X96220000Y-78300000D02*
X104157500Y-78300000D01*
X96220000Y-103700000D02*
X104157500Y-103700000D01*
X107842500Y-103700000D02*
X118830000Y-103700000D01*
X118830000Y-78300000D02*
X107842500Y-78300000D01*
X118830000Y-103700000D02*
X118830000Y-78300000D01*
%TO.C,BT1*%
X119600000Y-76950000D02*
X119600000Y-90050000D01*
X119600000Y-90050000D02*
X155400000Y-90050000D01*
X155400000Y-76950000D02*
X119600000Y-76950000D01*
X155400000Y-90050000D02*
X155400000Y-76950000D01*
%TD*%
M02*
