%TF.GenerationSoftware,KiCad,Pcbnew,9.0.4*%
%TF.CreationDate,2026-02-01T15:45:46+02:00*%
%TF.ProjectId,IMP_nano,494d505f-6e61-46e6-9f2e-6b696361645f,rev?*%
%TF.SameCoordinates,Original*%
%TF.FileFunction,Profile,NP*%
%FSLAX46Y46*%
G04 Gerber Fmt 4.6, Leading zero omitted, Abs format (unit mm)*
G04 Created by KiCad (PCBNEW 9.0.4) date 2026-02-01 15:45:46*
%MOMM*%
%LPD*%
G01*
G04 APERTURE LIST*
%TA.AperFunction,Profile*%
%ADD10C,0.050000*%
%TD*%
G04 APERTURE END LIST*
D10*
X148150000Y-107600000D02*
X148150000Y-105650000D01*
X93750000Y-73450000D02*
X93750000Y-107600000D01*
X155650000Y-107600000D02*
G75*
G02*
X148150000Y-107600000I-3750000J0D01*
G01*
X148150000Y-105650000D02*
X101250000Y-105650000D01*
X101250000Y-73450000D02*
X101250000Y-75900000D01*
X93750000Y-73450000D02*
G75*
G02*
X101250000Y-73450000I3750000J0D01*
G01*
X148150000Y-75900000D02*
X101250000Y-75900000D01*
X99600000Y-107600000D02*
G75*
G02*
X95400000Y-107600000I-2100000J0D01*
G01*
X95400000Y-107600000D02*
G75*
G02*
X99600000Y-107600000I2100000J0D01*
G01*
X99600000Y-73450000D02*
G75*
G02*
X95400000Y-73450000I-2100000J0D01*
G01*
X95400000Y-73450000D02*
G75*
G02*
X99600000Y-73450000I2100000J0D01*
G01*
X154000000Y-107600000D02*
G75*
G02*
X149800000Y-107600000I-2100000J0D01*
G01*
X149800000Y-107600000D02*
G75*
G02*
X154000000Y-107600000I2100000J0D01*
G01*
X155650000Y-107600000D02*
X155650000Y-73450000D01*
X154000000Y-73450000D02*
G75*
G02*
X149800000Y-73450000I-2100000J0D01*
G01*
X149800000Y-73450000D02*
G75*
G02*
X154000000Y-73450000I2100000J0D01*
G01*
X148150000Y-73450000D02*
G75*
G02*
X155650000Y-73450000I3750000J0D01*
G01*
X101250000Y-105650000D02*
X101250000Y-107600000D01*
X148150000Y-73450000D02*
X148150000Y-75900000D01*
X101250000Y-107600000D02*
G75*
G02*
X93750000Y-107600000I-3750000J0D01*
G01*
M02*
