%TF.GenerationSoftware,KiCad,Pcbnew,9.0.4*%
%TF.CreationDate,2026-02-01T15:45:46+02:00*%
%TF.ProjectId,IMP_nano,494d505f-6e61-46e6-9f2e-6b696361645f,rev?*%
%TF.SameCoordinates,Original*%
%TF.FileFunction,Legend,Top*%
%TF.FilePolarity,Positive*%
%FSLAX46Y46*%
G04 Gerber Fmt 4.6, Leading zero omitted, Abs format (unit mm)*
G04 Created by KiCad (PCBNEW 9.0.4) date 2026-02-01 15:45:46*
%MOMM*%
%LPD*%
G01*
G04 APERTURE LIST*
%ADD10C,0.100000*%
%ADD11C,0.150000*%
%ADD12C,0.152400*%
%ADD13C,0.508000*%
%ADD14C,0.000000*%
%ADD15C,0.120000*%
G04 APERTURE END LIST*
D10*
G36*
X132142585Y-79170000D02*
G01*
X132142585Y-77208241D01*
X132732798Y-77208241D01*
X132732798Y-79170000D01*
X132142585Y-79170000D01*
G37*
G36*
X134911566Y-79170000D02*
G01*
X134911566Y-78093866D01*
X134921092Y-77759741D01*
X134925244Y-77669371D01*
X134908757Y-77669371D01*
X134841835Y-77989818D01*
X134553506Y-79170000D01*
X133998831Y-79170000D01*
X133696946Y-78003496D01*
X133632711Y-77669371D01*
X133616346Y-77669371D01*
X133635519Y-78244441D01*
X133635519Y-79170000D01*
X133117602Y-79170000D01*
X133117602Y-77208241D01*
X134001639Y-77208241D01*
X134270795Y-78272163D01*
X134295952Y-78405397D01*
X134315858Y-78560369D01*
X134324040Y-78560369D01*
X134371912Y-78266667D01*
X134623237Y-77208241D01*
X135493597Y-77208241D01*
X135493597Y-79170000D01*
X134911566Y-79170000D01*
G37*
G36*
X136896453Y-77220334D02*
G01*
X137062757Y-77253061D01*
X137191421Y-77302212D01*
X137289759Y-77365289D01*
X137370473Y-77450226D01*
X137429927Y-77556569D01*
X137467980Y-77689036D01*
X137481734Y-77854141D01*
X137470059Y-77984919D01*
X137436034Y-78102891D01*
X137379884Y-78210614D01*
X137303715Y-78305218D01*
X137207866Y-78385337D01*
X137089602Y-78451559D01*
X136961232Y-78497840D01*
X136815986Y-78526794D01*
X136651064Y-78536922D01*
X136470690Y-78536922D01*
X136470690Y-79170000D01*
X135880478Y-79170000D01*
X135880478Y-78114870D01*
X136470690Y-78114870D01*
X136603314Y-78114870D01*
X136700573Y-78103803D01*
X136769030Y-78074338D01*
X136816421Y-78028649D01*
X136846350Y-77964107D01*
X136857449Y-77873925D01*
X136848868Y-77796690D01*
X136825250Y-77737460D01*
X136787718Y-77691964D01*
X136737685Y-77659390D01*
X136671030Y-77638151D01*
X136582798Y-77630293D01*
X136470690Y-77630293D01*
X136470690Y-78114870D01*
X135880478Y-78114870D01*
X135880478Y-77208241D01*
X136683792Y-77208241D01*
X136896453Y-77220334D01*
G37*
G36*
X137522644Y-79576420D02*
G01*
X137522644Y-79412288D01*
X138683897Y-79412288D01*
X138683897Y-79576420D01*
X137522644Y-79576420D01*
G37*
G36*
X139992184Y-79170000D02*
G01*
X139329553Y-79170000D01*
X138696964Y-77208241D01*
X139332240Y-77208241D01*
X139631437Y-78419075D01*
X139660858Y-78557102D01*
X139671127Y-78638527D01*
X139684804Y-78638527D01*
X139698371Y-78541775D01*
X139727180Y-78410893D01*
X140018196Y-77208241D01*
X140632955Y-77208241D01*
X139992184Y-79170000D01*
G37*
G36*
X141669186Y-77189118D02*
G01*
X141796278Y-77223459D01*
X141904646Y-77278280D01*
X141997405Y-77353807D01*
X142076339Y-77452184D01*
X142141747Y-77577288D01*
X142192416Y-77734453D01*
X142225736Y-77930198D01*
X142237875Y-78172023D01*
X142228578Y-78382062D01*
X142202617Y-78559537D01*
X142162442Y-78708891D01*
X142109849Y-78834098D01*
X142045900Y-78938579D01*
X141962792Y-79032446D01*
X141867288Y-79104726D01*
X141757745Y-79157131D01*
X141631512Y-79189795D01*
X141485118Y-79201263D01*
X141333528Y-79190366D01*
X141204760Y-79159597D01*
X141095015Y-79110835D01*
X141001283Y-79044536D01*
X140921528Y-78959706D01*
X140860302Y-78863869D01*
X140809400Y-78745595D01*
X140770060Y-78600760D01*
X140744346Y-78424557D01*
X140735048Y-78211591D01*
X140735576Y-78200111D01*
X141311584Y-78200111D01*
X141323926Y-78476008D01*
X141353227Y-78637184D01*
X141390860Y-78723085D01*
X141434355Y-78765864D01*
X141485118Y-78779211D01*
X141535245Y-78765274D01*
X141579842Y-78719390D01*
X141620112Y-78624784D01*
X141651175Y-78454205D01*
X141664026Y-78172634D01*
X141651838Y-77898167D01*
X141622993Y-77738981D01*
X141585848Y-77654676D01*
X141542182Y-77612350D01*
X141490491Y-77599030D01*
X141440239Y-77612916D01*
X141395617Y-77658539D01*
X141355395Y-77752407D01*
X141324401Y-77921405D01*
X141311584Y-78200111D01*
X140735576Y-78200111D01*
X140744774Y-78000269D01*
X140771944Y-77821771D01*
X140814032Y-77671553D01*
X140869234Y-77545575D01*
X140936549Y-77440394D01*
X141023198Y-77346575D01*
X141122591Y-77274082D01*
X141236461Y-77221396D01*
X141367502Y-77188519D01*
X141519190Y-77176978D01*
X141669186Y-77189118D01*
G37*
D11*
X101658331Y-96552800D02*
X101515474Y-96505180D01*
X101515474Y-96505180D02*
X101277379Y-96505180D01*
X101277379Y-96505180D02*
X101182141Y-96552800D01*
X101182141Y-96552800D02*
X101134522Y-96600419D01*
X101134522Y-96600419D02*
X101086903Y-96695657D01*
X101086903Y-96695657D02*
X101086903Y-96790895D01*
X101086903Y-96790895D02*
X101134522Y-96886133D01*
X101134522Y-96886133D02*
X101182141Y-96933752D01*
X101182141Y-96933752D02*
X101277379Y-96981371D01*
X101277379Y-96981371D02*
X101467855Y-97028990D01*
X101467855Y-97028990D02*
X101563093Y-97076609D01*
X101563093Y-97076609D02*
X101610712Y-97124228D01*
X101610712Y-97124228D02*
X101658331Y-97219466D01*
X101658331Y-97219466D02*
X101658331Y-97314704D01*
X101658331Y-97314704D02*
X101610712Y-97409942D01*
X101610712Y-97409942D02*
X101563093Y-97457561D01*
X101563093Y-97457561D02*
X101467855Y-97505180D01*
X101467855Y-97505180D02*
X101229760Y-97505180D01*
X101229760Y-97505180D02*
X101086903Y-97457561D01*
X100753569Y-97505180D02*
X100515474Y-96505180D01*
X100515474Y-96505180D02*
X100324998Y-97219466D01*
X100324998Y-97219466D02*
X100134522Y-96505180D01*
X100134522Y-96505180D02*
X99896427Y-97505180D01*
X99563093Y-97409942D02*
X99515474Y-97457561D01*
X99515474Y-97457561D02*
X99420236Y-97505180D01*
X99420236Y-97505180D02*
X99182141Y-97505180D01*
X99182141Y-97505180D02*
X99086903Y-97457561D01*
X99086903Y-97457561D02*
X99039284Y-97409942D01*
X99039284Y-97409942D02*
X98991665Y-97314704D01*
X98991665Y-97314704D02*
X98991665Y-97219466D01*
X98991665Y-97219466D02*
X99039284Y-97076609D01*
X99039284Y-97076609D02*
X99610712Y-96505180D01*
X99610712Y-96505180D02*
X98991665Y-96505180D01*
D12*
%TO.C,SW2*%
X97098000Y-91282998D02*
X97098000Y-102637002D01*
X97098000Y-102637002D02*
X103551998Y-102637002D01*
X103551998Y-91282998D02*
X97098000Y-91282998D01*
X103551998Y-102637002D02*
X103551998Y-91282998D01*
%TO.C,BZ1*%
X95858300Y-83961389D02*
X95858300Y-88084511D01*
X98279839Y-90506050D02*
X102402961Y-90506050D01*
X102402961Y-81539850D02*
X98279839Y-81539850D01*
X104824500Y-88084511D02*
X104824500Y-83961389D01*
D13*
X105557640Y-89204807D02*
G75*
G02*
X105557640Y-89941093I-98140J-368143D01*
G01*
D14*
%TO.C,G\u002A\u002A\u002A*%
G36*
X145028561Y-84976317D02*
G01*
X145025671Y-84979207D01*
X145022780Y-84976317D01*
X145025671Y-84973426D01*
X145028561Y-84976317D01*
G37*
G36*
X146049802Y-84327925D02*
G01*
X146049009Y-84331362D01*
X146045948Y-84331779D01*
X146041190Y-84329664D01*
X146042095Y-84327925D01*
X146048955Y-84327233D01*
X146049802Y-84327925D01*
G37*
G36*
X146012365Y-84346296D02*
G01*
X146032416Y-84353951D01*
X146050647Y-84364487D01*
X146063913Y-84376084D01*
X146069071Y-84386924D01*
X146069071Y-84386972D01*
X146067621Y-84392285D01*
X146062036Y-84396175D01*
X146050460Y-84399114D01*
X146031038Y-84401573D01*
X146001975Y-84404018D01*
X145975001Y-84405563D01*
X145956978Y-84405223D01*
X145945423Y-84402823D01*
X145939600Y-84399636D01*
X145931467Y-84388233D01*
X145932789Y-84375353D01*
X145941908Y-84362721D01*
X145957170Y-84352061D01*
X145976919Y-84345098D01*
X145993638Y-84343340D01*
X146012365Y-84346296D01*
G37*
G36*
X144059201Y-84138546D02*
G01*
X144079434Y-84149265D01*
X144094289Y-84168588D01*
X144095026Y-84169986D01*
X144102885Y-84193925D01*
X144099764Y-84215556D01*
X144088840Y-84232896D01*
X144068736Y-84249392D01*
X144043914Y-84259122D01*
X144018163Y-84261210D01*
X143995276Y-84254782D01*
X143994929Y-84254591D01*
X143979604Y-84241779D01*
X143966832Y-84223799D01*
X143959745Y-84205434D01*
X143959186Y-84199983D01*
X143963573Y-84179753D01*
X143974808Y-84159177D01*
X143989305Y-84144260D01*
X144004092Y-84138380D01*
X144025133Y-84135401D01*
X144031406Y-84135238D01*
X144059201Y-84138546D01*
G37*
G36*
X144177085Y-84064641D02*
G01*
X144187490Y-84066200D01*
X144209750Y-84069981D01*
X144231442Y-84073538D01*
X144238063Y-84074585D01*
X144252631Y-84078133D01*
X144258774Y-84084241D01*
X144259740Y-84091514D01*
X144255716Y-84106554D01*
X144245389Y-84125346D01*
X144231379Y-84144291D01*
X144216305Y-84159790D01*
X144204326Y-84167683D01*
X144188487Y-84171718D01*
X144175324Y-84168201D01*
X144174850Y-84167949D01*
X144158255Y-84154597D01*
X144143507Y-84135543D01*
X144135997Y-84119766D01*
X144135740Y-84106802D01*
X144139662Y-84089812D01*
X144146125Y-84073942D01*
X144153492Y-84064341D01*
X144153661Y-84064234D01*
X144161792Y-84063399D01*
X144177085Y-84064641D01*
G37*
G36*
X145215639Y-84075269D02*
G01*
X145239553Y-84082436D01*
X145256903Y-84092937D01*
X145274822Y-84107879D01*
X145290713Y-84124550D01*
X145301978Y-84140239D01*
X145306030Y-84151817D01*
X145300669Y-84168227D01*
X145286136Y-84184761D01*
X145264754Y-84200324D01*
X145238849Y-84213823D01*
X145210743Y-84224162D01*
X145182763Y-84230247D01*
X145157231Y-84230983D01*
X145143674Y-84228280D01*
X145115080Y-84214071D01*
X145095077Y-84193751D01*
X145084313Y-84169131D01*
X145083439Y-84142025D01*
X145093104Y-84114243D01*
X145099284Y-84104431D01*
X145113362Y-84090233D01*
X145130395Y-84079668D01*
X145155299Y-84073504D01*
X145185456Y-84072082D01*
X145215639Y-84075269D01*
G37*
G36*
X145956645Y-84843257D02*
G01*
X145973835Y-84850362D01*
X145984691Y-84862543D01*
X145985238Y-84863567D01*
X145993659Y-84889174D01*
X145993472Y-84913865D01*
X145985981Y-84935789D01*
X145972489Y-84953093D01*
X145954302Y-84963925D01*
X145932721Y-84966434D01*
X145915885Y-84962076D01*
X145905866Y-84955402D01*
X145891631Y-84943005D01*
X145879235Y-84930649D01*
X145862055Y-84914726D01*
X145847515Y-84905576D01*
X145841321Y-84904059D01*
X145825970Y-84900632D01*
X145817987Y-84896376D01*
X145810973Y-84888807D01*
X145812558Y-84879433D01*
X145814457Y-84875654D01*
X145828361Y-84861411D01*
X145852940Y-84850838D01*
X145888343Y-84843875D01*
X145897252Y-84842858D01*
X145931618Y-84840873D01*
X145956645Y-84843257D01*
G37*
G36*
X145189634Y-83112255D02*
G01*
X145202298Y-83118724D01*
X145221361Y-83132187D01*
X145232026Y-83147259D01*
X145234199Y-83165137D01*
X145227785Y-83187014D01*
X145212688Y-83214087D01*
X145192473Y-83242724D01*
X145177176Y-83262580D01*
X145165393Y-83275488D01*
X145153850Y-83283855D01*
X145139268Y-83290087D01*
X145119648Y-83296213D01*
X145095138Y-83303301D01*
X145079162Y-83307085D01*
X145069207Y-83307676D01*
X145062762Y-83305189D01*
X145057315Y-83299734D01*
X145056727Y-83299028D01*
X145051533Y-83285679D01*
X145049841Y-83265017D01*
X145051420Y-83240670D01*
X145056039Y-83216265D01*
X145063294Y-83195787D01*
X145073420Y-83179709D01*
X145089112Y-83160054D01*
X145107173Y-83140787D01*
X145109227Y-83138804D01*
X145132181Y-83119066D01*
X145151469Y-83108443D01*
X145169738Y-83106363D01*
X145189634Y-83112255D01*
G37*
G36*
X146539361Y-84968365D02*
G01*
X146554888Y-84977952D01*
X146569112Y-84990787D01*
X146594073Y-85020631D01*
X146607555Y-85049976D01*
X146609623Y-85078989D01*
X146607231Y-85090674D01*
X146599458Y-85116405D01*
X146592757Y-85133172D01*
X146585614Y-85143280D01*
X146576516Y-85149034D01*
X146566963Y-85152013D01*
X146534120Y-85157767D01*
X146497923Y-85160256D01*
X146464509Y-85159150D01*
X146455630Y-85158017D01*
X146436764Y-85154108D01*
X146421155Y-85149314D01*
X146417278Y-85147578D01*
X146406558Y-85139303D01*
X146392985Y-85125520D01*
X146378992Y-85109178D01*
X146367011Y-85093223D01*
X146359476Y-85080602D01*
X146358101Y-85075901D01*
X146363267Y-85065400D01*
X146378501Y-85050302D01*
X146403412Y-85030931D01*
X146437606Y-85007610D01*
X146452906Y-84997809D01*
X146482590Y-84980013D01*
X146505421Y-84969262D01*
X146523609Y-84965424D01*
X146539361Y-84968365D01*
G37*
G36*
X145320423Y-82670731D02*
G01*
X145345880Y-82685746D01*
X145362076Y-82701515D01*
X145370052Y-82711358D01*
X145375499Y-82720935D01*
X145378144Y-82731668D01*
X145377716Y-82744981D01*
X145373943Y-82762295D01*
X145366554Y-82785034D01*
X145355276Y-82814621D01*
X145339837Y-82852479D01*
X145327648Y-82881703D01*
X145312297Y-82917008D01*
X145299238Y-82943315D01*
X145287129Y-82962602D01*
X145274632Y-82976847D01*
X145260406Y-82988029D01*
X145252182Y-82993115D01*
X145218512Y-83007413D01*
X145186180Y-83010656D01*
X145168146Y-83007358D01*
X145151350Y-82999029D01*
X145132662Y-82984754D01*
X145114764Y-82967268D01*
X145100341Y-82949307D01*
X145092076Y-82933608D01*
X145091109Y-82928811D01*
X145090875Y-82902187D01*
X145094442Y-82878074D01*
X145102737Y-82854770D01*
X145116684Y-82830574D01*
X145137206Y-82803784D01*
X145165231Y-82772699D01*
X145189498Y-82747782D01*
X145212987Y-82724521D01*
X145234511Y-82703878D01*
X145252399Y-82687408D01*
X145264980Y-82676660D01*
X145269522Y-82673477D01*
X145294633Y-82666539D01*
X145320423Y-82670731D01*
G37*
G36*
X144638370Y-84294745D02*
G01*
X144665045Y-84297091D01*
X144695673Y-84298541D01*
X144731935Y-84299111D01*
X144775510Y-84298817D01*
X144828081Y-84297673D01*
X144858840Y-84296770D01*
X144891537Y-84295875D01*
X144914739Y-84295708D01*
X144930497Y-84296453D01*
X144940864Y-84298295D01*
X144947892Y-84301417D01*
X144952774Y-84305217D01*
X144961976Y-84318807D01*
X144964974Y-84331540D01*
X144960898Y-84351814D01*
X144949741Y-84376904D01*
X144933114Y-84403999D01*
X144912628Y-84430287D01*
X144901693Y-84441998D01*
X144860815Y-84475565D01*
X144815242Y-84498859D01*
X144764681Y-84511960D01*
X144708835Y-84514944D01*
X144649931Y-84508355D01*
X144602322Y-84496373D01*
X144563166Y-84479488D01*
X144533625Y-84458217D01*
X144530745Y-84455357D01*
X144519907Y-84443151D01*
X144514038Y-84432143D01*
X144511636Y-84417962D01*
X144511197Y-84398471D01*
X144511909Y-84376766D01*
X144514999Y-84361870D01*
X144521897Y-84349068D01*
X144528993Y-84339767D01*
X144545723Y-84323018D01*
X144565999Y-84307771D01*
X144572348Y-84304020D01*
X144587359Y-84296730D01*
X144600542Y-84293189D01*
X144616356Y-84292769D01*
X144638370Y-84294745D01*
G37*
G36*
X145160199Y-84517572D02*
G01*
X145200001Y-84524265D01*
X145235745Y-84534695D01*
X145265218Y-84548159D01*
X145286206Y-84563958D01*
X145291176Y-84569963D01*
X145298959Y-84589832D01*
X145298871Y-84612253D01*
X145291566Y-84630634D01*
X145273148Y-84662223D01*
X145259068Y-84696740D01*
X145251411Y-84729023D01*
X145251207Y-84730724D01*
X145247602Y-84760471D01*
X145244108Y-84781391D01*
X145239908Y-84796183D01*
X145234182Y-84807545D01*
X145226111Y-84818173D01*
X145223892Y-84820735D01*
X145200490Y-84840909D01*
X145168874Y-84859061D01*
X145131787Y-84874430D01*
X145091976Y-84886258D01*
X145052184Y-84893785D01*
X145015157Y-84896254D01*
X144983639Y-84892904D01*
X144973645Y-84889936D01*
X144956679Y-84882176D01*
X144944130Y-84871930D01*
X144934370Y-84856836D01*
X144925771Y-84834536D01*
X144918746Y-84810337D01*
X144909803Y-84763435D01*
X144909675Y-84719659D01*
X144918803Y-84677637D01*
X144937630Y-84636000D01*
X144966600Y-84593376D01*
X145001985Y-84552749D01*
X145019929Y-84536604D01*
X145039391Y-84525661D01*
X145063073Y-84519052D01*
X145093677Y-84515909D01*
X145118549Y-84515314D01*
X145160199Y-84517572D01*
G37*
G36*
X146994456Y-84899731D02*
G01*
X147008645Y-84903266D01*
X147026632Y-84910234D01*
X147051417Y-84921428D01*
X147056875Y-84923974D01*
X147086093Y-84937058D01*
X147109431Y-84945749D01*
X147131112Y-84951273D01*
X147155360Y-84954857D01*
X147167409Y-84956087D01*
X147201282Y-84960442D01*
X147226638Y-84967274D01*
X147246492Y-84978241D01*
X147263859Y-84995003D01*
X147281554Y-85018923D01*
X147299262Y-85050318D01*
X147306595Y-85076856D01*
X147303470Y-85098940D01*
X147289808Y-85116976D01*
X147265526Y-85131366D01*
X147258381Y-85134221D01*
X147206452Y-85151464D01*
X147156961Y-85163841D01*
X147112202Y-85170898D01*
X147074466Y-85172180D01*
X147069116Y-85171808D01*
X147033200Y-85167462D01*
X146993674Y-85160648D01*
X146952985Y-85151988D01*
X146913579Y-85142105D01*
X146877902Y-85131619D01*
X146848400Y-85121152D01*
X146827520Y-85111326D01*
X146825023Y-85109776D01*
X146807702Y-85093133D01*
X146800578Y-85072107D01*
X146803418Y-85045833D01*
X146805715Y-85038169D01*
X146825434Y-84994289D01*
X146852521Y-84957440D01*
X146885741Y-84928690D01*
X146923863Y-84909109D01*
X146965468Y-84899781D01*
X146981064Y-84898834D01*
X146994456Y-84899731D01*
G37*
G36*
X147336982Y-83518897D02*
G01*
X147357449Y-83524683D01*
X147382138Y-83532924D01*
X147407893Y-83542469D01*
X147431556Y-83552171D01*
X147449967Y-83560882D01*
X147457277Y-83565222D01*
X147470745Y-83577195D01*
X147481117Y-83593192D01*
X147489671Y-83615771D01*
X147497186Y-83645252D01*
X147502592Y-83673462D01*
X147504043Y-83692605D01*
X147501841Y-83704077D01*
X147492396Y-83715631D01*
X147474584Y-83729844D01*
X147450860Y-83745304D01*
X147423676Y-83760597D01*
X147395487Y-83774310D01*
X147368746Y-83785031D01*
X147352962Y-83789811D01*
X147319367Y-83796163D01*
X147278860Y-83800672D01*
X147234857Y-83803243D01*
X147190774Y-83803783D01*
X147150027Y-83802198D01*
X147116032Y-83798392D01*
X147106690Y-83796592D01*
X147073631Y-83787626D01*
X147051921Y-83777866D01*
X147041371Y-83767213D01*
X147040213Y-83761976D01*
X147042637Y-83751693D01*
X147048750Y-83736045D01*
X147052082Y-83728871D01*
X147060340Y-83711173D01*
X147070776Y-83687724D01*
X147081188Y-83663474D01*
X147081596Y-83662501D01*
X147091263Y-83641245D01*
X147101345Y-83624600D01*
X147113859Y-83610770D01*
X147130820Y-83597958D01*
X147154243Y-83584370D01*
X147186144Y-83568208D01*
X147188976Y-83566822D01*
X147236774Y-83544477D01*
X147275276Y-83528720D01*
X147304645Y-83519491D01*
X147323898Y-83516713D01*
X147336982Y-83518897D01*
G37*
G36*
X145799548Y-81192883D02*
G01*
X145831218Y-81201164D01*
X145839399Y-81203585D01*
X145866408Y-81211413D01*
X145891612Y-81218201D01*
X145911528Y-81223035D01*
X145919970Y-81224695D01*
X145942987Y-81233080D01*
X145957725Y-81248951D01*
X145963131Y-81270866D01*
X145962206Y-81282507D01*
X145958935Y-81302953D01*
X145955401Y-81326658D01*
X145954270Y-81334661D01*
X145951705Y-81348776D01*
X145947503Y-81362491D01*
X145940721Y-81377512D01*
X145930414Y-81395546D01*
X145915639Y-81418301D01*
X145895450Y-81447483D01*
X145879213Y-81470377D01*
X145825817Y-81543149D01*
X145776904Y-81605396D01*
X145732376Y-81657207D01*
X145692130Y-81698668D01*
X145656066Y-81729870D01*
X145624083Y-81750899D01*
X145596081Y-81761844D01*
X145571959Y-81762794D01*
X145553576Y-81755239D01*
X145539079Y-81742961D01*
X145525497Y-81727905D01*
X145525182Y-81727488D01*
X145514292Y-81714124D01*
X145498925Y-81696626D01*
X145484833Y-81681369D01*
X145455064Y-81646643D01*
X145435844Y-81615440D01*
X145427233Y-81586499D01*
X145429288Y-81558555D01*
X145442068Y-81530346D01*
X145465632Y-81500606D01*
X145494469Y-81472928D01*
X145537212Y-81434630D01*
X145571618Y-81402430D01*
X145598558Y-81375435D01*
X145618903Y-81352752D01*
X145633525Y-81333489D01*
X145638985Y-81324822D01*
X145652118Y-81302222D01*
X145667052Y-81276451D01*
X145676559Y-81260006D01*
X145698549Y-81229315D01*
X145724093Y-81206053D01*
X145751131Y-81191948D01*
X145760598Y-81189488D01*
X145776520Y-81189083D01*
X145799548Y-81192883D01*
G37*
G36*
X146972413Y-85437983D02*
G01*
X146988843Y-85443556D01*
X147009356Y-85451471D01*
X147013157Y-85453027D01*
X147034446Y-85460779D01*
X147063537Y-85469939D01*
X147096934Y-85479473D01*
X147131140Y-85488344D01*
X147138496Y-85490121D01*
X147186354Y-85502058D01*
X147224692Y-85512989D01*
X147255427Y-85523600D01*
X147280475Y-85534578D01*
X147301753Y-85546609D01*
X147308225Y-85550894D01*
X147341301Y-85571085D01*
X147382331Y-85591553D01*
X147432639Y-85612926D01*
X147467978Y-85626501D01*
X147519393Y-85646625D01*
X147559871Y-85664816D01*
X147589808Y-85681430D01*
X147609597Y-85696827D01*
X147619635Y-85711362D01*
X147620316Y-85725395D01*
X147612035Y-85739283D01*
X147602333Y-85748168D01*
X147582399Y-85756887D01*
X147553895Y-85758842D01*
X147517642Y-85754014D01*
X147502662Y-85750563D01*
X147481431Y-85746650D01*
X147450385Y-85742943D01*
X147411272Y-85739546D01*
X147365838Y-85736562D01*
X147315829Y-85734093D01*
X147262992Y-85732242D01*
X147209074Y-85731112D01*
X147166991Y-85730797D01*
X147121470Y-85730442D01*
X147085311Y-85729146D01*
X147056326Y-85726400D01*
X147032322Y-85721698D01*
X147011111Y-85714531D01*
X146990502Y-85704394D01*
X146968305Y-85690777D01*
X146954593Y-85681599D01*
X146929761Y-85665826D01*
X146903798Y-85651181D01*
X146881101Y-85640087D01*
X146874398Y-85637364D01*
X146854169Y-85629275D01*
X146836742Y-85621344D01*
X146828208Y-85616690D01*
X146814730Y-85601747D01*
X146806297Y-85580055D01*
X146803417Y-85555499D01*
X146806596Y-85531964D01*
X146814958Y-85514987D01*
X146824037Y-85507328D01*
X146840863Y-85496345D01*
X146862918Y-85483382D01*
X146887681Y-85469781D01*
X146912634Y-85456887D01*
X146935256Y-85446042D01*
X146953028Y-85438591D01*
X146963331Y-85435875D01*
X146972413Y-85437983D01*
G37*
G36*
X149609440Y-84245743D02*
G01*
X149614727Y-84247925D01*
X149620573Y-84252907D01*
X149627777Y-84261831D01*
X149637136Y-84275837D01*
X149649451Y-84296070D01*
X149665519Y-84323670D01*
X149686139Y-84359779D01*
X149695312Y-84375931D01*
X149715136Y-84411036D01*
X149732820Y-84442689D01*
X149747632Y-84469550D01*
X149758839Y-84490282D01*
X149765708Y-84503546D01*
X149767570Y-84508000D01*
X149761495Y-84508433D01*
X149744583Y-84508995D01*
X149717554Y-84509673D01*
X149681133Y-84510458D01*
X149636040Y-84511339D01*
X149582999Y-84512304D01*
X149522732Y-84513343D01*
X149455960Y-84514444D01*
X149383407Y-84515598D01*
X149305794Y-84516791D01*
X149223845Y-84518015D01*
X149138281Y-84519257D01*
X149049824Y-84520507D01*
X148959198Y-84521753D01*
X148867124Y-84522986D01*
X148774325Y-84524194D01*
X148681523Y-84525365D01*
X148589441Y-84526489D01*
X148498800Y-84527556D01*
X148421779Y-84528427D01*
X148334945Y-84529412D01*
X148243838Y-84530488D01*
X148150190Y-84531633D01*
X148055730Y-84532823D01*
X147962190Y-84534036D01*
X147871301Y-84535249D01*
X147784793Y-84536439D01*
X147704398Y-84537584D01*
X147631845Y-84538659D01*
X147568866Y-84539644D01*
X147560468Y-84539780D01*
X147484496Y-84540963D01*
X147399786Y-84542179D01*
X147309162Y-84543394D01*
X147215449Y-84544573D01*
X147121470Y-84545681D01*
X147030049Y-84546686D01*
X146944009Y-84547551D01*
X146866175Y-84548243D01*
X146863905Y-84548262D01*
X146511288Y-84551121D01*
X146730951Y-84528376D01*
X146790701Y-84522222D01*
X146858690Y-84515273D01*
X146931649Y-84507862D01*
X147006310Y-84500317D01*
X147079406Y-84492971D01*
X147147668Y-84486152D01*
X147187619Y-84482188D01*
X147336954Y-84467418D01*
X147476279Y-84453642D01*
X147607087Y-84440713D01*
X147730874Y-84428483D01*
X147849131Y-84416806D01*
X147963355Y-84405532D01*
X148075040Y-84394516D01*
X148185678Y-84383609D01*
X148296765Y-84372664D01*
X148409794Y-84361533D01*
X148526260Y-84350070D01*
X148534501Y-84349259D01*
X148630797Y-84339781D01*
X148716844Y-84331305D01*
X148793899Y-84323709D01*
X148863219Y-84316866D01*
X148926060Y-84310654D01*
X148983680Y-84304948D01*
X149037336Y-84299622D01*
X149088284Y-84294554D01*
X149137782Y-84289618D01*
X149179039Y-84285495D01*
X149260183Y-84277391D01*
X149330568Y-84270386D01*
X149390937Y-84264411D01*
X149442033Y-84259394D01*
X149484598Y-84255267D01*
X149519376Y-84251957D01*
X149547109Y-84249395D01*
X149568540Y-84247511D01*
X149584412Y-84246234D01*
X149595468Y-84245493D01*
X149602450Y-84245218D01*
X149603914Y-84245217D01*
X149609440Y-84245743D01*
G37*
G36*
X147599812Y-80804542D02*
G01*
X147607158Y-80813777D01*
X147617493Y-80829077D01*
X147631355Y-80851274D01*
X147649284Y-80881199D01*
X147671819Y-80919683D01*
X147695401Y-80960446D01*
X147718365Y-81000393D01*
X147739369Y-81037137D01*
X147757739Y-81069482D01*
X147772803Y-81096237D01*
X147783887Y-81116207D01*
X147790319Y-81128200D01*
X147791693Y-81131207D01*
X147787926Y-81136008D01*
X147777034Y-81148714D01*
X147759625Y-81168638D01*
X147736309Y-81195093D01*
X147707695Y-81227391D01*
X147674394Y-81264847D01*
X147637014Y-81306772D01*
X147596166Y-81352481D01*
X147552460Y-81401286D01*
X147512596Y-81445716D01*
X147479405Y-81482682D01*
X147439066Y-81527618D01*
X147392148Y-81579890D01*
X147339222Y-81638860D01*
X147280858Y-81703893D01*
X147217629Y-81774354D01*
X147150102Y-81849605D01*
X147078851Y-81929013D01*
X147004444Y-82011939D01*
X146927453Y-82097750D01*
X146848447Y-82185808D01*
X146767998Y-82275478D01*
X146686677Y-82366124D01*
X146605053Y-82457111D01*
X146523697Y-82547802D01*
X146471252Y-82606267D01*
X146395051Y-82691211D01*
X146320878Y-82773884D01*
X146249107Y-82853873D01*
X146180107Y-82930764D01*
X146114251Y-83004142D01*
X146051910Y-83073596D01*
X145993455Y-83138709D01*
X145939259Y-83199070D01*
X145889693Y-83254263D01*
X145845127Y-83303876D01*
X145805935Y-83347495D01*
X145772487Y-83384705D01*
X145745154Y-83415094D01*
X145724310Y-83438246D01*
X145710324Y-83453750D01*
X145703568Y-83461190D01*
X145702998Y-83461797D01*
X145701654Y-83461480D01*
X145705762Y-83453522D01*
X145707755Y-83450236D01*
X145712153Y-83443829D01*
X145722895Y-83428514D01*
X145739652Y-83404751D01*
X145762097Y-83373002D01*
X145789901Y-83333729D01*
X145822737Y-83287392D01*
X145860276Y-83234454D01*
X145902190Y-83175375D01*
X145948150Y-83110618D01*
X145997830Y-83040643D01*
X146050899Y-82965912D01*
X146107031Y-82886886D01*
X146165898Y-82804028D01*
X146227170Y-82717797D01*
X146290520Y-82628656D01*
X146355619Y-82537066D01*
X146422140Y-82443489D01*
X146489755Y-82348386D01*
X146558134Y-82252218D01*
X146626951Y-82155447D01*
X146695876Y-82058534D01*
X146764582Y-81961941D01*
X146832741Y-81866129D01*
X146900024Y-81771559D01*
X146966103Y-81678693D01*
X147030649Y-81587993D01*
X147093336Y-81499919D01*
X147153835Y-81414934D01*
X147211817Y-81333498D01*
X147266954Y-81256073D01*
X147318918Y-81183121D01*
X147367382Y-81115103D01*
X147412016Y-81052480D01*
X147452493Y-80995714D01*
X147488485Y-80945266D01*
X147519662Y-80901597D01*
X147545698Y-80865170D01*
X147566264Y-80836445D01*
X147581032Y-80815884D01*
X147589674Y-80803948D01*
X147591927Y-80800944D01*
X147594915Y-80800542D01*
X147599812Y-80804542D01*
G37*
G36*
X149132831Y-83416373D02*
G01*
X149137105Y-83422700D01*
X149146270Y-83437512D01*
X149159525Y-83459444D01*
X149176068Y-83487127D01*
X149195098Y-83519194D01*
X149215814Y-83554278D01*
X149237413Y-83591012D01*
X149259093Y-83628028D01*
X149280054Y-83663960D01*
X149299494Y-83697439D01*
X149316610Y-83727099D01*
X149330602Y-83751573D01*
X149340667Y-83769492D01*
X149346005Y-83779491D01*
X149346653Y-83781069D01*
X149341186Y-83783157D01*
X149325796Y-83786754D01*
X149301982Y-83791570D01*
X149271240Y-83797314D01*
X149235070Y-83803696D01*
X149197802Y-83809960D01*
X149167187Y-83814994D01*
X149126483Y-83821697D01*
X149077008Y-83829849D01*
X149020077Y-83839235D01*
X148957010Y-83849637D01*
X148889124Y-83860837D01*
X148817735Y-83872618D01*
X148744161Y-83884763D01*
X148669719Y-83897054D01*
X148612539Y-83906498D01*
X148535402Y-83919238D01*
X148455909Y-83932366D01*
X148375670Y-83945617D01*
X148296294Y-83958723D01*
X148219393Y-83971419D01*
X148146576Y-83983440D01*
X148079453Y-83994520D01*
X148019635Y-84004392D01*
X147968731Y-84012792D01*
X147945204Y-84016673D01*
X147897983Y-84024464D01*
X147841112Y-84033852D01*
X147776349Y-84044545D01*
X147705451Y-84056253D01*
X147630173Y-84068687D01*
X147552275Y-84081557D01*
X147473511Y-84094571D01*
X147395639Y-84107440D01*
X147320417Y-84119874D01*
X147312227Y-84121228D01*
X147238874Y-84133351D01*
X147163803Y-84145753D01*
X147088613Y-84158171D01*
X147014899Y-84170340D01*
X146944258Y-84181997D01*
X146878288Y-84192880D01*
X146818583Y-84202723D01*
X146766742Y-84211265D01*
X146724361Y-84218240D01*
X146716499Y-84219533D01*
X146662631Y-84228399D01*
X146600468Y-84238647D01*
X146533119Y-84249763D01*
X146463694Y-84261233D01*
X146395303Y-84272544D01*
X146331055Y-84283182D01*
X146297864Y-84288684D01*
X146238130Y-84298571D01*
X146188853Y-84306670D01*
X146149092Y-84313119D01*
X146117903Y-84318055D01*
X146094345Y-84321615D01*
X146077474Y-84323937D01*
X146066349Y-84325157D01*
X146060027Y-84325413D01*
X146057565Y-84324842D01*
X146057991Y-84323611D01*
X146063728Y-84321704D01*
X146079889Y-84316713D01*
X146105815Y-84308838D01*
X146140844Y-84298274D01*
X146184316Y-84285221D01*
X146235569Y-84269874D01*
X146293942Y-84252432D01*
X146358776Y-84233093D01*
X146429408Y-84212053D01*
X146505178Y-84189510D01*
X146585425Y-84165661D01*
X146669487Y-84140705D01*
X146756705Y-84114838D01*
X146765634Y-84112191D01*
X146859083Y-84084490D01*
X146953324Y-84056549D01*
X147047331Y-84028674D01*
X147140075Y-84001169D01*
X147230527Y-83974340D01*
X147317660Y-83948491D01*
X147400445Y-83923927D01*
X147477853Y-83900955D01*
X147548857Y-83879878D01*
X147612428Y-83861002D01*
X147667538Y-83844632D01*
X147713159Y-83831074D01*
X147733887Y-83824909D01*
X147789486Y-83808374D01*
X147843862Y-83792213D01*
X147895562Y-83776858D01*
X147943134Y-83762739D01*
X147985127Y-83750287D01*
X148020087Y-83739933D01*
X148046562Y-83732108D01*
X148060491Y-83728007D01*
X148075504Y-83723584D01*
X148100683Y-83716142D01*
X148135112Y-83705954D01*
X148177874Y-83693291D01*
X148228053Y-83678425D01*
X148284732Y-83661626D01*
X148346993Y-83643168D01*
X148413921Y-83623322D01*
X148484599Y-83602358D01*
X148558111Y-83580550D01*
X148626078Y-83560383D01*
X148699717Y-83538599D01*
X148770207Y-83517881D01*
X148836759Y-83498452D01*
X148898584Y-83480537D01*
X148954894Y-83464360D01*
X149004901Y-83450145D01*
X149047815Y-83438115D01*
X149082849Y-83428496D01*
X149109213Y-83421511D01*
X149126120Y-83417384D01*
X149132781Y-83416340D01*
X149132831Y-83416373D01*
G37*
G36*
X147984956Y-81455645D02*
G01*
X147994187Y-81470649D01*
X148007691Y-81493176D01*
X148024794Y-81522058D01*
X148044821Y-81556132D01*
X148067099Y-81594230D01*
X148090953Y-81635187D01*
X148115707Y-81677838D01*
X148140689Y-81721017D01*
X148165223Y-81763558D01*
X148188635Y-81804295D01*
X148210251Y-81842064D01*
X148229396Y-81875697D01*
X148245396Y-81904030D01*
X148257576Y-81925897D01*
X148265262Y-81940132D01*
X148267780Y-81945569D01*
X148267778Y-81945574D01*
X148263110Y-81949623D01*
X148249965Y-81960604D01*
X148228813Y-81978130D01*
X148200127Y-82001812D01*
X148164378Y-82031265D01*
X148122038Y-82066099D01*
X148073578Y-82105929D01*
X148019470Y-82150367D01*
X147960186Y-82199025D01*
X147896197Y-82251516D01*
X147827975Y-82307453D01*
X147755991Y-82366448D01*
X147680717Y-82428114D01*
X147602624Y-82492064D01*
X147536853Y-82545905D01*
X147442314Y-82623290D01*
X147356326Y-82693695D01*
X147278491Y-82757458D01*
X147208409Y-82814916D01*
X147145680Y-82866407D01*
X147089905Y-82912269D01*
X147040684Y-82952837D01*
X146997619Y-82988451D01*
X146960309Y-83019448D01*
X146928356Y-83046164D01*
X146901359Y-83068938D01*
X146878920Y-83088107D01*
X146860639Y-83104008D01*
X146846116Y-83116980D01*
X146834953Y-83127358D01*
X146826749Y-83135482D01*
X146821106Y-83141688D01*
X146817624Y-83146313D01*
X146815903Y-83149696D01*
X146815544Y-83152173D01*
X146816148Y-83154083D01*
X146816442Y-83154572D01*
X146826763Y-83165419D01*
X146842042Y-83176494D01*
X146845588Y-83178547D01*
X146860587Y-83187663D01*
X146867736Y-83196272D01*
X146868533Y-83208234D01*
X146864499Y-83227313D01*
X146860614Y-83239771D01*
X146854958Y-83248928D01*
X146845896Y-83255247D01*
X146831792Y-83259191D01*
X146811010Y-83261221D01*
X146781913Y-83261799D01*
X146743883Y-83261407D01*
X146664326Y-83260082D01*
X145975062Y-83824186D01*
X145876002Y-83905259D01*
X145785509Y-83979320D01*
X145703205Y-84046678D01*
X145628710Y-84107640D01*
X145561643Y-84162514D01*
X145501624Y-84211611D01*
X145448275Y-84255238D01*
X145401214Y-84293703D01*
X145360062Y-84327315D01*
X145324440Y-84356383D01*
X145293967Y-84381215D01*
X145268264Y-84402119D01*
X145246950Y-84419405D01*
X145229645Y-84433379D01*
X145215971Y-84444352D01*
X145205547Y-84452631D01*
X145197992Y-84458526D01*
X145192928Y-84462343D01*
X145189975Y-84464393D01*
X145188751Y-84464983D01*
X145188879Y-84464421D01*
X145189977Y-84463018D01*
X145191666Y-84461080D01*
X145193566Y-84458916D01*
X145193837Y-84458602D01*
X145200140Y-84451581D01*
X145213778Y-84436639D01*
X145234230Y-84414340D01*
X145260978Y-84385246D01*
X145293502Y-84349920D01*
X145331282Y-84308926D01*
X145373799Y-84262826D01*
X145420532Y-84212184D01*
X145470963Y-84157562D01*
X145524572Y-84099524D01*
X145580839Y-84038633D01*
X145639244Y-83975451D01*
X145699269Y-83910542D01*
X145760394Y-83844469D01*
X145817630Y-83782621D01*
X145839560Y-83758927D01*
X145868824Y-83727304D01*
X145904908Y-83688311D01*
X145947293Y-83642506D01*
X145995465Y-83590446D01*
X146048906Y-83532689D01*
X146107101Y-83469794D01*
X146169533Y-83402319D01*
X146235685Y-83330821D01*
X146305043Y-83255859D01*
X146377088Y-83177991D01*
X146451306Y-83097774D01*
X146527179Y-83015767D01*
X146604191Y-82932527D01*
X146681827Y-82848613D01*
X146710835Y-82817259D01*
X146786865Y-82735079D01*
X146861473Y-82654438D01*
X146934218Y-82575813D01*
X147004660Y-82499677D01*
X147072358Y-82426508D01*
X147136874Y-82356780D01*
X147197766Y-82290969D01*
X147254596Y-82229550D01*
X147306922Y-82172999D01*
X147354306Y-82121791D01*
X147396307Y-82076403D01*
X147432485Y-82037308D01*
X147462400Y-82004983D01*
X147485613Y-81979904D01*
X147501683Y-81962545D01*
X147507793Y-81955948D01*
X147526556Y-81935685D01*
X147552025Y-81908163D01*
X147583060Y-81874615D01*
X147618522Y-81836275D01*
X147657269Y-81794374D01*
X147698163Y-81750145D01*
X147740063Y-81704822D01*
X147779220Y-81662457D01*
X147817962Y-81620633D01*
X147854305Y-81581575D01*
X147887505Y-81546073D01*
X147916815Y-81514917D01*
X147941490Y-81488895D01*
X147960784Y-81468796D01*
X147973951Y-81455410D01*
X147980244Y-81449525D01*
X147980672Y-81449328D01*
X147984956Y-81455645D01*
G37*
G36*
X148506070Y-82357377D02*
G01*
X148516640Y-82371682D01*
X148532093Y-82394989D01*
X148552073Y-82426739D01*
X148576222Y-82466375D01*
X148604182Y-82513339D01*
X148607844Y-82519558D01*
X148631427Y-82559778D01*
X148653145Y-82597090D01*
X148672294Y-82630260D01*
X148688165Y-82658052D01*
X148700055Y-82679234D01*
X148707255Y-82692570D01*
X148709130Y-82696585D01*
X148709625Y-82697691D01*
X148710139Y-82698678D01*
X148710260Y-82699761D01*
X148709576Y-82701155D01*
X148707675Y-82703072D01*
X148704145Y-82705729D01*
X148698576Y-82709339D01*
X148690554Y-82714116D01*
X148679669Y-82720276D01*
X148665508Y-82728031D01*
X148647660Y-82737597D01*
X148625713Y-82749188D01*
X148599255Y-82763018D01*
X148567875Y-82779302D01*
X148531160Y-82798254D01*
X148488699Y-82820088D01*
X148440081Y-82845018D01*
X148384893Y-82873260D01*
X148322723Y-82905026D01*
X148253161Y-82940533D01*
X148175794Y-82979993D01*
X148090210Y-83023622D01*
X147995997Y-83071633D01*
X147892745Y-83124241D01*
X147780041Y-83181661D01*
X147657473Y-83244106D01*
X147650068Y-83247879D01*
X147560555Y-83293487D01*
X147472192Y-83338512D01*
X147385702Y-83382587D01*
X147301804Y-83425344D01*
X147221219Y-83466416D01*
X147144669Y-83505435D01*
X147072874Y-83542034D01*
X147006555Y-83575845D01*
X146946433Y-83606501D01*
X146893228Y-83633635D01*
X146847662Y-83656878D01*
X146810456Y-83675864D01*
X146782330Y-83690224D01*
X146768525Y-83697280D01*
X146722859Y-83720635D01*
X146672110Y-83746590D01*
X146619818Y-83773335D01*
X146569521Y-83799060D01*
X146524761Y-83821953D01*
X146511288Y-83828845D01*
X146477396Y-83846155D01*
X146435310Y-83867611D01*
X146387149Y-83892135D01*
X146335032Y-83918649D01*
X146281078Y-83946074D01*
X146227406Y-83973332D01*
X146181793Y-83996477D01*
X146133570Y-84020969D01*
X146086147Y-84045119D01*
X146041075Y-84068133D01*
X145999905Y-84089217D01*
X145964186Y-84107577D01*
X145935471Y-84122417D01*
X145915309Y-84132945D01*
X145913289Y-84134012D01*
X145852888Y-84166004D01*
X145872825Y-84180782D01*
X145896568Y-84200156D01*
X145917014Y-84220164D01*
X145932364Y-84238759D01*
X145940818Y-84253893D01*
X145941897Y-84259352D01*
X145939370Y-84269530D01*
X145930095Y-84277836D01*
X145916622Y-84284612D01*
X145896357Y-84295725D01*
X145875506Y-84310343D01*
X145868932Y-84315842D01*
X145844849Y-84335205D01*
X145823928Y-84345900D01*
X145802744Y-84348759D01*
X145777877Y-84344617D01*
X145765589Y-84341015D01*
X145733258Y-84328426D01*
X145704859Y-84312977D01*
X145684018Y-84296666D01*
X145682732Y-84295326D01*
X145667704Y-84271656D01*
X145662391Y-84245227D01*
X145666026Y-84218158D01*
X145677844Y-84192568D01*
X145697078Y-84170576D01*
X145722961Y-84154301D01*
X145735389Y-84149752D01*
X145770670Y-84142414D01*
X145802237Y-84141934D01*
X145822530Y-84146470D01*
X145827919Y-84147587D01*
X145834757Y-84146618D01*
X145844276Y-84142870D01*
X145857708Y-84135650D01*
X145876284Y-84124266D01*
X145901236Y-84108025D01*
X145933794Y-84086234D01*
X145954415Y-84072293D01*
X145972082Y-84060327D01*
X145998733Y-84042276D01*
X146033780Y-84018541D01*
X146076634Y-83989520D01*
X146126706Y-83955610D01*
X146183408Y-83917212D01*
X146246152Y-83874722D01*
X146314348Y-83828541D01*
X146387408Y-83779067D01*
X146464744Y-83726697D01*
X146545766Y-83671832D01*
X146629887Y-83614869D01*
X146716517Y-83556207D01*
X146805068Y-83496245D01*
X146889917Y-83438789D01*
X146978864Y-83378557D01*
X147065922Y-83319601D01*
X147150545Y-83262290D01*
X147232185Y-83206996D01*
X147310296Y-83154089D01*
X147384331Y-83103940D01*
X147453741Y-83056920D01*
X147517979Y-83013399D01*
X147576500Y-82973748D01*
X147628755Y-82938337D01*
X147674197Y-82907539D01*
X147712278Y-82881722D01*
X147742453Y-82861259D01*
X147764173Y-82846519D01*
X147776891Y-82837873D01*
X147777241Y-82837635D01*
X147850056Y-82788060D01*
X147922121Y-82739099D01*
X147992800Y-82691177D01*
X148061454Y-82644722D01*
X148127448Y-82600162D01*
X148190142Y-82557923D01*
X148248902Y-82518433D01*
X148303088Y-82482119D01*
X148352065Y-82449407D01*
X148395195Y-82420726D01*
X148431840Y-82396502D01*
X148461364Y-82377162D01*
X148483129Y-82363134D01*
X148496498Y-82354844D01*
X148500741Y-82352629D01*
X148506070Y-82357377D01*
G37*
G36*
X145772317Y-84691201D02*
G01*
X145838922Y-84691295D01*
X145911510Y-84691465D01*
X145989383Y-84691710D01*
X146071843Y-84692030D01*
X146158194Y-84692426D01*
X146230928Y-84692803D01*
X146302569Y-84693182D01*
X146384925Y-84693595D01*
X146477153Y-84694038D01*
X146578406Y-84694509D01*
X146687840Y-84695003D01*
X146804609Y-84695518D01*
X146927869Y-84696049D01*
X147056774Y-84696593D01*
X147190479Y-84697148D01*
X147328138Y-84697708D01*
X147468908Y-84698271D01*
X147611942Y-84698834D01*
X147756396Y-84699392D01*
X147901424Y-84699943D01*
X148046181Y-84700482D01*
X148189822Y-84701007D01*
X148331503Y-84701514D01*
X148409445Y-84701787D01*
X148539281Y-84702247D01*
X148666074Y-84702709D01*
X148789339Y-84703171D01*
X148908591Y-84703630D01*
X149023346Y-84704086D01*
X149133117Y-84704535D01*
X149237421Y-84704975D01*
X149335773Y-84705403D01*
X149427687Y-84705819D01*
X149512678Y-84706218D01*
X149590262Y-84706600D01*
X149659953Y-84706961D01*
X149721267Y-84707300D01*
X149773719Y-84707614D01*
X149816823Y-84707902D01*
X149850096Y-84708160D01*
X149873051Y-84708386D01*
X149885204Y-84708579D01*
X149887111Y-84708672D01*
X149890517Y-84714165D01*
X149898999Y-84728371D01*
X149911851Y-84750083D01*
X149928367Y-84778096D01*
X149947842Y-84811203D01*
X149969567Y-84848197D01*
X149992838Y-84887872D01*
X150016948Y-84929023D01*
X150041191Y-84970442D01*
X150064861Y-85010923D01*
X150087251Y-85049261D01*
X150107655Y-85084249D01*
X150125367Y-85114680D01*
X150139680Y-85139348D01*
X150149889Y-85157047D01*
X150155287Y-85166571D01*
X150155962Y-85167886D01*
X150151004Y-85169169D01*
X150139255Y-85169212D01*
X150125397Y-85168171D01*
X150115498Y-85166557D01*
X150107320Y-85165379D01*
X150089501Y-85163289D01*
X150063910Y-85160488D01*
X150032411Y-85157180D01*
X149996873Y-85153569D01*
X149988324Y-85152716D01*
X149958253Y-85149725D01*
X149929344Y-85146838D01*
X149900348Y-85143929D01*
X149870012Y-85140869D01*
X149837083Y-85137531D01*
X149800310Y-85133789D01*
X149758441Y-85129514D01*
X149710224Y-85124578D01*
X149654407Y-85118856D01*
X149589738Y-85112218D01*
X149514964Y-85104538D01*
X149505643Y-85103581D01*
X149457613Y-85098647D01*
X149405707Y-85093317D01*
X149353495Y-85087958D01*
X149304542Y-85082934D01*
X149262417Y-85078614D01*
X149251297Y-85077473D01*
X149207179Y-85072950D01*
X149156338Y-85067737D01*
X149103554Y-85062324D01*
X149053604Y-85057201D01*
X149025853Y-85054355D01*
X148979946Y-85049646D01*
X148928043Y-85044323D01*
X148874978Y-85038880D01*
X148825587Y-85033815D01*
X148798964Y-85031084D01*
X148753965Y-85026469D01*
X148702385Y-85021179D01*
X148649146Y-85015718D01*
X148599167Y-85010592D01*
X148573520Y-85007962D01*
X148441625Y-84994434D01*
X148306335Y-84980558D01*
X148173847Y-84966969D01*
X148122633Y-84961717D01*
X147993028Y-84948424D01*
X147858122Y-84934588D01*
X147724113Y-84920843D01*
X147671745Y-84915472D01*
X147626108Y-84910791D01*
X147574513Y-84905499D01*
X147521821Y-84900095D01*
X147472895Y-84895077D01*
X147447746Y-84892498D01*
X147403630Y-84887971D01*
X147352791Y-84882750D01*
X147300007Y-84877325D01*
X147250058Y-84872189D01*
X147222303Y-84869333D01*
X147150417Y-84861936D01*
X147087223Y-84855439D01*
X147029910Y-84849555D01*
X146975671Y-84843996D01*
X146921696Y-84838473D01*
X146865177Y-84832699D01*
X146803303Y-84826387D01*
X146803208Y-84826377D01*
X146764251Y-84822402D01*
X146726973Y-84818595D01*
X146689898Y-84814803D01*
X146651551Y-84810876D01*
X146610457Y-84806661D01*
X146565141Y-84802007D01*
X146514126Y-84796764D01*
X146455939Y-84790780D01*
X146389103Y-84783902D01*
X146317637Y-84776546D01*
X146245397Y-84769112D01*
X146181752Y-84762570D01*
X146123798Y-84756620D01*
X146068631Y-84750967D01*
X146013346Y-84745311D01*
X145955038Y-84739356D01*
X145901433Y-84733888D01*
X145826994Y-84726288D01*
X145763236Y-84719753D01*
X145709338Y-84714193D01*
X145664478Y-84709516D01*
X145627835Y-84705629D01*
X145598587Y-84702441D01*
X145575911Y-84699860D01*
X145558988Y-84697795D01*
X145546995Y-84696154D01*
X145539109Y-84694844D01*
X145534511Y-84693776D01*
X145532378Y-84692855D01*
X145532160Y-84692666D01*
X145537364Y-84692228D01*
X145553431Y-84691867D01*
X145579665Y-84691582D01*
X145615368Y-84691372D01*
X145659842Y-84691239D01*
X145712391Y-84691182D01*
X145772317Y-84691201D01*
G37*
G36*
X145626811Y-79217726D02*
G01*
X145623885Y-79234447D01*
X145619026Y-79261793D01*
X145612304Y-79299388D01*
X145603785Y-79346859D01*
X145593538Y-79403830D01*
X145581630Y-79469927D01*
X145568130Y-79544774D01*
X145553104Y-79627997D01*
X145536622Y-79719220D01*
X145518750Y-79818069D01*
X145499556Y-79924169D01*
X145479109Y-80037144D01*
X145457477Y-80156621D01*
X145434726Y-80282224D01*
X145410925Y-80413578D01*
X145386142Y-80550308D01*
X145360445Y-80692040D01*
X145333901Y-80838398D01*
X145306578Y-80989008D01*
X145278544Y-81143494D01*
X145249867Y-81301482D01*
X145220614Y-81462597D01*
X145202376Y-81563030D01*
X145172736Y-81726299D01*
X145143614Y-81886856D01*
X145115077Y-82044319D01*
X145087194Y-82198302D01*
X145060036Y-82348423D01*
X145033669Y-82494298D01*
X145008164Y-82635542D01*
X144983589Y-82771772D01*
X144960013Y-82902603D01*
X144937504Y-83027653D01*
X144916133Y-83146537D01*
X144895967Y-83258871D01*
X144877076Y-83364272D01*
X144859528Y-83462355D01*
X144843392Y-83552737D01*
X144828738Y-83635034D01*
X144815634Y-83708862D01*
X144804148Y-83773838D01*
X144794350Y-83829576D01*
X144786309Y-83875694D01*
X144780094Y-83911808D01*
X144775773Y-83937534D01*
X144773415Y-83952487D01*
X144772976Y-83956039D01*
X144767211Y-83997636D01*
X144755770Y-84031328D01*
X144739095Y-84056064D01*
X144726917Y-84066069D01*
X144713939Y-84072838D01*
X144700377Y-84075779D01*
X144681805Y-84075573D01*
X144671100Y-84074681D01*
X144651000Y-84073292D01*
X144636131Y-84074426D01*
X144621836Y-84079163D01*
X144603453Y-84088585D01*
X144597903Y-84091670D01*
X144577563Y-84101912D01*
X144559132Y-84109247D01*
X144546541Y-84112115D01*
X144546386Y-84112116D01*
X144537845Y-84113514D01*
X144533029Y-84118975D01*
X144531631Y-84130400D01*
X144533342Y-84149689D01*
X144536717Y-84171894D01*
X144541317Y-84199878D01*
X144512731Y-84222474D01*
X144497257Y-84234238D01*
X144485377Y-84242411D01*
X144480129Y-84245070D01*
X144476031Y-84240516D01*
X144465950Y-84227496D01*
X144450595Y-84206976D01*
X144430671Y-84179917D01*
X144406888Y-84147286D01*
X144379950Y-84110044D01*
X144350567Y-84069157D01*
X144331797Y-84042911D01*
X144301297Y-84000281D01*
X144272849Y-83960702D01*
X144247155Y-83925139D01*
X144224918Y-83894556D01*
X144206842Y-83869916D01*
X144193628Y-83852185D01*
X144185980Y-83842326D01*
X144184348Y-83840590D01*
X144180153Y-83845130D01*
X144171897Y-83857292D01*
X144161216Y-83874639D01*
X144159020Y-83878366D01*
X144139304Y-83908049D01*
X144120454Y-83926966D01*
X144101048Y-83935680D01*
X144079665Y-83934757D01*
X144054882Y-83924762D01*
X144049601Y-83921844D01*
X144035952Y-83913833D01*
X144026251Y-83906591D01*
X144019530Y-83897932D01*
X144014822Y-83885673D01*
X144011160Y-83867628D01*
X144007577Y-83841613D01*
X144005058Y-83821228D01*
X144000912Y-83773836D01*
X144001486Y-83734042D01*
X144007046Y-83698776D01*
X144017860Y-83664968D01*
X144018858Y-83662485D01*
X144033639Y-83626169D01*
X143997336Y-83575776D01*
X143948883Y-83508444D01*
X143900514Y-83441092D01*
X143852699Y-83374378D01*
X143805904Y-83308962D01*
X143760598Y-83245504D01*
X143717248Y-83184665D01*
X143676321Y-83127102D01*
X143638286Y-83073476D01*
X143603610Y-83024447D01*
X143572761Y-82980674D01*
X143546206Y-82942817D01*
X143524414Y-82911535D01*
X143507851Y-82887489D01*
X143496986Y-82871337D01*
X143492286Y-82863739D01*
X143492131Y-82863248D01*
X143495864Y-82855861D01*
X143504351Y-82840448D01*
X143516687Y-82818568D01*
X143531966Y-82791783D01*
X143549282Y-82761651D01*
X143567730Y-82729733D01*
X143586405Y-82697590D01*
X143604402Y-82666780D01*
X143620814Y-82638866D01*
X143634737Y-82615406D01*
X143645264Y-82597960D01*
X143651491Y-82588090D01*
X143652776Y-82586450D01*
X143656093Y-82591360D01*
X143664164Y-82605285D01*
X143676327Y-82627025D01*
X143691921Y-82655382D01*
X143710284Y-82689155D01*
X143730755Y-82727145D01*
X143744295Y-82752439D01*
X143776005Y-82811780D01*
X143810288Y-82875859D01*
X143846791Y-82944020D01*
X143885161Y-83015606D01*
X143925044Y-83089961D01*
X143966087Y-83166429D01*
X144007937Y-83244354D01*
X144050240Y-83323080D01*
X144092643Y-83401951D01*
X144134793Y-83480309D01*
X144176335Y-83557501D01*
X144216917Y-83632868D01*
X144256185Y-83705755D01*
X144293787Y-83775506D01*
X144329367Y-83841465D01*
X144362574Y-83902974D01*
X144393054Y-83959380D01*
X144420453Y-84010024D01*
X144444417Y-84054251D01*
X144464595Y-84091405D01*
X144480631Y-84120830D01*
X144492174Y-84141869D01*
X144498869Y-84153867D01*
X144500495Y-84156537D01*
X144499345Y-84150836D01*
X144495564Y-84134727D01*
X144489353Y-84109013D01*
X144480910Y-84074497D01*
X144470433Y-84031982D01*
X144458122Y-83982269D01*
X144444174Y-83926163D01*
X144428790Y-83864464D01*
X144412167Y-83797976D01*
X144394504Y-83727501D01*
X144377799Y-83661000D01*
X144339519Y-83508722D01*
X144302692Y-83362157D01*
X144267399Y-83221622D01*
X144233718Y-83087429D01*
X144201726Y-82959892D01*
X144171503Y-82839327D01*
X144143127Y-82726046D01*
X144116677Y-82620364D01*
X144092230Y-82522595D01*
X144069866Y-82433053D01*
X144049662Y-82352053D01*
X144031698Y-82279907D01*
X144016052Y-82216931D01*
X144002802Y-82163438D01*
X143992026Y-82119742D01*
X143983804Y-82086158D01*
X143978214Y-82063000D01*
X143975333Y-82050581D01*
X143974934Y-82048500D01*
X143977581Y-82041454D01*
X143985376Y-82025761D01*
X143997601Y-82002738D01*
X144013540Y-81973701D01*
X144032478Y-81939969D01*
X144053699Y-81902858D01*
X144060661Y-81890817D01*
X144087118Y-81845522D01*
X144108438Y-81809808D01*
X144124998Y-81783097D01*
X144137178Y-81764807D01*
X144145352Y-81754359D01*
X144149900Y-81751172D01*
X144150917Y-81752082D01*
X144153076Y-81761036D01*
X144156556Y-81779275D01*
X144160977Y-81804646D01*
X144165961Y-81834999D01*
X144169522Y-81857678D01*
X144172890Y-81879321D01*
X144177957Y-81911617D01*
X144184604Y-81953801D01*
X144192708Y-82005109D01*
X144202149Y-82064777D01*
X144212804Y-82132041D01*
X144224553Y-82206136D01*
X144237274Y-82286299D01*
X144250845Y-82371764D01*
X144265146Y-82461768D01*
X144280054Y-82555547D01*
X144295448Y-82652336D01*
X144311207Y-82751371D01*
X144327210Y-82851888D01*
X144343335Y-82953123D01*
X144359460Y-83054311D01*
X144375465Y-83154688D01*
X144391227Y-83253491D01*
X144404024Y-83333658D01*
X144414093Y-83396484D01*
X144423689Y-83455884D01*
X144432647Y-83510883D01*
X144440806Y-83560504D01*
X144448002Y-83603769D01*
X144454073Y-83639703D01*
X144458857Y-83667328D01*
X144462191Y-83685667D01*
X144463911Y-83693745D01*
X144464039Y-83694036D01*
X144472061Y-83694978D01*
X144486807Y-83691605D01*
X144504895Y-83685212D01*
X144522939Y-83677091D01*
X144537554Y-83668538D01*
X144543257Y-83663750D01*
X144568814Y-83643141D01*
X144597372Y-83633359D01*
X144611694Y-83632325D01*
X144633753Y-83634154D01*
X144654929Y-83640516D01*
X144678770Y-83652727D01*
X144696176Y-83663635D01*
X144714821Y-83674702D01*
X144734920Y-83684880D01*
X144752857Y-83692495D01*
X144765014Y-83695871D01*
X144765887Y-83695912D01*
X144767051Y-83690394D01*
X144768645Y-83674869D01*
X144770584Y-83650881D01*
X144772782Y-83619970D01*
X144775154Y-83583682D01*
X144777614Y-83543557D01*
X144780078Y-83501140D01*
X144782460Y-83457973D01*
X144784674Y-83415598D01*
X144786636Y-83375559D01*
X144788259Y-83339398D01*
X144789459Y-83308658D01*
X144790150Y-83284882D01*
X144790247Y-83269613D01*
X144789758Y-83264422D01*
X144783263Y-83263347D01*
X144767491Y-83262380D01*
X144744727Y-83261619D01*
X144717257Y-83261165D01*
X144713849Y-83261136D01*
X144640674Y-83260584D01*
X144607751Y-83222456D01*
X144588612Y-83200585D01*
X144565493Y-83174596D01*
X144542280Y-83148847D01*
X144533310Y-83139012D01*
X144508690Y-83111124D01*
X144491614Y-83088738D01*
X144481013Y-83069639D01*
X144475822Y-83051612D01*
X144474972Y-83032445D01*
X144476025Y-83020139D01*
X144487263Y-82962922D01*
X144507157Y-82912207D01*
X144531860Y-82872175D01*
X144555891Y-82837776D01*
X144573829Y-82807521D01*
X144587041Y-82778007D01*
X144596892Y-82745833D01*
X144604748Y-82707595D01*
X144609184Y-82679566D01*
X144616240Y-82639407D01*
X144624765Y-82608110D01*
X144635861Y-82582979D01*
X144650626Y-82561321D01*
X144663140Y-82547389D01*
X144692186Y-82525536D01*
X144726118Y-82513211D01*
X144762679Y-82510849D01*
X144799612Y-82518888D01*
X144803240Y-82520281D01*
X144817909Y-82525530D01*
X144827342Y-82527740D01*
X144828826Y-82527507D01*
X144829755Y-82521344D01*
X144831138Y-82505382D01*
X144832853Y-82481368D01*
X144834775Y-82451053D01*
X144836784Y-82416182D01*
X144837292Y-82406836D01*
X144839408Y-82368140D01*
X144841524Y-82330772D01*
X144843491Y-82297241D01*
X144845164Y-82270052D01*
X144846393Y-82251713D01*
X144846464Y-82250759D01*
X144847584Y-82233615D01*
X144849101Y-82207285D01*
X144850886Y-82174132D01*
X144852815Y-82136518D01*
X144854761Y-82096807D01*
X144855273Y-82086012D01*
X144857459Y-82040829D01*
X144859907Y-81992121D01*
X144862423Y-81943678D01*
X144864809Y-81899291D01*
X144866826Y-81863458D01*
X144868622Y-81831749D01*
X144870845Y-81791150D01*
X144873351Y-81744320D01*
X144876002Y-81693918D01*
X144878655Y-81642602D01*
X144881088Y-81594660D01*
X144883425Y-81548758D01*
X144885734Y-81504605D01*
X144887911Y-81464085D01*
X144889853Y-81429083D01*
X144891458Y-81401481D01*
X144892621Y-81383166D01*
X144892793Y-81380777D01*
X144893839Y-81364638D01*
X144895330Y-81338811D01*
X144897166Y-81305157D01*
X144899249Y-81265537D01*
X144901480Y-81221810D01*
X144903759Y-81175838D01*
X144904335Y-81164005D01*
X144906605Y-81117941D01*
X144908851Y-81073812D01*
X144910973Y-81033445D01*
X144912873Y-80998664D01*
X144914454Y-80971295D01*
X144915617Y-80953162D01*
X144915844Y-80950122D01*
X144916871Y-80934839D01*
X144918341Y-80909810D01*
X144920157Y-80876839D01*
X144922223Y-80837729D01*
X144924442Y-80794284D01*
X144926718Y-80748306D01*
X144927443Y-80733349D01*
X144931115Y-80658436D01*
X144934415Y-80594218D01*
X144937413Y-80539839D01*
X144940177Y-80494443D01*
X144942778Y-80457171D01*
X144945285Y-80427167D01*
X144947767Y-80403574D01*
X144950295Y-80385535D01*
X144952938Y-80372193D01*
X144955765Y-80362692D01*
X144957946Y-80357764D01*
X144963004Y-80348709D01*
X144973271Y-80330775D01*
X144988304Y-80304721D01*
X145007659Y-80271307D01*
X145030891Y-80231293D01*
X145057556Y-80185439D01*
X145087209Y-80134505D01*
X145119407Y-80079251D01*
X145153706Y-80020436D01*
X145189660Y-79958821D01*
X145226827Y-79895165D01*
X145264761Y-79830228D01*
X145303018Y-79764771D01*
X145341155Y-79699553D01*
X145378727Y-79635333D01*
X145415289Y-79572873D01*
X145450398Y-79512931D01*
X145483610Y-79456267D01*
X145514480Y-79403642D01*
X145542563Y-79355816D01*
X145567416Y-79313547D01*
X145588595Y-79277597D01*
X145605655Y-79248725D01*
X145618152Y-79227691D01*
X145625642Y-79215254D01*
X145627738Y-79212006D01*
X145626811Y-79217726D01*
G37*
G36*
X146859593Y-79540793D02*
G01*
X146868688Y-79551968D01*
X146881337Y-79569777D01*
X146896335Y-79592587D01*
X146901420Y-79600651D01*
X146918270Y-79627921D01*
X146929672Y-79647439D01*
X146936458Y-79661161D01*
X146939455Y-79671045D01*
X146939494Y-79679047D01*
X146937692Y-79686233D01*
X146934994Y-79693937D01*
X146928597Y-79711809D01*
X146918751Y-79739152D01*
X146905711Y-79775270D01*
X146889727Y-79819466D01*
X146871053Y-79871043D01*
X146849942Y-79929305D01*
X146826644Y-79993554D01*
X146801414Y-80063095D01*
X146774502Y-80137231D01*
X146746162Y-80215264D01*
X146716647Y-80296499D01*
X146699875Y-80342643D01*
X146669966Y-80424974D01*
X146641206Y-80504245D01*
X146613838Y-80579782D01*
X146588103Y-80650914D01*
X146564244Y-80716966D01*
X146542503Y-80777266D01*
X146523122Y-80831140D01*
X146506345Y-80877915D01*
X146492412Y-80916918D01*
X146481566Y-80947476D01*
X146474050Y-80968916D01*
X146470106Y-80980564D01*
X146469553Y-80982572D01*
X146472422Y-80978138D01*
X146479432Y-80964790D01*
X146489809Y-80944076D01*
X146502778Y-80917545D01*
X146517565Y-80886748D01*
X146519859Y-80881926D01*
X146539279Y-80841099D01*
X146561126Y-80795243D01*
X146583339Y-80748681D01*
X146603856Y-80705738D01*
X146614155Y-80684214D01*
X146631171Y-80648666D01*
X146651519Y-80606133D01*
X146673551Y-80560061D01*
X146695618Y-80513900D01*
X146716071Y-80471095D01*
X146717817Y-80467441D01*
X146737899Y-80425405D01*
X146759614Y-80379961D01*
X146781351Y-80334476D01*
X146801502Y-80292321D01*
X146818455Y-80256863D01*
X146820035Y-80253558D01*
X146834116Y-80224109D01*
X146852077Y-80186533D01*
X146872817Y-80143135D01*
X146895234Y-80096220D01*
X146918228Y-80048094D01*
X146940696Y-80001061D01*
X146945015Y-79992020D01*
X146964628Y-79951177D01*
X146982739Y-79913885D01*
X146998732Y-79881373D01*
X147011995Y-79854874D01*
X147021915Y-79835616D01*
X147027878Y-79824830D01*
X147029309Y-79822937D01*
X147032904Y-79827760D01*
X147041585Y-79841505D01*
X147054687Y-79863062D01*
X147071550Y-79891321D01*
X147091511Y-79925172D01*
X147113908Y-79963506D01*
X147138079Y-80005212D01*
X147138787Y-80006437D01*
X147163255Y-80048800D01*
X147186133Y-80088355D01*
X147206723Y-80123895D01*
X147224324Y-80154218D01*
X147238239Y-80178118D01*
X147247767Y-80194390D01*
X147252180Y-80201785D01*
X147252894Y-80204191D01*
X147252536Y-80208095D01*
X147250821Y-80214010D01*
X147247466Y-80222453D01*
X147242187Y-80233937D01*
X147234698Y-80248979D01*
X147224717Y-80268094D01*
X147211959Y-80291796D01*
X147196140Y-80320600D01*
X147176977Y-80355023D01*
X147154184Y-80395578D01*
X147127479Y-80442780D01*
X147096576Y-80497146D01*
X147061192Y-80559189D01*
X147021043Y-80629426D01*
X146975844Y-80708371D01*
X146925312Y-80796539D01*
X146895581Y-80848386D01*
X146850304Y-80927361D01*
X146806650Y-81003565D01*
X146764960Y-81076397D01*
X146725578Y-81145254D01*
X146688846Y-81209536D01*
X146655108Y-81268643D01*
X146624705Y-81321971D01*
X146597981Y-81368921D01*
X146575278Y-81408891D01*
X146556938Y-81441280D01*
X146543306Y-81465487D01*
X146534723Y-81480911D01*
X146531532Y-81486950D01*
X146531520Y-81487004D01*
X146536809Y-81488601D01*
X146550768Y-81489278D01*
X146570533Y-81488912D01*
X146573429Y-81488779D01*
X146602364Y-81488537D01*
X146634087Y-81490029D01*
X146655630Y-81492185D01*
X146680940Y-81494453D01*
X146702782Y-81494312D01*
X146714050Y-81492640D01*
X146725436Y-81486965D01*
X146742969Y-81475234D01*
X146764244Y-81459170D01*
X146786481Y-81440816D01*
X146819258Y-81413121D01*
X146845190Y-81392946D01*
X146865730Y-81379764D01*
X146882335Y-81373051D01*
X146896462Y-81372281D01*
X146909564Y-81376926D01*
X146923100Y-81386462D01*
X146927210Y-81389976D01*
X146946684Y-81414514D01*
X146956574Y-81445498D01*
X146956868Y-81482893D01*
X146956560Y-81485506D01*
X146951956Y-81503985D01*
X146942414Y-81529896D01*
X146929098Y-81560855D01*
X146913176Y-81594477D01*
X146895814Y-81628377D01*
X146878178Y-81660170D01*
X146861435Y-81687470D01*
X146849484Y-81704452D01*
X146826500Y-81731810D01*
X146801452Y-81757596D01*
X146776983Y-81779317D01*
X146755733Y-81794479D01*
X146751755Y-81796686D01*
X146723845Y-81807944D01*
X146688484Y-81817548D01*
X146649754Y-81824650D01*
X146611736Y-81828402D01*
X146597289Y-81828775D01*
X146568163Y-81827638D01*
X146542041Y-81823614D01*
X146516193Y-81815777D01*
X146487894Y-81803204D01*
X146454413Y-81784972D01*
X146436140Y-81774201D01*
X146414430Y-81761722D01*
X146396465Y-81752387D01*
X146384442Y-81747278D01*
X146380637Y-81746882D01*
X146377537Y-81752101D01*
X146369162Y-81766535D01*
X146355979Y-81789368D01*
X146338458Y-81819782D01*
X146317067Y-81856960D01*
X146292275Y-81900085D01*
X146264551Y-81948340D01*
X146234363Y-82000906D01*
X146202180Y-82056967D01*
X146168470Y-82115706D01*
X146133703Y-82176306D01*
X146098347Y-82237948D01*
X146062871Y-82299817D01*
X146027743Y-82361094D01*
X145993433Y-82420962D01*
X145960408Y-82478604D01*
X145929138Y-82533204D01*
X145900091Y-82583942D01*
X145873736Y-82630003D01*
X145850542Y-82670569D01*
X145830977Y-82704823D01*
X145815510Y-82731948D01*
X145804610Y-82751125D01*
X145799047Y-82760996D01*
X145802974Y-82762562D01*
X145815237Y-82762782D01*
X145832711Y-82761846D01*
X145852273Y-82759941D01*
X145870798Y-82757257D01*
X145875420Y-82756382D01*
X145885659Y-82751852D01*
X145901567Y-82742178D01*
X145919771Y-82729417D01*
X145920464Y-82728899D01*
X145948539Y-82710339D01*
X145976505Y-82696311D01*
X146001787Y-82687848D01*
X146021811Y-82685986D01*
X146025568Y-82686642D01*
X146039581Y-82694671D01*
X146054706Y-82710047D01*
X146068317Y-82729177D01*
X146077791Y-82748465D01*
X146080632Y-82762043D01*
X146077404Y-82781229D01*
X146067283Y-82802071D01*
X146049612Y-82825311D01*
X146023733Y-82851692D01*
X145988990Y-82881959D01*
X145944726Y-82916853D01*
X145941897Y-82919000D01*
X145909783Y-82942255D01*
X145884736Y-82957467D01*
X145865608Y-82964729D01*
X145851252Y-82964133D01*
X145840521Y-82955772D01*
X145832267Y-82939738D01*
X145828505Y-82928163D01*
X145821836Y-82907064D01*
X145814843Y-82888137D01*
X145810991Y-82879457D01*
X145802374Y-82868734D01*
X145788895Y-82857879D01*
X145773814Y-82848817D01*
X145760391Y-82843474D01*
X145751886Y-82843774D01*
X145751379Y-82844249D01*
X145747982Y-82849835D01*
X145739234Y-82864776D01*
X145725528Y-82888393D01*
X145707253Y-82920007D01*
X145684800Y-82958937D01*
X145658562Y-83004504D01*
X145628929Y-83056029D01*
X145596292Y-83112832D01*
X145561043Y-83174233D01*
X145523572Y-83239554D01*
X145484270Y-83308114D01*
X145459147Y-83351965D01*
X145418775Y-83422432D01*
X145379907Y-83490248D01*
X145342941Y-83554717D01*
X145308279Y-83615141D01*
X145276321Y-83670825D01*
X145247466Y-83721070D01*
X145222114Y-83765182D01*
X145200667Y-83802462D01*
X145183525Y-83832214D01*
X145171087Y-83853741D01*
X145163754Y-83866347D01*
X145161976Y-83869330D01*
X145160111Y-83874413D01*
X145166064Y-83871417D01*
X145179964Y-83860270D01*
X145184281Y-83856561D01*
X145203987Y-83841352D01*
X145229691Y-83824065D01*
X145256964Y-83807615D01*
X145267386Y-83801886D01*
X145292873Y-83787741D01*
X145317591Y-83772979D01*
X145337670Y-83759952D01*
X145344405Y-83755097D01*
X145362497Y-83742956D01*
X145373881Y-83740013D01*
X145379404Y-83746715D01*
X145379912Y-83763509D01*
X145378883Y-83773295D01*
X145375697Y-83799494D01*
X145374140Y-83816401D01*
X145374202Y-83826169D01*
X145375877Y-83830952D01*
X145378646Y-83832736D01*
X145385562Y-83830566D01*
X145400052Y-83823095D01*
X145420083Y-83811457D01*
X145443623Y-83796784D01*
X145446860Y-83794697D01*
X145482335Y-83772720D01*
X145509810Y-83758022D01*
X145530014Y-83750300D01*
X145543679Y-83749256D01*
X145549845Y-83752434D01*
X145554571Y-83761295D01*
X145559551Y-83776620D01*
X145560986Y-83782467D01*
X145563232Y-83795127D01*
X145563125Y-83806478D01*
X145559775Y-83818302D01*
X145552292Y-83832377D01*
X145539784Y-83850483D01*
X145521360Y-83874399D01*
X145504237Y-83895838D01*
X145475450Y-83930750D01*
X145451319Y-83957281D01*
X145429947Y-83976575D01*
X145409439Y-83989777D01*
X145387900Y-83998031D01*
X145363435Y-84002483D01*
X145334148Y-84004277D01*
X145324395Y-84004464D01*
X145294463Y-84004004D01*
X145274224Y-84001061D01*
X145261912Y-83994693D01*
X145255762Y-83983956D01*
X145254009Y-83967905D01*
X145254005Y-83966837D01*
X145251953Y-83953795D01*
X145247784Y-83947096D01*
X145239732Y-83947136D01*
X145224018Y-83950712D01*
X145203724Y-83957087D01*
X145199087Y-83958742D01*
X145167076Y-83968787D01*
X145143987Y-83972177D01*
X145129276Y-83968898D01*
X145122402Y-83958938D01*
X145122008Y-83956826D01*
X145119912Y-83954994D01*
X145114719Y-83959788D01*
X145105980Y-83971889D01*
X145093246Y-83991980D01*
X145076069Y-84020742D01*
X145054000Y-84058858D01*
X145047963Y-84069408D01*
X145024910Y-84109735D01*
X145006942Y-84141050D01*
X144993433Y-84164394D01*
X144983754Y-84180806D01*
X144977278Y-84191324D01*
X144973376Y-84196990D01*
X144971420Y-84198842D01*
X144970783Y-84197919D01*
X144970755Y-84197216D01*
X144972826Y-84191010D01*
X144978599Y-84175781D01*
X144987415Y-84153215D01*
X144998615Y-84124996D01*
X145011541Y-84092809D01*
X145013538Y-84087866D01*
X145024832Y-84059934D01*
X145039990Y-84022450D01*
X145058539Y-83976581D01*
X145080009Y-83923493D01*
X145103927Y-83864352D01*
X145129822Y-83800325D01*
X145157222Y-83732577D01*
X145185655Y-83662274D01*
X145214650Y-83590584D01*
X145243735Y-83518672D01*
X145272439Y-83447704D01*
X145300289Y-83378847D01*
X145326814Y-83313266D01*
X145351543Y-83252128D01*
X145374003Y-83196600D01*
X145393723Y-83147847D01*
X145410232Y-83107036D01*
X145423057Y-83075332D01*
X145424565Y-83071606D01*
X145436622Y-83041798D01*
X145452337Y-83002941D01*
X145471034Y-82956704D01*
X145492039Y-82904757D01*
X145514676Y-82848768D01*
X145538271Y-82790407D01*
X145562148Y-82731343D01*
X145583500Y-82678524D01*
X145607105Y-82620131D01*
X145631088Y-82560813D01*
X145654765Y-82502257D01*
X145677453Y-82446152D01*
X145698470Y-82394187D01*
X145717133Y-82348049D01*
X145732759Y-82309426D01*
X145743636Y-82282553D01*
X145761032Y-82239569D01*
X145781237Y-82189629D01*
X145802729Y-82136492D01*
X145823986Y-82083923D01*
X145843488Y-82035682D01*
X145847677Y-82025315D01*
X145862170Y-81989463D01*
X145880169Y-81944949D01*
X145900844Y-81893828D01*
X145923365Y-81838154D01*
X145946899Y-81779982D01*
X145970616Y-81721366D01*
X145993684Y-81664360D01*
X145999668Y-81649576D01*
X146023498Y-81590690D01*
X146049117Y-81527372D01*
X146075519Y-81462110D01*
X146101697Y-81397393D01*
X146126644Y-81335707D01*
X146149355Y-81279542D01*
X146168823Y-81231384D01*
X146170357Y-81227591D01*
X146191776Y-81174603D01*
X146215330Y-81116347D01*
X146239748Y-81055961D01*
X146263763Y-80996585D01*
X146286103Y-80941358D01*
X146305501Y-80893417D01*
X146307116Y-80889426D01*
X146323728Y-80848370D01*
X146343755Y-80798865D01*
X146366278Y-80743178D01*
X146390380Y-80683579D01*
X146415144Y-80622337D01*
X146439651Y-80561721D01*
X146462986Y-80504000D01*
X146466080Y-80496344D01*
X146489451Y-80438527D01*
X146514353Y-80376921D01*
X146539825Y-80313907D01*
X146564904Y-80251866D01*
X146588627Y-80193180D01*
X146610032Y-80140228D01*
X146628157Y-80095391D01*
X146629649Y-80091701D01*
X146649584Y-80042368D01*
X146672573Y-79985443D01*
X146697353Y-79924059D01*
X146722659Y-79861348D01*
X146747226Y-79800443D01*
X146769790Y-79744476D01*
X146774293Y-79733304D01*
X146792200Y-79689019D01*
X146808856Y-79648113D01*
X146823745Y-79611831D01*
X146836353Y-79581418D01*
X146846162Y-79558117D01*
X146852658Y-79543175D01*
X146855253Y-79537890D01*
X146859593Y-79540793D01*
G37*
G36*
X144286563Y-84237049D02*
G01*
X144338357Y-84256806D01*
X144381512Y-84278631D01*
X144415339Y-84302028D01*
X144439151Y-84326500D01*
X144452258Y-84351550D01*
X144453754Y-84357696D01*
X144454600Y-84376812D01*
X144449661Y-84397871D01*
X144438234Y-84422484D01*
X144419616Y-84452261D01*
X144401257Y-84477945D01*
X144376053Y-84512983D01*
X144358061Y-84540560D01*
X144346678Y-84561733D01*
X144341297Y-84577557D01*
X144340669Y-84583699D01*
X144344024Y-84596980D01*
X144354614Y-84607506D01*
X144373223Y-84615479D01*
X144400637Y-84621104D01*
X144437640Y-84624584D01*
X144485018Y-84626123D01*
X144504649Y-84626240D01*
X144547819Y-84627006D01*
X144581840Y-84629706D01*
X144609056Y-84635013D01*
X144631810Y-84643602D01*
X144652446Y-84656145D01*
X144673308Y-84673316D01*
X144675531Y-84675346D01*
X144697009Y-84692438D01*
X144721871Y-84708189D01*
X144746873Y-84720889D01*
X144768766Y-84728829D01*
X144780585Y-84730641D01*
X144794761Y-84733710D01*
X144812699Y-84741464D01*
X144830513Y-84751724D01*
X144844319Y-84762307D01*
X144849858Y-84769518D01*
X144852195Y-84779438D01*
X144850667Y-84789666D01*
X144844258Y-84801927D01*
X144831953Y-84817944D01*
X144812736Y-84839439D01*
X144801728Y-84851184D01*
X144772095Y-84885456D01*
X144752290Y-84915586D01*
X144741846Y-84942694D01*
X144740297Y-84967900D01*
X144745063Y-84987225D01*
X144752403Y-84999938D01*
X144764454Y-85009514D01*
X144782736Y-85016436D01*
X144808767Y-85021187D01*
X144844067Y-85024248D01*
X144864841Y-85025263D01*
X144897244Y-85026811D01*
X144920336Y-85028640D01*
X144936366Y-85031115D01*
X144947582Y-85034600D01*
X144956234Y-85039459D01*
X144957331Y-85040242D01*
X144976726Y-85060993D01*
X144991516Y-85090702D01*
X145000804Y-85127379D01*
X145002484Y-85140419D01*
X145006474Y-85180152D01*
X145050756Y-85193219D01*
X145072552Y-85199718D01*
X145090435Y-85205173D01*
X145101173Y-85208593D01*
X145102264Y-85208978D01*
X145107778Y-85206283D01*
X145109490Y-85193725D01*
X145114564Y-85175768D01*
X145128523Y-85155025D01*
X145149472Y-85132884D01*
X145175517Y-85110739D01*
X145204762Y-85089979D01*
X145235314Y-85071996D01*
X145265277Y-85058181D01*
X145292756Y-85049925D01*
X145307692Y-85048208D01*
X145316408Y-85047678D01*
X145319332Y-85046391D01*
X145315671Y-85044129D01*
X145304633Y-85040674D01*
X145285427Y-85035808D01*
X145257260Y-85029312D01*
X145219341Y-85020969D01*
X145171097Y-85010608D01*
X145126474Y-85000908D01*
X145091647Y-84992949D01*
X145066825Y-84986810D01*
X145052219Y-84982570D01*
X145048038Y-84980308D01*
X145054492Y-84980103D01*
X145071790Y-84982035D01*
X145100143Y-84986182D01*
X145110767Y-84987859D01*
X145136157Y-84991890D01*
X145171503Y-84997455D01*
X145215333Y-85004327D01*
X145266177Y-85012276D01*
X145322565Y-85021072D01*
X145383026Y-85030486D01*
X145446090Y-85040290D01*
X145510286Y-85050254D01*
X145574144Y-85060149D01*
X145629745Y-85068749D01*
X145676699Y-85076016D01*
X145728648Y-85084076D01*
X145781468Y-85092288D01*
X145831035Y-85100010D01*
X145872530Y-85106493D01*
X145983224Y-85123797D01*
X146098095Y-85141708D01*
X146219091Y-85160528D01*
X146348160Y-85180561D01*
X146447701Y-85195985D01*
X146500867Y-85204224D01*
X146555795Y-85212746D01*
X146610080Y-85221177D01*
X146661317Y-85229144D01*
X146707102Y-85236272D01*
X146745030Y-85242189D01*
X146759854Y-85244506D01*
X146792829Y-85249662D01*
X146836172Y-85256429D01*
X146888827Y-85264644D01*
X146949736Y-85274142D01*
X147017844Y-85284758D01*
X147092094Y-85296329D01*
X147171429Y-85308689D01*
X147254795Y-85321674D01*
X147341133Y-85335120D01*
X147429388Y-85348862D01*
X147518504Y-85362735D01*
X147607423Y-85376576D01*
X147695091Y-85390220D01*
X147780449Y-85403501D01*
X147862443Y-85416257D01*
X147940016Y-85428322D01*
X148012110Y-85439531D01*
X148077671Y-85449721D01*
X148135641Y-85458727D01*
X148152981Y-85461420D01*
X148204793Y-85469468D01*
X148261138Y-85478226D01*
X148318628Y-85487168D01*
X148373879Y-85495766D01*
X148423504Y-85503494D01*
X148453572Y-85508180D01*
X148498482Y-85515182D01*
X148546077Y-85522598D01*
X148592972Y-85529904D01*
X148635785Y-85536570D01*
X148671130Y-85542071D01*
X148676126Y-85542848D01*
X148709874Y-85548100D01*
X148751661Y-85554609D01*
X148798103Y-85561846D01*
X148845816Y-85569285D01*
X148891418Y-85576399D01*
X148898679Y-85577532D01*
X148940031Y-85583984D01*
X148978775Y-85590026D01*
X149016178Y-85595856D01*
X149053507Y-85601671D01*
X149092027Y-85607667D01*
X149133005Y-85614041D01*
X149177707Y-85620990D01*
X149227400Y-85628711D01*
X149283350Y-85637400D01*
X149346823Y-85647256D01*
X149419086Y-85658474D01*
X149501404Y-85671252D01*
X149508534Y-85672359D01*
X149611860Y-85688402D01*
X149705202Y-85702904D01*
X149789998Y-85716090D01*
X149867689Y-85728185D01*
X149939717Y-85739412D01*
X150007520Y-85749998D01*
X150072540Y-85760164D01*
X150136216Y-85770138D01*
X150179085Y-85776861D01*
X150216782Y-85782756D01*
X150253275Y-85788426D01*
X150285989Y-85793474D01*
X150312349Y-85797502D01*
X150329380Y-85800056D01*
X150367034Y-85805670D01*
X150405129Y-85811519D01*
X150441926Y-85817318D01*
X150475687Y-85822782D01*
X150504671Y-85827626D01*
X150527141Y-85831565D01*
X150541355Y-85834314D01*
X150545637Y-85835487D01*
X150549834Y-85841923D01*
X150558933Y-85856883D01*
X150572167Y-85879051D01*
X150588770Y-85907112D01*
X150607976Y-85939749D01*
X150629017Y-85975647D01*
X150651127Y-86013488D01*
X150673539Y-86051958D01*
X150695487Y-86089739D01*
X150716203Y-86125517D01*
X150734921Y-86157974D01*
X150750875Y-86185794D01*
X150763297Y-86207662D01*
X150771422Y-86222262D01*
X150774481Y-86228276D01*
X150774487Y-86228325D01*
X150773178Y-86231131D01*
X150768562Y-86232622D01*
X150759611Y-86232631D01*
X150745294Y-86230993D01*
X150724581Y-86227540D01*
X150696443Y-86222107D01*
X150659849Y-86214526D01*
X150613770Y-86204632D01*
X150573679Y-86195882D01*
X150522444Y-86184651D01*
X150463240Y-86171675D01*
X150399390Y-86157684D01*
X150334220Y-86143404D01*
X150271053Y-86129566D01*
X150213215Y-86116897D01*
X150205097Y-86115119D01*
X150151412Y-86103358D01*
X150094610Y-86090907D01*
X150037394Y-86078361D01*
X149982469Y-86066312D01*
X149932537Y-86055353D01*
X149890302Y-86046077D01*
X149878493Y-86043482D01*
X149831120Y-86033075D01*
X149776773Y-86021149D01*
X149719772Y-86008650D01*
X149664436Y-85996525D01*
X149615087Y-85985723D01*
X149612585Y-85985176D01*
X149568409Y-85975503D01*
X149516326Y-85964081D01*
X149459716Y-85951653D01*
X149401961Y-85938962D01*
X149346442Y-85926751D01*
X149309103Y-85918529D01*
X149254794Y-85906568D01*
X149202663Y-85895096D01*
X149150868Y-85883709D01*
X149097564Y-85872003D01*
X149040910Y-85859572D01*
X148979061Y-85846013D01*
X148910176Y-85830921D01*
X148832410Y-85813890D01*
X148806190Y-85808149D01*
X148765715Y-85799282D01*
X148715031Y-85788169D01*
X148655219Y-85775047D01*
X148587361Y-85760153D01*
X148512539Y-85743726D01*
X148431836Y-85726003D01*
X148346332Y-85707221D01*
X148257109Y-85687619D01*
X148165250Y-85667432D01*
X148152981Y-85664735D01*
X148101795Y-85653487D01*
X148049700Y-85642044D01*
X147998920Y-85630892D01*
X147951679Y-85620521D01*
X147910199Y-85611419D01*
X147876704Y-85604073D01*
X147863950Y-85601278D01*
X147811426Y-85589771D01*
X147748562Y-85575997D01*
X147676309Y-85560163D01*
X147595620Y-85542479D01*
X147507446Y-85523154D01*
X147439075Y-85508167D01*
X147404032Y-85500487D01*
X147361403Y-85491146D01*
X147314896Y-85480956D01*
X147268219Y-85470729D01*
X147228083Y-85461937D01*
X147186953Y-85452924D01*
X147137928Y-85442175D01*
X147084406Y-85430434D01*
X147029785Y-85418449D01*
X146977461Y-85406963D01*
X146950614Y-85401067D01*
X146900856Y-85390141D01*
X146843428Y-85377534D01*
X146781951Y-85364040D01*
X146720047Y-85350454D01*
X146661338Y-85337573D01*
X146621119Y-85328750D01*
X146568222Y-85317146D01*
X146510255Y-85304426D01*
X146450618Y-85291337D01*
X146392712Y-85278626D01*
X146339937Y-85267038D01*
X146303186Y-85258966D01*
X146252362Y-85247803D01*
X146206002Y-85237623D01*
X146162735Y-85228125D01*
X146121191Y-85219010D01*
X146079998Y-85209977D01*
X146037786Y-85200727D01*
X145993184Y-85190958D01*
X145944822Y-85180371D01*
X145891329Y-85168665D01*
X145831334Y-85155540D01*
X145763467Y-85140696D01*
X145686357Y-85123832D01*
X145644196Y-85114612D01*
X145589337Y-85102606D01*
X145543716Y-85092596D01*
X145505272Y-85084128D01*
X145471944Y-85076746D01*
X145441671Y-85069994D01*
X145412393Y-85063418D01*
X145407191Y-85062245D01*
X145405491Y-85062538D01*
X145409482Y-85065621D01*
X145419868Y-85071890D01*
X145437354Y-85081736D01*
X145462647Y-85095553D01*
X145496450Y-85113736D01*
X145539469Y-85136676D01*
X145563268Y-85149318D01*
X145594638Y-85167033D01*
X145616260Y-85181976D01*
X145629307Y-85195169D01*
X145634951Y-85207634D01*
X145635397Y-85212164D01*
X145630908Y-85230507D01*
X145617529Y-85254145D01*
X145595960Y-85281913D01*
X145588337Y-85290502D01*
X145569012Y-85312398D01*
X145557346Y-85327613D01*
X145552643Y-85337453D01*
X145554205Y-85343224D01*
X145558936Y-85345631D01*
X145566499Y-85347895D01*
X145583925Y-85353114D01*
X145610003Y-85360925D01*
X145643520Y-85370965D01*
X145683266Y-85382871D01*
X145728028Y-85396281D01*
X145776595Y-85410830D01*
X145801452Y-85418277D01*
X145851114Y-85433133D01*
X145897294Y-85446905D01*
X145938828Y-85459250D01*
X145974550Y-85469822D01*
X146003296Y-85478278D01*
X146023902Y-85484274D01*
X146035202Y-85487464D01*
X146037012Y-85487901D01*
X146039076Y-85482803D01*
X146040132Y-85470226D01*
X146040168Y-85467097D01*
X146044583Y-85437208D01*
X146057429Y-85414884D01*
X146078109Y-85400754D01*
X146106024Y-85395445D01*
X146108362Y-85395420D01*
X146133659Y-85398419D01*
X146154312Y-85408365D01*
X146172224Y-85426713D01*
X146189295Y-85454921D01*
X146191358Y-85458998D01*
X146204499Y-85487289D01*
X146211491Y-85507655D01*
X146212700Y-85521718D01*
X146208494Y-85531105D01*
X146207792Y-85531847D01*
X146210788Y-85535716D01*
X146224931Y-85542198D01*
X146250251Y-85551303D01*
X146286777Y-85563043D01*
X146310398Y-85570249D01*
X146334732Y-85577559D01*
X146369504Y-85587991D01*
X146414074Y-85601353D01*
X146467804Y-85617453D01*
X146530055Y-85636101D01*
X146600188Y-85657105D01*
X146677564Y-85680274D01*
X146761544Y-85705417D01*
X146851489Y-85732343D01*
X146946761Y-85760859D01*
X147046720Y-85790776D01*
X147150727Y-85821902D01*
X147258144Y-85854045D01*
X147368332Y-85887015D01*
X147480652Y-85920620D01*
X147594464Y-85954668D01*
X147709130Y-85988970D01*
X147824011Y-86023332D01*
X147938469Y-86057565D01*
X147994014Y-86074177D01*
X148067272Y-86096108D01*
X148137506Y-86117174D01*
X148203906Y-86137132D01*
X148265661Y-86155736D01*
X148321963Y-86172741D01*
X148372002Y-86187900D01*
X148414967Y-86200970D01*
X148450048Y-86211704D01*
X148476437Y-86219858D01*
X148493322Y-86225185D01*
X148499817Y-86227402D01*
X148496025Y-86228279D01*
X148480975Y-86229094D01*
X148454973Y-86229843D01*
X148418323Y-86230525D01*
X148371329Y-86231137D01*
X148314295Y-86231675D01*
X148247526Y-86232137D01*
X148171327Y-86232520D01*
X148086001Y-86232822D01*
X147991852Y-86233039D01*
X147889186Y-86233170D01*
X147861060Y-86233189D01*
X147210741Y-86233561D01*
X147086458Y-86175264D01*
X147045962Y-86156289D01*
X147003947Y-86136638D01*
X146963209Y-86117617D01*
X146926545Y-86100530D01*
X146896752Y-86086685D01*
X146889917Y-86083518D01*
X146870388Y-86074444D01*
X146841720Y-86061077D01*
X146805238Y-86044038D01*
X146762269Y-86023946D01*
X146714139Y-86001422D01*
X146662173Y-85977086D01*
X146607699Y-85951559D01*
X146552040Y-85925461D01*
X146540191Y-85919902D01*
X146408002Y-85857898D01*
X146285940Y-85800664D01*
X146173671Y-85748044D01*
X146070864Y-85699885D01*
X145977184Y-85656030D01*
X145892299Y-85616325D01*
X145815875Y-85580615D01*
X145747580Y-85548745D01*
X145687081Y-85520560D01*
X145634044Y-85495905D01*
X145588136Y-85474626D01*
X145549025Y-85456567D01*
X145516376Y-85441573D01*
X145489858Y-85429490D01*
X145469137Y-85420162D01*
X145453881Y-85413435D01*
X145443755Y-85409153D01*
X145438427Y-85407163D01*
X145437532Y-85406972D01*
X145426715Y-85411906D01*
X145412068Y-85425723D01*
X145394894Y-85446950D01*
X145376497Y-85474110D01*
X145372539Y-85480531D01*
X145359131Y-85500796D01*
X145345539Y-85518355D01*
X145334535Y-85529652D01*
X145333821Y-85530199D01*
X145318257Y-85541687D01*
X145267829Y-85517490D01*
X145230534Y-85498336D01*
X145195805Y-85478140D01*
X145165644Y-85458232D01*
X145142055Y-85439938D01*
X145127042Y-85424587D01*
X145126413Y-85423726D01*
X145117992Y-85406541D01*
X145119412Y-85390893D01*
X145131185Y-85375152D01*
X145145290Y-85363618D01*
X145173496Y-85338466D01*
X145190414Y-85312273D01*
X145193253Y-85304267D01*
X145193945Y-85299045D01*
X145191813Y-85294053D01*
X145185442Y-85288360D01*
X145173418Y-85281033D01*
X145154327Y-85271141D01*
X145126754Y-85257751D01*
X145111955Y-85250694D01*
X145082217Y-85236733D01*
X145055261Y-85224418D01*
X145033196Y-85214686D01*
X145018133Y-85208476D01*
X145013264Y-85206812D01*
X145004369Y-85205698D01*
X145000528Y-85210295D01*
X144999661Y-85223392D01*
X144999658Y-85225072D01*
X144998957Y-85234732D01*
X144995964Y-85243799D01*
X144989343Y-85254136D01*
X144977759Y-85267608D01*
X144959877Y-85286079D01*
X144946187Y-85299724D01*
X144883035Y-85355539D01*
X144816464Y-85400862D01*
X144745438Y-85436174D01*
X144668922Y-85461958D01*
X144585879Y-85478693D01*
X144551746Y-85482846D01*
X144485710Y-85485335D01*
X144415597Y-85480453D01*
X144345800Y-85468693D01*
X144288781Y-85453262D01*
X144209013Y-85421403D01*
X144135613Y-85380510D01*
X144069054Y-85331444D01*
X144009806Y-85275062D01*
X143958339Y-85212225D01*
X143915126Y-85143792D01*
X143880638Y-85070621D01*
X143855345Y-84993573D01*
X143839719Y-84913505D01*
X143834230Y-84831279D01*
X143839350Y-84747751D01*
X143855551Y-84663783D01*
X143855659Y-84663367D01*
X143882282Y-84583957D01*
X143919126Y-84508517D01*
X143965257Y-84438179D01*
X144019738Y-84374080D01*
X144081636Y-84317352D01*
X144150013Y-84269132D01*
X144205635Y-84238921D01*
X144241129Y-84221963D01*
X144286563Y-84237049D01*
G37*
G36*
X146236109Y-77068653D02*
G01*
X146301340Y-77088893D01*
X146328456Y-77100884D01*
X146355449Y-77114996D01*
X146378158Y-77129854D01*
X146400436Y-77148292D01*
X146424851Y-77171851D01*
X146436073Y-77183375D01*
X146446382Y-77194646D01*
X146456451Y-77206691D01*
X146466948Y-77220542D01*
X146478546Y-77237229D01*
X146491914Y-77257781D01*
X146507722Y-77283229D01*
X146526642Y-77314602D01*
X146549343Y-77352931D01*
X146576497Y-77399245D01*
X146607770Y-77452853D01*
X146640861Y-77509625D01*
X146678314Y-77573843D01*
X146718651Y-77642974D01*
X146760395Y-77714486D01*
X146802067Y-77785848D01*
X146842190Y-77854527D01*
X146879284Y-77917991D01*
X146892923Y-77941315D01*
X146932702Y-78009336D01*
X146978015Y-78086828D01*
X147028566Y-78173283D01*
X147084055Y-78268188D01*
X147144184Y-78371034D01*
X147208655Y-78481312D01*
X147277169Y-78598510D01*
X147349429Y-78722118D01*
X147425136Y-78851627D01*
X147503991Y-78986526D01*
X147585697Y-79126304D01*
X147669956Y-79270453D01*
X147710737Y-79340222D01*
X147752113Y-79411007D01*
X147798032Y-79489557D01*
X147847199Y-79573660D01*
X147898319Y-79661102D01*
X147950100Y-79749669D01*
X148001246Y-79837148D01*
X148050464Y-79921324D01*
X148096459Y-79999984D01*
X148129810Y-80057018D01*
X148171934Y-80129055D01*
X148218001Y-80207842D01*
X148266764Y-80291244D01*
X148316976Y-80377130D01*
X148367391Y-80463365D01*
X148416760Y-80547818D01*
X148463838Y-80628355D01*
X148507377Y-80702843D01*
X148540410Y-80759362D01*
X148568393Y-80807241D01*
X148601849Y-80864479D01*
X148640413Y-80930456D01*
X148683724Y-81004551D01*
X148731419Y-81086142D01*
X148783133Y-81174609D01*
X148838505Y-81269331D01*
X148897171Y-81369687D01*
X148958768Y-81475056D01*
X149022933Y-81584817D01*
X149089304Y-81698349D01*
X149157516Y-81815031D01*
X149227208Y-81934243D01*
X149298016Y-82055362D01*
X149369577Y-82177769D01*
X149441528Y-82300842D01*
X149513506Y-82423961D01*
X149585148Y-82546504D01*
X149656091Y-82667850D01*
X149725972Y-82787379D01*
X149794429Y-82904470D01*
X149861097Y-83018502D01*
X149925614Y-83128853D01*
X149987617Y-83234902D01*
X150046743Y-83336030D01*
X150102630Y-83431615D01*
X150154913Y-83521035D01*
X150203230Y-83603671D01*
X150236884Y-83661228D01*
X150319951Y-83803292D01*
X150403542Y-83946258D01*
X150487362Y-84089619D01*
X150571116Y-84232870D01*
X150654508Y-84375505D01*
X150737243Y-84517019D01*
X150819024Y-84656906D01*
X150899557Y-84794661D01*
X150978545Y-84929779D01*
X151055695Y-85061753D01*
X151130709Y-85190078D01*
X151203292Y-85314249D01*
X151273150Y-85433760D01*
X151339986Y-85548105D01*
X151403505Y-85656780D01*
X151463411Y-85759278D01*
X151519409Y-85855093D01*
X151571203Y-85943722D01*
X151618498Y-86024657D01*
X151660998Y-86097393D01*
X151698409Y-86161425D01*
X151730433Y-86216247D01*
X151744959Y-86241118D01*
X151782137Y-86304871D01*
X151813869Y-86359653D01*
X151840589Y-86406444D01*
X151862728Y-86446229D01*
X151880718Y-86479991D01*
X151894991Y-86508712D01*
X151905980Y-86533376D01*
X151914117Y-86554965D01*
X151919835Y-86574463D01*
X151923564Y-86592854D01*
X151925738Y-86611119D01*
X151926789Y-86630242D01*
X151927149Y-86651206D01*
X151927175Y-86655584D01*
X151924869Y-86709247D01*
X151916638Y-86756854D01*
X151901406Y-86802846D01*
X151880918Y-86846344D01*
X151845296Y-86902457D01*
X151801602Y-86951417D01*
X151751066Y-86992293D01*
X151694922Y-87024154D01*
X151634400Y-87046068D01*
X151608895Y-87051907D01*
X151605355Y-87052375D01*
X151599579Y-87052825D01*
X151591356Y-87053258D01*
X151580477Y-87053673D01*
X151566730Y-87054072D01*
X151549905Y-87054454D01*
X151529793Y-87054820D01*
X151506183Y-87055169D01*
X151478864Y-87055503D01*
X151447626Y-87055822D01*
X151412259Y-87056126D01*
X151372552Y-87056415D01*
X151328295Y-87056689D01*
X151279278Y-87056949D01*
X151225291Y-87057195D01*
X151166122Y-87057428D01*
X151101563Y-87057647D01*
X151031401Y-87057853D01*
X150955428Y-87058046D01*
X150873433Y-87058227D01*
X150785205Y-87058396D01*
X150690534Y-87058553D01*
X150589210Y-87058698D01*
X150481022Y-87058833D01*
X150365760Y-87058956D01*
X150243214Y-87059068D01*
X150113174Y-87059170D01*
X149975428Y-87059262D01*
X149829767Y-87059345D01*
X149675981Y-87059417D01*
X149513859Y-87059481D01*
X149343190Y-87059535D01*
X149163765Y-87059581D01*
X148975372Y-87059619D01*
X148777803Y-87059649D01*
X148570846Y-87059671D01*
X148354291Y-87059685D01*
X148127927Y-87059693D01*
X147891545Y-87059693D01*
X147644934Y-87059687D01*
X147387884Y-87059675D01*
X147120184Y-87059656D01*
X146841624Y-87059632D01*
X146551994Y-87059603D01*
X146251083Y-87059569D01*
X146148046Y-87059556D01*
X145897998Y-87059523D01*
X145650750Y-87059485D01*
X145406554Y-87059443D01*
X145165664Y-87059397D01*
X144928335Y-87059347D01*
X144694818Y-87059293D01*
X144465369Y-87059235D01*
X144240239Y-87059174D01*
X144019684Y-87059109D01*
X143803956Y-87059041D01*
X143593309Y-87058970D01*
X143387997Y-87058895D01*
X143188272Y-87058818D01*
X142994389Y-87058738D01*
X142806601Y-87058656D01*
X142625162Y-87058571D01*
X142450325Y-87058483D01*
X142282343Y-87058394D01*
X142121470Y-87058302D01*
X141967960Y-87058209D01*
X141822067Y-87058113D01*
X141684043Y-87058017D01*
X141554142Y-87057918D01*
X141432618Y-87057818D01*
X141319724Y-87057717D01*
X141215714Y-87057615D01*
X141120842Y-87057512D01*
X141035360Y-87057408D01*
X140959523Y-87057303D01*
X140893583Y-87057198D01*
X140837795Y-87057092D01*
X140792412Y-87056986D01*
X140757687Y-87056880D01*
X140733875Y-87056774D01*
X140721228Y-87056668D01*
X140719116Y-87056609D01*
X140707037Y-87054238D01*
X140688575Y-87050622D01*
X140675762Y-87048116D01*
X140655655Y-87042636D01*
X140629907Y-87033478D01*
X140603120Y-87022326D01*
X140594833Y-87018495D01*
X140570937Y-87006291D01*
X140550617Y-86993588D01*
X140530770Y-86978062D01*
X140508290Y-86957393D01*
X140493083Y-86942394D01*
X140467904Y-86916320D01*
X140449204Y-86894497D01*
X140434597Y-86873754D01*
X140421698Y-86850918D01*
X140416519Y-86840563D01*
X140395316Y-86791651D01*
X140381721Y-86746083D01*
X140374687Y-86699538D01*
X140373087Y-86661365D01*
X140375141Y-86612038D01*
X140382448Y-86568784D01*
X140395944Y-86526953D01*
X140403912Y-86508178D01*
X140409416Y-86497450D01*
X140420269Y-86477653D01*
X140435957Y-86449683D01*
X140455967Y-86414436D01*
X140479785Y-86372806D01*
X140506898Y-86325690D01*
X140535911Y-86275509D01*
X141448652Y-86275509D01*
X141454494Y-86275722D01*
X141471564Y-86275930D01*
X141499530Y-86276133D01*
X141538060Y-86276331D01*
X141586825Y-86276524D01*
X141645493Y-86276712D01*
X141713733Y-86276894D01*
X141791214Y-86277072D01*
X141877606Y-86277244D01*
X141972577Y-86277411D01*
X142075796Y-86277572D01*
X142186933Y-86277729D01*
X142305657Y-86277880D01*
X142431637Y-86278025D01*
X142564541Y-86278165D01*
X142704039Y-86278300D01*
X142849800Y-86278429D01*
X143001492Y-86278553D01*
X143158786Y-86278671D01*
X143321350Y-86278783D01*
X143488853Y-86278890D01*
X143660965Y-86278991D01*
X143837353Y-86279086D01*
X144017688Y-86279176D01*
X144201639Y-86279260D01*
X144388874Y-86279338D01*
X144579062Y-86279410D01*
X144771873Y-86279476D01*
X144966976Y-86279536D01*
X145164040Y-86279591D01*
X145362733Y-86279639D01*
X145562725Y-86279682D01*
X145763686Y-86279718D01*
X145965283Y-86279748D01*
X146167186Y-86279772D01*
X146369065Y-86279790D01*
X146570588Y-86279802D01*
X146771424Y-86279807D01*
X146971242Y-86279806D01*
X147169712Y-86279799D01*
X147366503Y-86279785D01*
X147561283Y-86279766D01*
X147753721Y-86279739D01*
X147943488Y-86279707D01*
X148130251Y-86279667D01*
X148313680Y-86279622D01*
X148493444Y-86279569D01*
X148669211Y-86279510D01*
X148840652Y-86279445D01*
X149007435Y-86279373D01*
X149169229Y-86279294D01*
X149325704Y-86279208D01*
X149476528Y-86279116D01*
X149621370Y-86279016D01*
X149759899Y-86278910D01*
X149891785Y-86278797D01*
X150016697Y-86278678D01*
X150134304Y-86278551D01*
X150244274Y-86278417D01*
X150346276Y-86278276D01*
X150439981Y-86278129D01*
X150525057Y-86277974D01*
X150601172Y-86277812D01*
X150667997Y-86277643D01*
X150725200Y-86277466D01*
X150772450Y-86277283D01*
X150809416Y-86277092D01*
X150835767Y-86276894D01*
X150851173Y-86276688D01*
X150855416Y-86276506D01*
X150852565Y-86271135D01*
X150844287Y-86256497D01*
X150830994Y-86233304D01*
X150813099Y-86202265D01*
X150791014Y-86164093D01*
X150765151Y-86119498D01*
X150735924Y-86069191D01*
X150703743Y-86013884D01*
X150669022Y-85954288D01*
X150632174Y-85891113D01*
X150593609Y-85825071D01*
X150593085Y-85824173D01*
X150544740Y-85741426D01*
X150491100Y-85649612D01*
X150432702Y-85549650D01*
X150370080Y-85442456D01*
X150303771Y-85328948D01*
X150234311Y-85210043D01*
X150162235Y-85086658D01*
X150088080Y-84959711D01*
X150012380Y-84830119D01*
X149935672Y-84698799D01*
X149858492Y-84566669D01*
X149781376Y-84434645D01*
X149704858Y-84303645D01*
X149629476Y-84174587D01*
X149555765Y-84048387D01*
X149484260Y-83925963D01*
X149415498Y-83808232D01*
X149350015Y-83696112D01*
X149317825Y-83640996D01*
X149275838Y-83569106D01*
X149231338Y-83492916D01*
X149185305Y-83414102D01*
X149138718Y-83334344D01*
X149092558Y-83255319D01*
X149047805Y-83178705D01*
X149005440Y-83106179D01*
X148966441Y-83039420D01*
X148931789Y-82980106D01*
X148916014Y-82953103D01*
X148891172Y-82910581D01*
X148861072Y-82859055D01*
X148826286Y-82799506D01*
X148787388Y-82732913D01*
X148744949Y-82660257D01*
X148699542Y-82582518D01*
X148651739Y-82500676D01*
X148602114Y-82415710D01*
X148551237Y-82328602D01*
X148499682Y-82240330D01*
X148448020Y-82151876D01*
X148396826Y-82064218D01*
X148363978Y-82007974D01*
X148314847Y-81923851D01*
X148265824Y-81839915D01*
X148217389Y-81756990D01*
X148170023Y-81675900D01*
X148124208Y-81597468D01*
X148080424Y-81522516D01*
X148039153Y-81451869D01*
X148000875Y-81386351D01*
X147966071Y-81326784D01*
X147935223Y-81273992D01*
X147908812Y-81228798D01*
X147887319Y-81192026D01*
X147872625Y-81166895D01*
X147847917Y-81124637D01*
X147817719Y-81072974D01*
X147782370Y-81012485D01*
X147742206Y-80943749D01*
X147697568Y-80867345D01*
X147648793Y-80783852D01*
X147596219Y-80693851D01*
X147540185Y-80597920D01*
X147481028Y-80496637D01*
X147419088Y-80390584D01*
X147354701Y-80280338D01*
X147288208Y-80166479D01*
X147219946Y-80049587D01*
X147150252Y-79930240D01*
X147079466Y-79809017D01*
X147007926Y-79686499D01*
X146935970Y-79563264D01*
X146863936Y-79439891D01*
X146792163Y-79316960D01*
X146720988Y-79195049D01*
X146650750Y-79074739D01*
X146581788Y-78956609D01*
X146514439Y-78841237D01*
X146449043Y-78729203D01*
X146438803Y-78711660D01*
X146398487Y-78642641D01*
X146359805Y-78576521D01*
X146323157Y-78513974D01*
X146288941Y-78455676D01*
X146257553Y-78402301D01*
X146229394Y-78354526D01*
X146204860Y-78313024D01*
X146184350Y-78278471D01*
X146168262Y-78251542D01*
X146156995Y-78232912D01*
X146150945Y-78223256D01*
X146149999Y-78222004D01*
X146146815Y-78226930D01*
X146138123Y-78241312D01*
X146124237Y-78264618D01*
X146105469Y-78296316D01*
X146082132Y-78335872D01*
X146054539Y-78382754D01*
X146023003Y-78436430D01*
X145987835Y-78496365D01*
X145949349Y-78562028D01*
X145907858Y-78632885D01*
X145863673Y-78708405D01*
X145817109Y-78788053D01*
X145768477Y-78871298D01*
X145718090Y-78957607D01*
X145687792Y-79009533D01*
X145552606Y-79241246D01*
X145413706Y-79479280D01*
X145270853Y-79724044D01*
X145123806Y-79975952D01*
X144972325Y-80235415D01*
X144816169Y-80502843D01*
X144655100Y-80778649D01*
X144488876Y-81063243D01*
X144317256Y-81357038D01*
X144161550Y-81623563D01*
X144113950Y-81705039D01*
X144062137Y-81793729D01*
X144007227Y-81887723D01*
X143950336Y-81985112D01*
X143892580Y-82083985D01*
X143835073Y-82182432D01*
X143778933Y-82278544D01*
X143725274Y-82370409D01*
X143675212Y-82456119D01*
X143629863Y-82533764D01*
X143629720Y-82534009D01*
X143586093Y-82608706D01*
X143537654Y-82691639D01*
X143485425Y-82781060D01*
X143430424Y-82875224D01*
X143373674Y-82972382D01*
X143316193Y-83070789D01*
X143259002Y-83168697D01*
X143203123Y-83264360D01*
X143149574Y-83356030D01*
X143099377Y-83441961D01*
X143079347Y-83476249D01*
X143031480Y-83558190D01*
X142980261Y-83645869D01*
X142926658Y-83737632D01*
X142871635Y-83831825D01*
X142816159Y-83926795D01*
X142761196Y-84020888D01*
X142707712Y-84112451D01*
X142656671Y-84199830D01*
X142609041Y-84281372D01*
X142565788Y-84355423D01*
X142545834Y-84389585D01*
X142449504Y-84554505D01*
X142358859Y-84709691D01*
X142273754Y-84855389D01*
X142194043Y-84991850D01*
X142119582Y-85119321D01*
X142050224Y-85238051D01*
X141985826Y-85348288D01*
X141926241Y-85450281D01*
X141871324Y-85544278D01*
X141820931Y-85630529D01*
X141774916Y-85709280D01*
X141733133Y-85780782D01*
X141695439Y-85845282D01*
X141661687Y-85903029D01*
X141631732Y-85954271D01*
X141605429Y-85999257D01*
X141582633Y-86038235D01*
X141563200Y-86071454D01*
X141546982Y-86099163D01*
X141542729Y-86106426D01*
X141519690Y-86146016D01*
X141498765Y-86182448D01*
X141480621Y-86214524D01*
X141465923Y-86241046D01*
X141455339Y-86260816D01*
X141449536Y-86272636D01*
X141448652Y-86275509D01*
X140535911Y-86275509D01*
X140536793Y-86273984D01*
X140568954Y-86218582D01*
X140602870Y-86160382D01*
X140627654Y-86117987D01*
X140667295Y-86050256D01*
X140711615Y-85974511D01*
X140759463Y-85892720D01*
X140809688Y-85806852D01*
X140861137Y-85718877D01*
X140912660Y-85630763D01*
X140963105Y-85544480D01*
X141011321Y-85461995D01*
X141056156Y-85385279D01*
X141068813Y-85363618D01*
X141109599Y-85293818D01*
X141151983Y-85221295D01*
X141195108Y-85147511D01*
X141238120Y-85073928D01*
X141280163Y-85002010D01*
X141320381Y-84933220D01*
X141357920Y-84869021D01*
X141391924Y-84810875D01*
X141421539Y-84760247D01*
X141438860Y-84730641D01*
X141464622Y-84686611D01*
X141491662Y-84640390D01*
X141520280Y-84591465D01*
X141550776Y-84539324D01*
X141583449Y-84483453D01*
X141618600Y-84423339D01*
X141656528Y-84358470D01*
X141697533Y-84288332D01*
X141741916Y-84212412D01*
X141789976Y-84130198D01*
X141842012Y-84041177D01*
X141898326Y-83944835D01*
X141959216Y-83840660D01*
X142024982Y-83728138D01*
X142095925Y-83606757D01*
X142172345Y-83476004D01*
X142187405Y-83450236D01*
X142217357Y-83398988D01*
X142245923Y-83350112D01*
X142273445Y-83303024D01*
X142300263Y-83257141D01*
X142326717Y-83211881D01*
X142353149Y-83166662D01*
X142379898Y-83120900D01*
X142407306Y-83074014D01*
X142435713Y-83025420D01*
X142465459Y-82974536D01*
X142496885Y-82920780D01*
X142530332Y-82863568D01*
X142566140Y-82802319D01*
X142604651Y-82736450D01*
X142646203Y-82665377D01*
X142691139Y-82588519D01*
X142739799Y-82505293D01*
X142792523Y-82415116D01*
X142849651Y-82317406D01*
X142911525Y-82211580D01*
X142978486Y-82097055D01*
X143050873Y-81973249D01*
X143066058Y-81947277D01*
X143138300Y-81823717D01*
X143215580Y-81691534D01*
X143297104Y-81552090D01*
X143382076Y-81406743D01*
X143469701Y-81256854D01*
X143559185Y-81103783D01*
X143649732Y-80948888D01*
X143740548Y-80793531D01*
X143830838Y-80639071D01*
X143919806Y-80486868D01*
X144006658Y-80338282D01*
X144090600Y-80194672D01*
X144170835Y-80057399D01*
X144235251Y-79947186D01*
X144270805Y-79886360D01*
X144306152Y-79825900D01*
X144340612Y-79766966D01*
X144373507Y-79710721D01*
X144404157Y-79658325D01*
X144431882Y-79610938D01*
X144456005Y-79569723D01*
X144475845Y-79535839D01*
X144490724Y-79510449D01*
X144493937Y-79504969D01*
X144508711Y-79479765D01*
X144528912Y-79445263D01*
X144554141Y-79402147D01*
X144583998Y-79351104D01*
X144618081Y-79292819D01*
X144655991Y-79227977D01*
X144697327Y-79157265D01*
X144741687Y-79081368D01*
X144788672Y-79000972D01*
X144837882Y-78916761D01*
X144888915Y-78829422D01*
X144941370Y-78739641D01*
X144994849Y-78648102D01*
X145048949Y-78555492D01*
X145103271Y-78462496D01*
X145157414Y-78369800D01*
X145210977Y-78278089D01*
X145263560Y-78188049D01*
X145314762Y-78100365D01*
X145364183Y-78015724D01*
X145411423Y-77934810D01*
X145456080Y-77858309D01*
X145497754Y-77786908D01*
X145536045Y-77721290D01*
X145570552Y-77662143D01*
X145579674Y-77646503D01*
X145623669Y-77571097D01*
X145662284Y-77504990D01*
X145695952Y-77447486D01*
X145725105Y-77397892D01*
X145750178Y-77355513D01*
X145771602Y-77319653D01*
X145789810Y-77289619D01*
X145805236Y-77264714D01*
X145818313Y-77244245D01*
X145829472Y-77227517D01*
X145839148Y-77213835D01*
X145847773Y-77202505D01*
X145855779Y-77192830D01*
X145863601Y-77184117D01*
X145871670Y-77175672D01*
X145875420Y-77171851D01*
X145900320Y-77147698D01*
X145921825Y-77129867D01*
X145943688Y-77115591D01*
X145969663Y-77102103D01*
X145970801Y-77101560D01*
X146036508Y-77076256D01*
X146103054Y-77062336D01*
X146169801Y-77059801D01*
X146236109Y-77068653D01*
G37*
D15*
%TO.C,U1*%
X111878000Y-86128000D02*
X112328000Y-86128000D01*
X111878000Y-86578000D02*
X111878000Y-86128000D01*
X111878000Y-93348000D02*
X111878000Y-92898000D01*
X112328000Y-93348000D02*
X111878000Y-93348000D01*
X118648000Y-86128000D02*
X119098000Y-86128000D01*
X119098000Y-86128000D02*
X119098000Y-86578000D01*
X119098000Y-92898000D02*
X119098000Y-93348000D01*
X119098000Y-93348000D02*
X118648000Y-93348000D01*
X119118000Y-85828000D02*
X118648000Y-85488000D01*
X119118000Y-85148000D01*
X119118000Y-85828000D01*
G36*
X119118000Y-85828000D02*
G01*
X118648000Y-85488000D01*
X119118000Y-85148000D01*
X119118000Y-85828000D01*
G37*
D10*
%TO.C,CR1*%
X112050000Y-80400000D02*
X112050000Y-80900000D01*
X112050000Y-80400000D02*
X112550000Y-80400000D01*
X112050000Y-83600000D02*
X112050000Y-83100000D01*
X112050000Y-83600000D02*
X112550000Y-83600000D01*
X115250000Y-80400000D02*
X114750000Y-80400000D01*
X115250000Y-80400000D02*
X115250000Y-80900000D01*
X115250000Y-83100000D02*
X115250000Y-83600000D01*
X115250000Y-83600000D02*
X114750000Y-83600000D01*
D15*
X114400000Y-80325000D02*
X114160000Y-79989000D01*
X114640000Y-79989000D01*
X114400000Y-80325000D01*
G36*
X114400000Y-80325000D02*
G01*
X114160000Y-79989000D01*
X114640000Y-79989000D01*
X114400000Y-80325000D01*
G37*
%TO.C,SW1*%
X125152000Y-90662000D02*
X131248000Y-90662000D01*
X131248000Y-104378000D01*
X125152000Y-104378000D01*
X125152000Y-90662000D01*
X126930000Y-100200000D02*
X129470000Y-100200000D01*
X129470000Y-99000000D01*
X126930000Y-99000000D01*
X126930000Y-100200000D01*
%TD*%
M02*
